<svg width="36" height="36" viewBox="0 0 36 36" fill="none" xmlns="http://www.w3.org/2000/svg">
<path d="M3.21879 3.2196L3.2196 3.21879C4.54617 1.88919 6.23906 1.20208 8.61654 0.852898C11.011 0.501224 14.0365 0.5 17.9967 0.5C21.9569 0.5 24.9826 0.501217 27.3779 0.852109C29.7562 1.20049 31.451 1.88605 32.7808 3.21266C34.1108 4.54262 34.7979 6.23742 35.1471 8.6157C35.4988 11.011 35.5 14.0365 35.5 17.9967C35.5 21.957 35.4988 24.9825 35.1471 27.3778C34.7979 29.7561 34.1108 31.4509 32.7808 32.7808C31.4509 34.1107 29.7546 34.7979 27.3754 35.1471C24.9793 35.4988 21.9537 35.5 17.9967 35.5C14.0398 35.5 11.0142 35.4988 8.61896 35.1471C6.24054 34.7979 4.54609 34.1107 3.2196 32.7812L3.21919 32.7808C1.88931 31.4509 1.20211 29.7546 0.852905 27.3754C0.501221 24.9793 0.5 21.9537 0.5 17.9967C0.5 14.0398 0.501222 11.0142 0.852901 8.61896C1.20211 6.24054 1.88927 4.54609 3.21879 3.2196Z" stroke="white"/>
<path d="M15.9053 28V19.502H13V16.125H15.9053V13.4643C15.9053 10.5734 17.7083 9 20.3409 9C21.6023 9 22.6856 9.09277 23 9.13359V12.1543H21.1742C19.7424 12.1543 19.4659 12.8223 19.4659 13.7982V16.125H22.697L22.2538 19.502H19.4659V28" fill="white"/>
</svg>
