<svg width="36" height="36" viewBox="0 0 36 36" fill="none" xmlns="http://www.w3.org/2000/svg">
<path d="M3.21879 3.2196L3.2196 3.21879C4.54617 1.88919 6.23906 1.20208 8.61654 0.852898C11.011 0.501224 14.0365 0.5 17.9967 0.5C21.9569 0.5 24.9826 0.501217 27.3779 0.852109C29.7562 1.20049 31.451 1.88605 32.7808 3.21266C34.1108 4.54262 34.7979 6.23742 35.1471 8.6157C35.4988 11.011 35.5 14.0365 35.5 17.9967C35.5 21.957 35.4988 24.9825 35.1471 27.3778C34.7979 29.7561 34.1108 31.4509 32.7808 32.7808C31.4509 34.1107 29.7546 34.7979 27.3754 35.1471C24.9793 35.4988 21.9537 35.5 17.9967 35.5C14.0398 35.5 11.0142 35.4988 8.61896 35.1471C6.24054 34.7979 4.54609 34.1107 3.2196 32.7812L3.21919 32.7808C1.88931 31.4509 1.20211 29.7546 0.852905 27.3754C0.501221 24.9793 0.5 21.9537 0.5 17.9967C0.5 14.0398 0.501222 11.0142 0.852901 8.61896C1.20211 6.24054 1.88927 4.54609 3.21879 3.2196Z" stroke="white"/>
<path d="M25.1498 13.7383C25.1612 13.9023 25.1612 14.0664 25.1612 14.2305C25.1612 19.2344 21.4493 25 14.665 25C12.5749 25 10.6333 24.3789 9 23.3008C9.29697 23.3359 9.58247 23.3477 9.89086 23.3477C11.6155 23.3477 13.2031 22.75 14.4708 21.7305C12.849 21.6953 11.4898 20.6055 11.0216 19.1055C11.25 19.1406 11.4784 19.164 11.7183 19.164C12.0495 19.164 12.3807 19.1172 12.6891 19.0352C10.9987 18.6836 9.73094 17.1601 9.73094 15.3203V15.2734C10.222 15.5547 10.7932 15.7305 11.3984 15.7539C10.4048 15.0742 9.75379 13.914 9.75379 12.6015C9.75379 11.8984 9.9365 11.2539 10.2563 10.6914C12.0723 12.9883 14.802 14.4882 17.8629 14.6523C17.8058 14.3711 17.7716 14.0781 17.7716 13.7852C17.7716 11.6992 19.4162 10 21.4607 10C22.5228 10 23.4822 10.457 24.1561 11.1953C24.9898 11.0313 25.7893 10.7148 26.4975 10.2813C26.2233 11.1602 25.6409 11.8985 24.8756 12.3672C25.618 12.2852 26.3376 12.0742 27 11.7813C26.4975 12.5312 25.8693 13.1992 25.1498 13.7383Z" fill="white"/>
</svg>
