<svg width="36" height="36" viewBox="0 0 36 36" fill="none" xmlns="http://www.w3.org/2000/svg">
<mask id="path-1-inside-1_1191:10010" fill="white">
<path fill-rule="evenodd" clip-rule="evenodd" d="M4.28146 4.27824L4.27824 4.28146C3.2586 5.29878 2.6592 6.6423 2.33699 8.83686C2.00489 11.0988 2 13.997 2 17.9967C2 21.9964 2.00489 24.8947 2.337 27.1575C2.65922 29.3528 3.25879 30.6991 4.27985 31.7201L4.28147 31.7218C5.29878 32.7414 6.6423 33.3408 8.83686 33.663C11.0988 33.9951 13.997 34 17.9967 34C21.9964 34 24.8947 33.9951 27.1575 33.663C29.3529 33.3408 30.6991 32.7412 31.7201 31.7201C32.7415 30.6988 33.3409 29.3539 33.663 27.1599C33.9951 24.898 34 21.9998 34 17.9967C34 13.9937 33.9951 11.0955 33.663 8.8336C33.341 6.64018 32.7418 5.29538 31.7209 4.27411C30.6999 3.25577 29.3547 2.6577 27.1605 2.33627C24.8982 2.00487 21.9996 2 17.9967 2C13.9937 2 11.0955 2.00489 8.83451 2.33698C6.6413 2.6591 5.29908 3.2583 4.28146 4.27824ZM33.1344 2.85911C36 5.72475 36 10.1048 36 17.9967C36 25.8887 36 30.2687 33.1344 33.1344C30.2687 36 25.8821 36 17.9967 36C10.1113 36 5.72475 36 2.86564 33.1344C0 30.2687 0 25.8821 0 17.9967C0 10.1113 0 5.72475 2.86564 2.86564C5.72475 0 10.1048 0 17.9967 0C25.8887 0 30.2687 0 33.1344 2.85911ZM18 24C21.3137 24 24 21.3137 24 18C24 14.6863 21.3137 12 18 12C14.6863 12 12 14.6863 12 18C12 21.3137 14.6863 24 18 24ZM18 26C22.4183 26 26 22.4183 26 18C26 13.5817 22.4183 10 18 10C13.5817 10 10 13.5817 10 18C10 22.4183 13.5817 26 18 26ZM26.5 11C27.8807 11 29 9.88071 29 8.5C29 7.11929 27.8807 6 26.5 6C25.1193 6 24 7.11929 24 8.5C24 9.88071 25.1193 11 26.5 11Z"/>
</mask>
<path fill-rule="evenodd" clip-rule="evenodd" d="M4.28146 4.27824L4.27824 4.28146C3.2586 5.29878 2.6592 6.6423 2.33699 8.83686C2.00489 11.0988 2 13.997 2 17.9967C2 21.9964 2.00489 24.8947 2.337 27.1575C2.65922 29.3528 3.25879 30.6991 4.27985 31.7201L4.28147 31.7218C5.29878 32.7414 6.6423 33.3408 8.83686 33.663C11.0988 33.9951 13.997 34 17.9967 34C21.9964 34 24.8947 33.9951 27.1575 33.663C29.3529 33.3408 30.6991 32.7412 31.7201 31.7201C32.7415 30.6988 33.3409 29.3539 33.663 27.1599C33.9951 24.898 34 21.9998 34 17.9967C34 13.9937 33.9951 11.0955 33.663 8.8336C33.341 6.64018 32.7418 5.29538 31.7209 4.27411C30.6999 3.25577 29.3547 2.6577 27.1605 2.33627C24.8982 2.00487 21.9996 2 17.9967 2C13.9937 2 11.0955 2.00489 8.83451 2.33698C6.6413 2.6591 5.29908 3.2583 4.28146 4.27824ZM33.1344 2.85911C36 5.72475 36 10.1048 36 17.9967C36 25.8887 36 30.2687 33.1344 33.1344C30.2687 36 25.8821 36 17.9967 36C10.1113 36 5.72475 36 2.86564 33.1344C0 30.2687 0 25.8821 0 17.9967C0 10.1113 0 5.72475 2.86564 2.86564C5.72475 0 10.1048 0 17.9967 0C25.8887 0 30.2687 0 33.1344 2.85911ZM18 24C21.3137 24 24 21.3137 24 18C24 14.6863 21.3137 12 18 12C14.6863 12 12 14.6863 12 18C12 21.3137 14.6863 24 18 24ZM18 26C22.4183 26 26 22.4183 26 18C26 13.5817 22.4183 10 18 10C13.5817 10 10 13.5817 10 18C10 22.4183 13.5817 26 18 26ZM26.5 11C27.8807 11 29 9.88071 29 8.5C29 7.11929 27.8807 6 26.5 6C25.1193 6 24 7.11929 24 8.5C24 9.88071 25.1193 11 26.5 11Z" fill="white"/>
<path d="M4.27824 4.28146L4.63139 4.63542L4.63179 4.63502L4.27824 4.28146ZM4.28146 4.27824L4.63502 4.63179L4.63542 4.63139L4.28146 4.27824ZM2.33699 8.83686L2.83169 8.90949L2.33699 8.83686ZM2.337 27.1575L2.8317 27.0849L2.337 27.1575ZM4.27985 31.7201L3.9263 32.0737L3.9264 32.0738L4.27985 31.7201ZM4.28147 31.7218L4.63542 31.3686L4.63491 31.3681L4.28147 31.7218ZM8.83686 33.663L8.76423 34.1577L8.83686 33.663ZM27.1575 33.663L27.2301 34.1577L27.1575 33.663ZM31.7201 31.7201L32.0737 32.0737L31.7201 31.7201ZM33.663 27.1599L33.1683 27.0872L33.663 27.1599ZM33.663 8.8336L33.1683 8.90623V8.90623L33.663 8.8336ZM31.7209 4.27411L32.0746 3.92062L32.074 3.92008L31.7209 4.27411ZM27.1605 2.33627L27.233 1.84155L27.1605 2.33627ZM8.83451 2.33698L8.76185 1.84228L8.83451 2.33698ZM33.1344 2.85911L33.4879 2.50556L33.4875 2.50516L33.1344 2.85911ZM2.86564 33.1344L3.2196 32.7812L3.21919 32.7808L2.86564 33.1344ZM2.86564 2.86564L3.21879 3.2196L3.2196 3.21879L2.86564 2.86564ZM4.63179 4.63502L4.63502 4.63179L3.92791 3.92469L3.92469 3.92791L4.63179 4.63502ZM2.83169 8.90949C3.14486 6.7765 3.71491 5.54981 4.63139 4.63542L3.92509 3.92751C2.8023 5.04774 2.17354 6.5081 1.84229 8.76423L2.83169 8.90949ZM2.5 17.9967C2.5 13.9825 2.50612 11.1269 2.83169 8.90949L1.84229 8.76423C1.50366 11.0707 1.5 14.0115 1.5 17.9967H2.5ZM2.8317 27.0849C2.50612 24.8666 2.5 22.0109 2.5 17.9967H1.5C1.5 21.9819 1.50365 24.9228 1.8423 27.2301L2.8317 27.0849ZM4.63341 31.3666C3.71515 30.4483 3.14488 29.2187 2.8317 27.0849L1.8423 27.2301C2.17356 29.487 2.80243 30.9498 3.9263 32.0737L4.63341 31.3666ZM4.63491 31.3681L4.6333 31.3665L3.9264 32.0738L3.92802 32.0754L4.63491 31.3681ZM8.90949 33.1683C6.77649 32.8551 5.54981 32.2851 4.63542 31.3686L3.92751 32.0749C5.04774 33.1977 6.5081 33.8265 8.76423 34.1577L8.90949 33.1683ZM17.9967 33.5C13.9825 33.5 11.1269 33.4939 8.90949 33.1683L8.76423 34.1577C11.0707 34.4963 14.0115 34.5 17.9967 34.5V33.5ZM27.0849 33.1683C24.8666 33.4939 22.0109 33.5 17.9967 33.5V34.5C21.9819 34.5 24.9228 34.4963 27.2301 34.1577L27.0849 33.1683ZM31.3666 31.3666C30.4483 32.2849 29.2187 32.8551 27.0849 33.1683L27.2301 34.1577C29.487 33.8264 30.9498 33.1976 32.0737 32.0737L31.3666 31.3666ZM33.1683 27.0872C32.8552 29.2195 32.2852 30.448 31.3666 31.3666L32.0737 32.0737C33.1978 30.9496 33.8265 29.4882 34.1577 27.2325L33.1683 27.0872ZM33.5 17.9967C33.5 22.0143 33.4939 24.8699 33.1683 27.0872L34.1577 27.2325C34.4963 24.9261 34.5 21.9852 34.5 17.9967H33.5ZM33.1683 8.90623C33.4939 11.1236 33.5 13.9792 33.5 17.9967H34.5C34.5 14.0083 34.4963 11.0674 34.1577 8.76096L33.1683 8.90623ZM31.3673 4.6276C32.2855 5.54615 32.8553 6.77449 33.1683 8.90623L34.1577 8.76096C33.8266 6.50587 33.1981 5.04461 32.0746 3.92062L31.3673 4.6276ZM27.0881 2.83099C29.2208 3.14341 30.4496 3.71229 31.3679 4.62814L32.074 3.92008C30.9502 2.79925 29.4887 2.17198 27.233 1.84155L27.0881 2.83099ZM17.9967 2.5C22.0142 2.5 24.8702 2.5061 27.0881 2.83099L27.233 1.84155C24.9263 1.50364 21.9851 1.5 17.9967 1.5V2.5ZM8.90716 2.83167C11.1237 2.50613 13.9791 2.5 17.9967 2.5V1.5C14.0082 1.5 11.0674 1.50366 8.76185 1.84228L8.90716 2.83167ZM4.63542 4.63139C5.55019 3.71453 6.77565 3.14473 8.90716 2.83167L8.76185 1.84228C6.50694 2.17347 5.04797 2.80206 3.92751 3.92509L4.63542 4.63139ZM36.5 17.9967C36.5 14.065 36.5012 10.9546 36.1365 8.47043C35.7693 5.96929 35.0236 4.04124 33.4879 2.50556L32.7808 3.21266C34.1108 4.54262 34.7979 6.23742 35.1471 8.6157C35.4988 11.011 35.5 14.0365 35.5 17.9967H36.5ZM33.4879 33.4879C35.0236 31.9522 35.7693 30.0242 36.1365 27.523C36.5012 25.0389 36.5 21.9284 36.5 17.9967H35.5C35.5 21.957 35.4988 24.9825 35.1471 27.3778C34.7979 29.7561 34.1108 31.4509 32.7808 32.7808L33.4879 33.4879ZM17.9967 36.5C21.9252 36.5 25.0356 36.5012 27.5206 36.1365C30.0224 35.7693 31.9522 35.0237 33.4879 33.4879L32.7808 32.7808C31.4509 34.1107 29.7546 34.7979 27.3754 35.1471C24.9793 35.4988 21.9537 35.5 17.9967 35.5V36.5ZM2.51168 33.4875C4.0443 35.0236 5.9727 35.7693 8.4737 36.1365C10.9579 36.5012 14.0683 36.5 17.9967 36.5V35.5C14.0398 35.5 11.0142 35.4988 8.61896 35.1471C6.24054 34.7979 4.54609 34.1107 3.2196 32.7812L2.51168 33.4875ZM-0.5 17.9967C-0.5 21.9252 -0.501221 25.0356 -0.136495 27.5206C0.230707 30.0224 0.976326 31.9522 2.51209 33.4879L3.21919 32.7808C1.88931 31.4509 1.20211 29.7546 0.852905 27.3754C0.501221 24.9793 0.5 21.9537 0.5 17.9967H-0.5ZM2.51249 2.51168C0.976373 4.0443 0.230712 5.9727 -0.136491 8.4737C-0.501222 10.9579 -0.5 14.0683 -0.5 17.9967H0.5C0.5 14.0398 0.501222 11.0142 0.852901 8.61896C1.20211 6.24054 1.88927 4.54609 3.21879 3.2196L2.51249 2.51168ZM17.9967 -0.5C14.0651 -0.5 10.9546 -0.501224 8.47122 -0.136488C5.97091 0.230738 4.04422 0.97645 2.51168 2.51249L3.2196 3.21879C4.54617 1.88919 6.23906 1.20208 8.61654 0.852898C11.011 0.501224 14.0365 0.5 17.9967 0.5V-0.5ZM33.4875 2.50516C31.9518 0.972921 30.0238 0.229026 27.5229 -0.137331C25.0388 -0.501217 21.9285 -0.5 17.9967 -0.5V0.5C21.9569 0.5 24.9826 0.501217 27.3779 0.852109C29.7564 1.20053 31.4513 1.88619 32.7812 3.21307L33.4875 2.50516ZM23.5 18C23.5 21.0376 21.0376 23.5 18 23.5V24.5C21.5899 24.5 24.5 21.5899 24.5 18H23.5ZM18 12.5C21.0376 12.5 23.5 14.9624 23.5 18H24.5C24.5 14.4101 21.5899 11.5 18 11.5V12.5ZM12.5 18C12.5 14.9624 14.9624 12.5 18 12.5V11.5C14.4101 11.5 11.5 14.4101 11.5 18H12.5ZM18 23.5C14.9624 23.5 12.5 21.0376 12.5 18H11.5C11.5 21.5899 14.4101 24.5 18 24.5V23.5ZM25.5 18C25.5 22.1421 22.1421 25.5 18 25.5V26.5C22.6944 26.5 26.5 22.6944 26.5 18H25.5ZM18 10.5C22.1421 10.5 25.5 13.8579 25.5 18H26.5C26.5 13.3056 22.6944 9.5 18 9.5V10.5ZM10.5 18C10.5 13.8579 13.8579 10.5 18 10.5V9.5C13.3056 9.5 9.5 13.3056 9.5 18H10.5ZM18 25.5C13.8579 25.5 10.5 22.1421 10.5 18H9.5C9.5 22.6944 13.3056 26.5 18 26.5V25.5ZM28.5 8.5C28.5 9.60457 27.6046 10.5 26.5 10.5V11.5C28.1569 11.5 29.5 10.1569 29.5 8.5H28.5ZM26.5 6.5C27.6046 6.5 28.5 7.39543 28.5 8.5H29.5C29.5 6.84315 28.1569 5.5 26.5 5.5V6.5ZM24.5 8.5C24.5 7.39543 25.3954 6.5 26.5 6.5V5.5C24.8431 5.5 23.5 6.84315 23.5 8.5H24.5ZM26.5 10.5C25.3954 10.5 24.5 9.60457 24.5 8.5H23.5C23.5 10.1569 24.8431 11.5 26.5 11.5V10.5Z" fill="#1E2433" mask="url(#path-1-inside-1_1191:10010)"/>
</svg>
