<svg width="93" height="20" viewBox="0 0 93 20" fill="none" xmlns="http://www.w3.org/2000/svg">
<path d="M22.2197 19.2043V3.2771H37.3415V7.96833H30.2604V9.82185H36.8783V12.6432H30.2604V14.5295H37.3415V19.2043H22.2197Z" fill="#F99D21"/>
<path d="M48.2272 3.2771H40.1865V19.2043H48.2272V3.2771Z" fill="#F99D21"/>
<path d="M59.1306 19.6801C54.1175 19.6801 51.338 18.0561 50.577 17.5476V12.9383C54.1341 15.1691 59.2133 15.612 59.5773 14.3161C59.9413 13.0531 58.353 13.1023 56.3345 12.8727C51.6524 12.3149 50.0972 10.5598 50.0972 8.27971C50.0972 7.55796 50.0145 2.81738 59.7593 2.81738C62.8035 2.81738 65.5499 3.22747 67.6014 4.19527V8.80461C65.5664 7.90243 63.2336 7.44313 61.331 7.44313C59.8254 7.44313 58.9817 7.57436 58.9817 8.47655C58.9817 10.5926 68.561 7.7712 68.561 13.742C68.5445 17.6296 64.3752 19.6801 59.1306 19.6801Z" fill="#F99D21"/>
<path d="M9.87716 3.2771H0C0 19.2043 0 3.2771 0 19.2043H9.87716C18.1826 19.2043 20.3334 15.448 20.3334 11.2325C20.3334 7.03336 18.1826 3.2771 9.87716 3.2771ZM9.92679 15.4644H8.0407V7.03336H9.92679C12.2927 7.03336 12.7394 9.83826 12.7559 11.2489C12.7394 12.6432 12.2927 15.4644 9.92679 15.4644Z" fill="#F99D21"/>
<path d="M78.5207 19.6801C73.5077 19.6801 70.7282 18.0561 69.9671 17.5476V12.9383C73.5242 15.1691 78.6034 15.612 78.9674 14.3161C79.3314 13.0531 77.7431 13.1023 75.7247 12.8727C71.0425 12.3149 69.4873 10.5598 69.4873 8.27971C69.4873 7.55796 69.4046 2.81738 79.1494 2.81738C82.1936 2.81738 84.94 3.22747 86.9916 4.19527V8.80461C84.9566 7.90243 82.6238 7.44313 80.7212 7.44313C79.2156 7.44313 78.3718 7.57436 78.3718 8.47655C78.3718 10.5926 87.9512 7.7712 87.9512 13.742C87.9181 17.6296 83.7654 19.6801 78.5207 19.6801Z" fill="#F99D21"/>
<path d="M91.2109 2.27625C91.3102 2.22712 91.3929 2.14525 91.4591 2.04699C91.5253 1.94874 91.5418 1.83411 91.5418 1.7031C91.5418 1.5721 91.5087 1.47384 91.4425 1.37559C91.3764 1.27734 91.2936 1.19546 91.1778 1.14633C91.062 1.0972 90.9297 1.06445 90.7642 1.06445H89.5068V3.14416H90.1024V2.25988L90.8304 3.14416H91.5418L90.8635 2.35813C90.9958 2.35813 91.1117 2.32538 91.2109 2.27625ZM90.5326 2.06337H90.1024V1.49022H90.5657C90.6815 1.49022 90.7642 1.5066 90.8304 1.55572C90.8966 1.60485 90.9131 1.67035 90.9131 1.75223C90.9131 1.96511 90.7808 2.06337 90.5326 2.06337Z" fill="#F99D21"/>
<path d="M90.5161 0.442468C91.4426 0.442468 92.1871 1.17991 92.1871 2.09762C92.1871 3.01534 91.4426 3.75278 90.5161 3.75278C89.5896 3.75278 88.8451 3.01534 88.8451 2.09762C88.8451 1.1963 89.6061 0.442468 90.5161 0.442468ZM90.5161 0C89.3414 0 88.3818 0.950486 88.3818 2.11401C88.3818 3.27754 89.3414 4.22802 90.5161 4.22802C91.6908 4.22802 92.6504 3.27754 92.6504 2.11401C92.6504 0.950486 91.6908 0 90.5161 0Z" fill="#F99D21"/>
</svg>
