<svg width="122" height="80" viewBox="0 0 122 80" fill="none" xmlns="http://www.w3.org/2000/svg">
<path fill-rule="evenodd" clip-rule="evenodd" d="M7.36108 0.251358C5.43655 0.755619 3.93603 1.63578 2.6294 3.02719C1.17722 4.57332 0.419379 6.09437 0.1118 8.07949C0.0152403 8.70332 -0.0167718 17.1143 0.00805406 35.3581L0.0439864 61.7348L0.536061 62.7198C1.32513 64.2992 2.698 65.3406 4.41595 65.6628C4.79775 65.7346 5.85846 65.7931 6.77323 65.7931H8.43617L8.50294 67.6998C8.57859 69.8598 8.8667 71.2031 9.58352 72.7381C11.1259 76.0406 14.2821 78.6419 17.973 79.6528C18.8382 79.8898 19.3508 79.9326 21.4073 79.9395C23.5518 79.9467 23.9407 79.9143 24.8547 79.6524C27.749 78.823 29.9665 77.4083 31.6779 75.2995C33.608 72.9212 34.4337 70.4502 34.3152 67.4062L34.2523 65.7931H59.9074H85.5625V67.479C85.5625 69.4511 85.7854 70.6987 86.4107 72.2264C87.2721 74.3309 89.1475 76.5882 91.0906 77.8592C92.1943 78.5812 93.8291 79.3043 95.1009 79.6329C96.7399 80.0565 99.4489 80.1235 101.111 79.7816C105.246 78.9312 108.645 76.3277 110.33 72.7207C111.066 71.1444 111.315 69.9739 111.397 67.7077L111.47 65.6798L114.751 65.6395L118.032 65.5993L118.911 65.1875C120.081 64.6389 121.001 63.768 121.529 62.7072L121.952 61.8563L121.99 51.3184C122.018 43.4521 121.988 40.6385 121.872 40.2206C121.635 39.3708 120.814 38.2161 120.03 37.6303C119.522 37.251 117.993 36.5569 114.523 35.1295L109.719 33.1538L105.772 25.8704C103.576 21.8192 101.565 18.265 101.239 17.8615C100.055 16.3933 98.1944 15.1971 96.1462 14.5863C95.1835 14.2992 95.0271 14.2932 87.2285 14.248L79.2907 14.202L79.2888 11.1392C79.2867 7.71871 79.1896 7.06011 78.4596 5.51294C77.5123 3.50521 75.9541 1.96282 73.8682 0.968002C71.6591 -0.0856336 74.5916 -0.00342168 39.5436 0.00459272C9.52642 0.0114437 8.23913 0.0212674 7.36108 0.251358ZM71.3145 2.48376C73.329 3.10229 75.1218 4.50727 75.9922 6.14957C76.8419 7.75271 76.8041 6.83855 76.8062 25.8827L76.8082 43.1718H39.7H2.5919V25.8129C2.5919 6.90292 2.55845 7.79834 3.32387 6.23489C4.31482 4.21112 6.48251 2.67934 8.84671 2.33239C9.25124 2.27293 23.3117 2.2335 40.092 2.24462C68.3534 2.26349 70.6542 2.28107 71.3145 2.48376ZM95.8195 16.9262C97.0283 17.3469 98.5285 18.3741 99.2247 19.2579C99.6614 19.8122 106.73 32.5446 106.73 32.7768C106.73 32.807 100.571 32.8171 93.043 32.799L79.3561 32.766L79.3222 24.8163C79.3035 20.4439 79.3174 16.7911 79.3529 16.6992C79.4051 16.5643 80.9174 16.5392 87.1613 16.57L94.9049 16.608L95.8195 16.9262ZM113.347 37.1026C115.911 38.1724 118.176 39.165 118.38 39.3085C118.583 39.452 118.912 39.8419 119.11 40.1749L119.469 40.7805L119.505 50.9955L119.541 61.2105L119.178 61.9175C118.738 62.7768 118.045 63.2845 117.067 63.4655C116.68 63.5371 115.083 63.5956 113.518 63.5956H110.672L110.178 62.6057C107.548 57.3398 101.085 54.5084 95.1795 56.035C92.6337 56.6932 90.3633 58.055 88.6089 59.9762C87.9752 60.6701 86.9517 62.2146 86.5912 63.0209L86.3324 63.5998L82.8442 63.5654L79.3561 63.531L79.3229 49.3442L79.2896 35.1574H93.9875H108.685L113.347 37.1026ZM76.8082 54.4829V63.5964L55.2162 63.5637L33.6242 63.531L33.1192 62.5615C31.4409 59.3396 28.6523 57.0944 25.0698 56.081C23.6397 55.6764 21.6307 55.5196 20.0926 55.6927C18.4047 55.8826 17.4899 56.1168 16.0672 56.7237C13.3756 57.8719 11.2236 59.8811 9.79349 62.5808L9.29018 63.531H7.14967C4.68329 63.531 4.0595 63.3767 3.36569 62.5949C2.56564 61.6934 2.5919 62.0088 2.5919 53.3233V45.3693H39.7H76.8082V54.4829ZM24.1512 58.3127C30.3895 59.8886 33.6014 66.4724 30.8716 72.0888C29.6213 74.6612 27.2061 76.606 24.2165 77.4475C22.7291 77.8662 20.2222 77.8671 18.7287 77.4494C15.7246 76.6094 13.4062 74.7633 12.1253 72.1917C11.46 70.856 11.2087 69.8981 11.1222 68.3684C10.9056 64.5358 12.9754 61.0042 16.5074 59.1797C18.8586 57.9654 21.5623 57.6587 24.1512 58.3127ZM101.239 58.3198C107.006 59.8126 110.254 65.6683 108.317 71.0834C107.83 72.443 107.234 73.4077 106.209 74.4933C103.002 77.888 98.0497 78.7513 93.7364 76.667C90.2502 74.9824 88.14 71.6643 88.1364 67.8614C88.1303 61.3417 94.6291 56.609 101.239 58.3198Z" fill="white"/>
</svg>
