<svg xmlns="http://www.w3.org/2000/svg" viewBox="0 0 1353.66 1112.77"><defs><style>.cls-1{fill:none;stroke:#fbd29a;stroke-miterlimit:10;stroke-width:2px;}.cls-2{fill:#f99d21;}</style></defs><title>Пиллер_сетка со стрелкой_десктоп</title><g id="Слой_2" data-name="Слой 2"><g id="Слой_1-2" data-name="Слой 1"><path class="cls-1" d="M470.81,233V176.39H414V233Z"/><path class="cls-1" d="M470.81,349.88V293.32H414v56.56Z"/><path class="cls-1" d="M470.81,291.4V234.84H414V291.4Z"/><path class="cls-1" d="M470.81,174.49V117.93H414v56.56Z"/><path class="cls-1" d="M470.81,116V59.45H414V116Z"/><path class="cls-1" d="M470.81,408.33V351.77H414v56.56Z"/><path class="cls-1" d="M470.81,525.27V468.71H414v56.56Z"/><path class="cls-1" d="M470.81,642.17V585.61H414v56.56Z"/><path class="cls-1" d="M470.81,583.72V527.16H414v56.56Z"/><path class="cls-1" d="M470.81,466.78V410.23H414v56.55Z"/><path class="cls-1" d="M705.71,233V176.39H648.89V233Z"/><path class="cls-1" d="M705.71,291.4V234.84H648.89V291.4Z"/><path class="cls-1" d="M705.71,349.88V293.32H648.89v56.56Z"/><path class="cls-1" d="M705.71,408.33V351.77H648.89v56.56Z"/><path class="cls-1" d="M705.71,174.49V117.93H648.89v56.56Z"/><path class="cls-1" d="M705.71,466.78V410.23H648.89v56.55Z"/><path class="cls-1" d="M705.71,116V59.45H648.89V116Z"/><path class="cls-1" d="M764.43,233V176.39H707.61V233Z"/><path class="cls-1" d="M764.43,174.49V117.93H707.61v56.56Z"/><path class="cls-1" d="M764.43,291.4V234.84H707.61V291.4Z"/><path class="cls-1" d="M764.43,466.78V410.23H707.61v56.55Z"/><path class="cls-1" d="M470.81,700.65V644.09H414v56.56Z"/><path class="cls-1" d="M764.43,408.33V351.77H707.61v56.56Z"/><path class="cls-1" d="M764.43,116V59.45H707.61V116Z"/><path class="cls-1" d="M764.43,349.88V293.32H707.61v56.56Z"/><path class="cls-1" d="M588.28,759.1V702.55H531.45V759.1Z"/><path class="cls-1" d="M705.71,759.1V702.55H648.89V759.1Z"/><path class="cls-1" d="M647,759.11V702.55H590.17v56.56Z"/><path class="cls-1" d="M764.43,525.27V468.71H707.61v56.56Z"/><path class="cls-1" d="M529.53,759.1V702.55H472.7V759.1Z"/><path class="cls-1" d="M470.81,759.1V702.55H414V759.1Z"/><path class="cls-1" d="M764.43,583.72V527.16H707.61v56.56Z"/><path class="cls-1" d="M764.43,642.17V585.61H707.61v56.56Z"/><path class="cls-1" d="M764.43,759.1V702.55H707.61V759.1Z"/><path class="cls-1" d="M764.43,700.62V644.07H707.61v56.55Z"/><path class="cls-1" d="M647,466.78V410.23H590.17v56.55Z"/><path class="cls-1" d="M588.28,466.78V410.23H531.45v56.55Z"/><path class="cls-1" d="M588.28,525.27V468.71H531.45v56.56Z"/><path class="cls-1" d="M588.28,349.88V293.32H531.45v56.56Z"/><path class="cls-1" d="M588.28,408.33V351.77H531.45v56.56Z"/><path class="cls-1" d="M588.28,583.72V527.16H531.45v56.56Z"/><path class="cls-1" d="M588.28,291.4V234.84H531.45V291.4Z"/><path class="cls-1" d="M647,408.33V351.77H590.17v56.56Z"/><path class="cls-1" d="M647,642.17V585.61H590.17v56.56Z"/><path class="cls-1" d="M647,583.72V527.16H590.17v56.56Z"/><path class="cls-1" d="M588.28,642.17V585.61H531.45v56.56Z"/><path class="cls-1" d="M588.28,233V176.39H531.45V233Z"/><path class="cls-1" d="M705.71,525.27V468.71H648.89v56.56Z"/><path class="cls-1" d="M588.28,174.49V117.93H531.45v56.56Z"/><path class="cls-1" d="M529.53,642.17V585.61H472.7v56.56Z"/><path class="cls-1" d="M529.53,583.72V527.16H472.7v56.56Z"/><path class="cls-1" d="M529.53,525.27V468.71H472.7v56.56Z"/><path class="cls-1" d="M529.53,700.65V644.09H472.7v56.56Z"/><path class="cls-1" d="M529.53,466.78V410.23H472.7v56.55Z"/><path class="cls-1" d="M588.28,700.65V644.09H531.45v56.56Z"/><path class="cls-1" d="M705.71,583.72V527.16H648.89v56.56Z"/><path class="cls-1" d="M529.53,408.33V351.77H472.7v56.56Z"/><path class="cls-1" d="M647,349.88V293.32H590.17v56.56Z"/><path class="cls-1" d="M647,700.65V644.09H590.17v56.56Z"/><path class="cls-1" d="M705.71,700.62V644.07H648.89v56.55Z"/><path class="cls-1" d="M705.71,642.17V585.61H648.89v56.56Z"/><path class="cls-1" d="M647,174.49V117.93H590.17v56.56Z"/><path class="cls-1" d="M647,116V59.45H590.17V116Z"/><path class="cls-1" d="M647,291.4V234.84H590.17V291.4Z"/><path class="cls-1" d="M647,233V176.39H590.17V233Z"/><path class="cls-1" d="M529.53,349.88V293.32H472.7v56.56Z"/><path class="cls-1" d="M588.28,116V59.45H531.45V116Z"/><path class="cls-1" d="M529.53,116V59.45H472.7V116Z"/><path class="cls-1" d="M529.53,233V176.39H472.7V233Z"/><path class="cls-1" d="M529.53,291.4V234.84H472.7V291.4Z"/><path class="cls-1" d="M529.53,174.49V117.93H472.7v56.56Z"/><path class="cls-1" d="M823.18,349.88V293.32H766.36v56.56Z"/><path class="cls-1" d="M353.34,759.1V702.55H296.52V759.1Z"/><path class="cls-1" d="M353.34,700.65V644.09H296.52v56.56Z"/><path class="cls-1" d="M353.34,583.72V527.16H296.52v56.56Z"/><path class="cls-1" d="M353.34,817.56V761H296.52v56.56Z"/><path class="cls-1" d="M353.34,642.17V585.61H296.52v56.56Z"/><path class="cls-1" d="M470.81,876V819.45H414V876Z"/><path class="cls-1" d="M529.53,876V819.45H472.7V876Z"/><path class="cls-1" d="M588.28,876V819.45H531.45V876Z"/><path class="cls-1" d="M412.09,876V819.45H355.27V876Z"/><path class="cls-1" d="M353.34,876V819.45H296.52V876Z"/><path class="cls-1" d="M353.34,525.27V468.71H296.52v56.56Z"/><path class="cls-1" d="M353.34,408.33V351.77H296.52v56.56Z"/><path class="cls-1" d="M353.34,116V59.45H296.52V116Z"/><path class="cls-1" d="M353.34,174.49V117.93H296.52v56.56Z"/><path class="cls-1" d="M353.34,291.4V234.84H296.52V291.4Z"/><path class="cls-1" d="M647,876V819.45H590.17V876Z"/><path class="cls-1" d="M353.34,233V176.39H296.52V233Z"/><path class="cls-1" d="M353.34,349.88V293.32H296.52v56.56Z"/><path class="cls-1" d="M353.34,466.78V410.23H296.52v56.55Z"/><path class="cls-1" d="M764.43,876V819.45H707.61V876Z"/><path class="cls-1" d="M881.9,116V59.45H825.07V116Z"/><path class="cls-1" d="M881.9,174.49V117.93H825.07v56.56Z"/><path class="cls-1" d="M881.9,233V176.39H825.07V233Z"/><path class="cls-1" d="M881.9,349.88V293.32H825.07v56.56Z"/><path class="cls-1" d="M881.9,408.33V351.77H825.07v56.56Z"/><path class="cls-1" d="M881.9,291.4V234.84H825.07V291.4Z"/><path class="cls-1" d="M881.9,817.56V761H825.07v56.56Z"/><path class="cls-1" d="M881.9,759.1V702.55H825.07V759.1Z"/><path class="cls-1" d="M881.9,876V819.45H825.07V876Z"/><path class="cls-1" d="M823.18,876V819.45H766.36V876Z"/><path class="cls-1" d="M705.71,876V819.45H648.89V876Z"/><path class="cls-1" d="M881.9,583.72V527.16H825.07v56.56Z"/><path class="cls-1" d="M881.9,525.27V468.71H825.07v56.56Z"/><path class="cls-1" d="M881.9,466.78V410.23H825.07v56.55Z"/><path class="cls-1" d="M881.9,700.62V644.07H825.07v56.55Z"/><path class="cls-1" d="M881.9,642.17V585.61H825.07v56.56Z"/><path class="cls-1" d="M412.09,349.88V293.32H355.27v56.56Z"/><path class="cls-1" d="M412.09,700.65V644.09H355.27v56.56Z"/><path class="cls-1" d="M412.09,817.56V761H355.27v56.56Z"/><path class="cls-1" d="M412.09,525.27V468.71H355.27v56.56Z"/><path class="cls-1" d="M412.09,583.72V527.16H355.27v56.56Z"/><path class="cls-1" d="M412.09,642.17V585.61H355.27v56.56Z"/><path class="cls-1" d="M412.09,759.1V702.55H355.27V759.1Z"/><path class="cls-1" d="M470.81,817.56V761H414v56.56Z"/><path class="cls-1" d="M705.71,817.56V761H648.89v56.56Z"/><path class="cls-1" d="M647,817.56V761H590.17v56.56Z"/><path class="cls-1" d="M764.43,817.56V761H707.61v56.56Z"/><path class="cls-1" d="M588.28,817.56V761H531.45v56.56Z"/><path class="cls-1" d="M529.53,817.56V761H472.7v56.56Z"/><path class="cls-1" d="M412.09,116V59.45H355.27V116Z"/><path class="cls-1" d="M412.09,174.49V117.93H355.27v56.56Z"/><path class="cls-1" d="M412.09,466.78V410.23H355.27v56.55Z"/><path class="cls-1" d="M412.09,408.33V351.77H355.27v56.56Z"/><path class="cls-1" d="M412.09,233V176.39H355.27V233Z"/><path class="cls-1" d="M412.09,291.4V234.84H355.27V291.4Z"/><path class="cls-1" d="M823.18,700.62V644.07H766.36v56.55Z"/><path class="cls-1" d="M823.18,174.49V117.93H766.36v56.56Z"/><path class="cls-1" d="M823.18,116V59.45H766.36V116Z"/><path class="cls-1" d="M823.18,817.56V761H766.36v56.56Z"/><path class="cls-1" d="M823.18,583.72V527.16H766.36v56.56Z"/><path class="cls-1" d="M823.18,642.17V585.61H766.36v56.56Z"/><path class="cls-1" d="M823.18,759.1V702.55H766.36V759.1Z"/><path class="cls-1" d="M823.18,525.27V468.71H766.36v56.56Z"/><path class="cls-1" d="M823.18,291.4V234.84H766.36V291.4Z"/><path class="cls-1" d="M823.18,233V176.39H766.36V233Z"/><path class="cls-1" d="M823.18,466.79V410.23H766.36v56.56Z"/><path class="cls-1" d="M823.18,408.33V351.77H766.36v56.56Z"/><path class="cls-1" d="M647,525.27V468.71H590.17v56.56Z"/><path class="cls-1" d="M1058.08,466.79V410.23h-56.82v56.56Z"/><path class="cls-1" d="M118.44,817.56V761H61.61v56.56Z"/><path class="cls-1" d="M118.44,934.49V877.93H61.61v56.56Z"/><path class="cls-1" d="M118.44,876V819.45H61.61V876Z"/><path class="cls-1" d="M118.44,759.1V702.55H61.61V759.1Z"/><path class="cls-1" d="M118.44,700.65V644.09H61.61v56.56Z"/><path class="cls-1" d="M118.44,1051.4V994.84H61.61v56.56Z"/><path class="cls-1" d="M118.44,992.94V936.39H61.61v56.55Z"/><path class="cls-1" d="M118.44,642.17V585.61H61.61v56.56Z"/><path class="cls-1" d="M1116.8,408.33V351.77H1060v56.56Z"/><path class="cls-1" d="M1116.8,466.78V410.23H1060v56.55Z"/><path class="cls-1" d="M1116.8,291.4V234.84H1060V291.4Z"/><path class="cls-1" d="M1116.8,525.27V468.71H1060v56.56Z"/><path class="cls-1" d="M1116.8,233V176.39H1060V233Z"/><path class="cls-1" d="M1116.8,583.72V527.16H1060v56.56Z"/><path class="cls-1" d="M1116.8,174.49V117.93H1060v56.56Z"/><path class="cls-1" d="M1116.8,116V59.45H1060V116Z"/><path class="cls-1" d="M1116.8,992.94V936.39H1060v56.55Z"/><path class="cls-1" d="M1116.8,1051.4V994.84H1060v56.56Z"/><path class="cls-1" d="M1116.8,934.49V877.93H1060v56.56Z"/><path class="cls-1" d="M1116.8,817.56V761H1060v56.56Z"/><path class="cls-1" d="M1116.8,876V819.45H1060V876Z"/><path class="cls-1" d="M1116.8,700.62V644.07H1060v56.55Z"/><path class="cls-1" d="M1116.8,759.1V702.55H1060V759.1Z"/><path class="cls-1" d="M1116.8,642.17V585.61H1060v56.56Z"/><path class="cls-1" d="M1116.8,349.88V293.32H1060v56.56Z"/><path class="cls-1" d="M1058.08,174.49V117.94h-56.82v56.55Z"/><path class="cls-1" d="M1058.08,291.4V234.84h-56.82V291.4Z"/><path class="cls-1" d="M1058.08,233V176.39h-56.82V233Z"/><path class="cls-1" d="M1058.08,349.88V293.32h-56.82v56.56Z"/><path class="cls-1" d="M1058.08,408.33V351.77h-56.82v56.56Z"/><path class="cls-1" d="M1058.08,116V59.45h-56.82V116Z"/><path class="cls-1" d="M118.44,174.49V117.93H61.61v56.56Z"/><path class="cls-1" d="M118.44,116V59.45H61.61V116Z"/><path class="cls-1" d="M118.44,408.33V351.77H61.61v56.56Z"/><path class="cls-1" d="M118.44,466.79V410.23H61.61v56.56Z"/><path class="cls-1" d="M118.44,349.88V293.32H61.61v56.56Z"/><path class="cls-1" d="M118.44,525.27V468.71H61.61v56.56Z"/><path class="cls-1" d="M118.44,583.72V527.16H61.61v56.56Z"/><path class="cls-1" d="M1175.55,642.17V585.61h-56.82v56.56Z"/><path class="cls-1" d="M1175.55,291.4V234.84h-56.82V291.4Z"/><path class="cls-1" d="M1175.55,174.49V117.93h-56.82v56.56Z"/><path class="cls-1" d="M1175.55,233V176.39h-56.82V233Z"/><path class="cls-1" d="M1175.55,408.33V351.77h-56.82v56.56Z"/><path class="cls-1" d="M1175.55,349.88V293.32h-56.82v56.56Z"/><path class="cls-1" d="M1175.55,466.78V410.23h-56.82v56.55Z"/><path class="cls-1" d="M1175.55,116V59.45h-56.82V116Z"/><path class="cls-1" d="M1175.55,700.62V644.07h-56.82v56.55Z"/><path class="cls-1" d="M1175.55,525.27V468.71h-56.82v56.56Z"/><path class="cls-1" d="M1175.55,934.49V877.93h-56.82v56.56Z"/><path class="cls-1" d="M1175.55,817.56V761h-56.82v56.56Z"/><path class="cls-1" d="M1175.55,1051.4V994.84h-56.82v56.56Z"/><path class="cls-1" d="M1175.55,876V819.45h-56.82V876Z"/><path class="cls-1" d="M1175.55,759.1V702.55h-56.82V759.1Z"/><path class="cls-1" d="M1175.55,992.94V936.39h-56.82v56.55Z"/><path class="cls-1" d="M1175.55,583.72V527.16h-56.82v56.56Z"/><path class="cls-1" d="M940.65,408.33V351.77H883.82v56.56Z"/><path class="cls-1" d="M940.65,116V59.45H883.82V116Z"/><path class="cls-1" d="M940.65,174.49V117.93H883.82v56.56Z"/><path class="cls-1" d="M940.65,233V176.39H883.82V233Z"/><path class="cls-1" d="M940.65,349.88V293.32H883.82v56.56Z"/><path class="cls-1" d="M940.65,291.4V234.84H883.82V291.4Z"/><path class="cls-1" d="M235.91,759.1V702.55H179.08V759.1Z"/><path class="cls-1" d="M235.91,700.65V644.09H179.08v56.56Z"/><path class="cls-1" d="M235.9,525.27V468.71H179.08v56.56Z"/><path class="cls-1" d="M235.9,817.56V761H179.08v56.56Z"/><path class="cls-1" d="M235.91,583.72V527.16H179.08v56.56Z"/><path class="cls-1" d="M353.34,992.94V936.39H296.52v56.55Z"/><path class="cls-1" d="M294.62,992.94V936.39H237.8v56.55Z"/><path class="cls-1" d="M235.9,876V819.45H179.08V876Z"/><path class="cls-1" d="M235.91,934.49V877.93H179.08v56.56Z"/><path class="cls-1" d="M235.9,992.94V936.39H179.08v56.55Z"/><path class="cls-1" d="M235.91,642.17V585.61H179.08v56.56Z"/><path class="cls-1" d="M235.91,174.49V117.93H179.08v56.56Z"/><path class="cls-1" d="M235.91,116V59.45H179.08V116Z"/><path class="cls-1" d="M235.91,466.78V410.23H179.08v56.55Z"/><path class="cls-1" d="M235.91,408.33V351.77H179.08v56.56Z"/><path class="cls-1" d="M235.9,233V176.39H179.08V233Z"/><path class="cls-1" d="M235.9,349.88V293.32H179.08v56.56Z"/><path class="cls-1" d="M235.9,291.4V234.84H179.08V291.4Z"/><path class="cls-1" d="M412.09,934.49V877.93H355.27v56.56Z"/><path class="cls-1" d="M294.62,349.88V293.32H237.8v56.56Z"/><path class="cls-1" d="M294.62,408.33V351.77H237.8v56.56Z"/><path class="cls-1" d="M294.62,291.4V234.84H237.8V291.4Z"/><path class="cls-1" d="M294.62,233V176.39H237.8V233Z"/><path class="cls-1" d="M294.62,174.49V117.93H237.8v56.56Z"/><path class="cls-1" d="M294.62,116V59.45H237.8V116Z"/><path class="cls-1" d="M294.62,642.17V585.61H237.8v56.56Z"/><path class="cls-1" d="M294.62,466.78V410.23H237.8v56.55Z"/><path class="cls-1" d="M294.62,700.65V644.09H237.8v56.56Z"/><path class="cls-1" d="M294.62,525.27V468.71H237.8v56.56Z"/><path class="cls-1" d="M294.62,759.1V702.55H237.8V759.1Z"/><path class="cls-1" d="M294.62,583.72V527.16H237.8v56.56Z"/><path class="cls-1" d="M940.65,642.17V585.61H883.82v56.56Z"/><path class="cls-1" d="M940.65,759.1V702.55H883.82V759.1Z"/><path class="cls-1" d="M940.65,817.56V761H883.82v56.56Z"/><path class="cls-1" d="M940.65,876V819.45H883.82V876Z"/><path class="cls-1" d="M881.9,934.49V877.93H825.07v56.56Z"/><path class="cls-1" d="M940.65,934.49V877.93H883.82v56.56Z"/><path class="cls-1" d="M823.18,934.49V877.93H766.36v56.56Z"/><path class="cls-1" d="M940.65,583.72V527.16H883.82v56.56Z"/><path class="cls-1" d="M940.65,525.27V468.71H883.82v56.56Z"/><path class="cls-1" d="M940.65,466.78V410.23H883.82v56.55Z"/><path class="cls-1" d="M940.65,700.62V644.07H883.82v56.55Z"/><path class="cls-1" d="M294.62,876V819.45H237.8V876Z"/><path class="cls-1" d="M764.43,934.49V877.93H707.61v56.56Z"/><path class="cls-1" d="M470.81,934.49V877.93H414v56.56Z"/><path class="cls-1" d="M353.34,934.49V877.93H296.52v56.56Z"/><path class="cls-1" d="M294.62,934.49V877.93H237.8v56.56Z"/><path class="cls-1" d="M294.62,817.56V761H237.8v56.56Z"/><path class="cls-1" d="M412.09,992.94V936.39H355.27v56.55Z"/><path class="cls-1" d="M647,934.49V877.93H590.17v56.56Z"/><path class="cls-1" d="M705.71,934.49V877.93H648.89v56.56Z"/><path class="cls-1" d="M588.28,934.49V877.93H531.45v56.56Z"/><path class="cls-1" d="M529.53,934.49V877.93H472.7v56.56Z"/><path class="cls-1" d="M177.16,700.65V644.09H120.33v56.56Z"/><path class="cls-1" d="M177.16,642.17V585.61H120.33v56.56Z"/><path class="cls-1" d="M177.16,466.78V410.23H120.33v56.55Z"/><path class="cls-1" d="M177.16,759.1V702.55H120.33V759.1Z"/><path class="cls-1" d="M177.16,583.72V527.16H120.33v56.56Z"/><path class="cls-1" d="M177.16,525.27V468.71H120.33v56.56Z"/><path class="cls-1" d="M177.16,992.94V936.39H120.33v56.55Z"/><path class="cls-1" d="M177.16,1051.4V994.84H120.33v56.56Z"/><path class="cls-1" d="M177.16,934.49V877.93H120.33v56.56Z"/><path class="cls-1" d="M177.16,817.56V761H120.33v56.56Z"/><path class="cls-1" d="M177.16,876V819.45H120.33V876Z"/><path class="cls-1" d="M177.16,408.33V351.77H120.33v56.56Z"/><path class="cls-1" d="M235.9,1051.4V994.84H179.08v56.56Z"/><path class="cls-1" d="M177.16,116V59.45H120.33V116Z"/><path class="cls-1" d="M177.16,349.88V293.32H120.33v56.56Z"/><path class="cls-1" d="M177.16,174.49V117.93H120.33v56.56Z"/><path class="cls-1" d="M1058.08,876V819.45h-56.82V876Z"/><path class="cls-1" d="M470.81,992.94V936.39H414v56.55Z"/><path class="cls-1" d="M1058.08,992.94V936.39h-56.82v56.55Z"/><path class="cls-1" d="M1058.08,1051.4V994.84h-56.82v56.56Z"/><path class="cls-1" d="M294.62,1051.4V994.84H237.8v56.56Z"/><path class="cls-1" d="M1058.08,817.56V761h-56.82v56.56Z"/><path class="cls-1" d="M940.65,1051.4V994.84H883.82v56.56Z"/><path class="cls-1" d="M1058.09,642.17V585.61h-56.83v56.56Z"/><path class="cls-1" d="M1058.08,583.72V527.16h-56.82v56.56Z"/><path class="cls-1" d="M1058.09,759.1V702.55h-56.83V759.1Z"/><path class="cls-1" d="M1058.08,700.62V644.06h-56.82v56.56Z"/><path class="cls-1" d="M999.34,1051.4V994.84H942.51v56.56Z"/><path class="cls-1" d="M529.53,1051.4V994.84H472.7v56.56Z"/><path class="cls-1" d="M470.81,1051.4V994.84H414v56.56Z"/><path class="cls-1" d="M588.28,1051.4V994.84H531.45v56.56Z"/><path class="cls-1" d="M412.09,1051.4V994.84H355.27v56.56Z"/><path class="cls-1" d="M353.34,1051.4V994.84H296.52v56.56Z"/><path class="cls-1" d="M823.18,1051.4V994.84H766.36v56.56Z"/><path class="cls-1" d="M647,1051.4V994.84H590.17v56.56Z"/><path class="cls-1" d="M764.43,1051.4V994.84H707.61v56.56Z"/><path class="cls-1" d="M881.9,1051.4V994.84H825.07v56.56Z"/><path class="cls-1" d="M705.71,1051.4V994.84H648.89v56.56Z"/><path class="cls-1" d="M1058.08,934.49V877.93h-56.82v56.56Z"/><path class="cls-1" d="M999.37,642.17V585.61H942.54v56.56Z"/><path class="cls-1" d="M999.37,583.72V527.16H942.54v56.56Z"/><path class="cls-1" d="M999.37,817.56V761H942.54v56.56Z"/><path class="cls-1" d="M999.37,759.1V702.55H942.54V759.1Z"/><path class="cls-1" d="M999.37,525.27V468.71H942.54v56.56Z"/><path class="cls-1" d="M999.37,349.88V293.32H942.54v56.56Z"/><path class="cls-1" d="M999.37,291.4V234.84H942.54V291.4Z"/><path class="cls-1" d="M999.37,466.78V410.23H942.54v56.55Z"/><path class="cls-1" d="M999.37,408.33V351.77H942.54v56.56Z"/><path class="cls-1" d="M999.37,876V819.45H942.54V876Z"/><path class="cls-1" d="M705.71,992.94V936.39H648.89v56.55Z"/><path class="cls-1" d="M999.37,934.49V877.93H942.54v56.56Z"/><path class="cls-1" d="M647,992.94V936.39H590.17v56.55Z"/><path class="cls-1" d="M999.37,233V176.39H942.54V233Z"/><path class="cls-1" d="M588.28,992.94V936.39H531.45v56.55Z"/><path class="cls-1" d="M529.53,992.94V936.39H472.7v56.55Z"/><path class="cls-1" d="M764.43,992.94V936.39H707.61v56.55Z"/><path class="cls-1" d="M940.65,992.94V936.39H883.82v56.55Z"/><path class="cls-1" d="M823.18,992.94V936.39H766.36v56.55Z"/><path class="cls-1" d="M999.37,992.94V936.39H942.54v56.55Z"/><path class="cls-1" d="M881.9,992.94V936.39H825.07v56.55Z"/><path class="cls-1" d="M999.37,700.62V644.06H942.54v56.56Z"/><path class="cls-1" d="M999.37,116V59.45H942.54V116Z"/><path class="cls-1" d="M999.37,174.49V117.93H942.54v56.56Z"/><path class="cls-1" d="M1058.08,525.27V468.71h-56.82v56.56Z"/><path class="cls-1" d="M1293,934.49V877.93h-56.83v56.56Z"/><path class="cls-1" d="M1293,1051.4V994.84h-56.83v56.56Z"/><path class="cls-1" d="M1293,992.94V936.39h-56.83v56.55Z"/><path class="cls-1" d="M1293,700.62V644.07h-56.82v56.55Z"/><path class="cls-1" d="M1293,817.56V761h-56.83v56.56Z"/><path class="cls-1" d="M1293,876V819.45h-56.82V876Z"/><path class="cls-1" d="M1293,759.1V702.55h-56.83V759.1Z"/><path class="cls-1" d="M1293,408.33V351.77h-56.83v56.56Z"/><path class="cls-1" d="M1293,116V59.45h-56.83V116Z"/><path class="cls-1" d="M1293,174.49V117.93h-56.83v56.56Z"/><path class="cls-1" d="M1293,233V176.39h-56.83V233Z"/><path class="cls-1" d="M1293,583.72V527.16h-56.83v56.56Z"/><path class="cls-1" d="M1293,525.27V468.71h-56.82v56.56Z"/><path class="cls-1" d="M1293,466.78V410.23h-56.83v56.55Z"/><path class="cls-1" d="M1293,291.4V234.84h-56.83V291.4Z"/><path class="cls-1" d="M1293,642.17V585.61h-56.83v56.56Z"/><path class="cls-1" d="M1293,349.88V293.32h-56.82v56.56Z"/><path class="cls-1" d="M1234.27,934.49V877.93h-56.82v56.56Z"/><path class="cls-1" d="M1234.27,992.94V936.39h-56.82v56.55Z"/><path class="cls-1" d="M1234.27,408.33V351.77h-56.82v56.56Z"/><path class="cls-1" d="M1234.27,466.78V410.23h-56.82v56.55Z"/><path class="cls-1" d="M1234.27,525.27V468.71h-56.82v56.56Z"/><path class="cls-1" d="M1234.27,349.88V293.32h-56.82v56.56Z"/><path class="cls-1" d="M1234.27,1051.4V994.84h-56.83v56.56Z"/><path class="cls-1" d="M1234.27,876V819.45h-56.82V876Z"/><path class="cls-1" d="M1234.27,817.56V761h-56.83v56.56Z"/><path class="cls-1" d="M1234.27,759.1V702.55h-56.83V759.1Z"/><path class="cls-1" d="M1234.27,291.4V234.84h-56.82V291.4Z"/><path class="cls-1" d="M1234.27,642.17V585.61h-56.82v56.56Z"/><path class="cls-1" d="M1234.27,700.62V644.07h-56.82v56.55Z"/><path class="cls-1" d="M1234.27,583.72V527.16h-56.82v56.56Z"/><path class="cls-1" d="M1234.27,174.49V117.93h-56.82v56.56Z"/><path class="cls-1" d="M1234.27,233V176.39h-56.82V233Z"/><path class="cls-1" d="M1234.27,116V59.45h-56.82V116Z"/><path class="cls-1" d="M999.34,1053.32v-1.9H942.51v1.9Z"/><path class="cls-1" d="M1058.08,1053.32v-1.89h-56.82v1.89Z"/><path class="cls-1" d="M881.9,1053.32v-1.9H825.07v1.9Z"/><path class="cls-1" d="M412.09,1053.32v-1.89H355.27v1.89Z"/><path class="cls-1" d="M823.18,1053.32v-1.89H766.36v1.89Z"/><path class="cls-1" d="M470.81,1053.32v-1.89H414v1.89Z"/><path class="cls-1" d="M647,1053.32v-1.89H590.17v1.89Z"/><path class="cls-1" d="M235.9,1053.32v-1.89H179.08v1.89Z"/><path class="cls-1" d="M177.16,1053.32v-1.89H120.33v1.89Z"/><path class="cls-1" d="M529.53,1053.32v-1.89H472.7v1.89Z"/><path class="cls-1" d="M353.34,1053.32v-1.9H296.52v1.9Z"/><path class="cls-1" d="M588.28,1053.32v-1.89H531.45v1.89Z"/><path class="cls-1" d="M764.43,1053.32v-1.9H707.61v1.9Z"/><path class="cls-1" d="M705.71,1053.32v-1.89H648.89v1.89Z"/><path class="cls-1" d="M294.62,1053.32v-1.89H237.8v1.89Z"/><path class="cls-1" d="M940.65,1053.32v-1.9H883.82v1.9Z"/><path class="cls-1" d="M1116.8,1053.32v-1.89H1060v1.89Z"/><path class="cls-1" d="M118.44,1053.32v-1.9H61.61v1.9Z"/><path class="cls-1" d="M1293,1053.32v-1.89h-56.83v1.89Z"/><path class="cls-1" d="M59.72,1053.32v-1.89H2.89v1.89Z"/><path class="cls-1" d="M1175.55,1053.32v-1.89h-56.82v1.89Z"/><path class="cls-1" d="M1351.71,1053.32v-1.89h-56.83v1.89Z"/><path class="cls-1" d="M1234.27,1053.32v-1.89h-56.82v1.89Z"/><path class="cls-1" d="M1352.66,1053.32v-1.89h-1v1.89Z"/><path class="cls-1" d="M1175.55,994.84v-1.9h-56.82v1.9Z"/><path class="cls-1" d="M823.18,994.84v-1.9H766.36v1.9Z"/><path class="cls-1" d="M764.43,994.84v-1.9H707.61v1.9Z"/><path class="cls-1" d="M1351.71,994.84v-1.9h-56.83v1.9Z"/><path class="cls-1" d="M1234.27,994.84v-1.9h-56.82v1.9Z"/><path class="cls-1" d="M881.9,994.84v-1.9H825.07v1.9Z"/><path class="cls-1" d="M1058.08,994.84v-1.9h-56.82v1.9Z"/><path class="cls-1" d="M1116.8,994.84v-1.9H1060v1.9Z"/><path class="cls-1" d="M177.16,994.84v-1.9H120.33v1.9Z"/><path class="cls-1" d="M940.65,994.84v-1.9H883.82v1.9Z"/><path class="cls-1" d="M294.62,994.84v-1.9H237.8v1.9Z"/><path class="cls-1" d="M353.34,994.84v-1.9H296.52v1.9Z"/><path class="cls-1" d="M118.44,994.84v-1.9H61.61v1.9Z"/><path class="cls-1" d="M235.9,994.84v-1.9H179.08v1.9Z"/><path class="cls-1" d="M412.09,994.84v-1.9H355.27v1.9Z"/><path class="cls-1" d="M999.34,994.84v-1.9H942.51v1.9Z"/><path class="cls-1" d="M588.28,994.84v-1.9H531.45v1.9Z"/><path class="cls-1" d="M647,994.84v-1.9H590.17v1.9Z"/><path class="cls-1" d="M1293,994.84v-1.9h-56.82v1.9Z"/><path class="cls-1" d="M470.81,994.84v-1.9H414v1.9Z"/><path class="cls-1" d="M705.71,994.84v-1.9H648.89v1.9Z"/><path class="cls-1" d="M529.53,994.84v-1.9H472.7v1.9Z"/><path class="cls-1" d="M59.72,994.84v-1.9H2.9v1.9Z"/><path class="cls-1" d="M1352.65,994.84v-1.9h-.94v1.9Z"/><path class="cls-1" d="M1234.27,936.39v-1.9h-56.82v1.9Z"/><path class="cls-1" d="M118.44,936.39v-1.9H61.61v1.9Z"/><path class="cls-1" d="M1175.55,936.39v-1.9h-56.82v1.9Z"/><path class="cls-1" d="M1058.08,936.39v-1.9h-56.82v1.9Z"/><path class="cls-1" d="M705.71,936.39v-1.9H648.89v1.9Z"/><path class="cls-1" d="M999.37,936.39v-1.9H942.54v1.9Z"/><path class="cls-1" d="M940.65,936.39v-1.9H883.82v1.9Z"/><path class="cls-1" d="M588.28,936.39v-1.9H531.45v1.9Z"/><path class="cls-1" d="M177.16,936.39v-1.9H120.33v1.9Z"/><path class="cls-1" d="M529.53,936.39v-1.9H472.7v1.9Z"/><path class="cls-1" d="M235.9,936.39v-1.9H179.08v1.9Z"/><path class="cls-1" d="M412.09,936.39v-1.9H355.27v1.9Z"/><path class="cls-1" d="M470.81,936.39v-1.9H414v1.9Z"/><path class="cls-1" d="M823.18,936.39v-1.9H766.36v1.9Z"/><path class="cls-1" d="M353.34,936.39v-1.9H296.52v1.9Z"/><path class="cls-1" d="M1293,936.39v-1.9h-56.83v1.9Z"/><path class="cls-1" d="M1116.8,936.39v-1.9H1060v1.9Z"/><path class="cls-1" d="M59.72,936.39v-1.9H2.9v1.9Z"/><path class="cls-1" d="M881.9,936.39v-1.9H825.07v1.9Z"/><path class="cls-1" d="M764.43,936.39v-1.9H707.61v1.9Z"/><path class="cls-1" d="M647,936.39v-1.9H590.17v1.9Z"/><path class="cls-1" d="M294.62,936.39v-1.9H237.8v1.9Z"/><path class="cls-1" d="M1351.71,936.39v-1.9h-56.83v1.9Z"/><path class="cls-1" d="M1352.65,936.39v-1.9h-.94v1.9Z"/><path class="cls-1" d="M1175.55,877.93V876h-56.82v1.89Z"/><path class="cls-1" d="M294.62,877.93V876H237.8v1.89Z"/><path class="cls-1" d="M177.16,877.93V876H120.33v1.89Z"/><path class="cls-1" d="M235.9,877.93V876H179.08v1.89Z"/><path class="cls-1" d="M1116.8,877.93V876H1060v1.89Z"/><path class="cls-1" d="M1293,877.93V876h-56.83v1.89Z"/><path class="cls-1" d="M1351.71,877.93V876h-56.83v1.89Z"/><path class="cls-1" d="M470.81,877.93V876H414v1.89Z"/><path class="cls-1" d="M529.53,877.93V876H472.7v1.89Z"/><path class="cls-1" d="M881.9,877.93V876H825.07v1.89Z"/><path class="cls-1" d="M1234.27,877.93V876h-56.83v1.89Z"/><path class="cls-1" d="M588.28,877.93V876H531.45v1.89Z"/><path class="cls-1" d="M940.65,877.93V876H883.82v1.89Z"/><path class="cls-1" d="M412.09,877.93V876H355.27v1.89Z"/><path class="cls-1" d="M59.72,877.93V876H2.9v1.89Z"/><path class="cls-1" d="M353.34,877.93V876H296.52v1.89Z"/><path class="cls-1" d="M705.71,877.93V876H648.89v1.89Z"/><path class="cls-1" d="M764.43,877.93V876H707.61v1.89Z"/><path class="cls-1" d="M823.18,877.93V876H766.36v1.89Z"/><path class="cls-1" d="M647,877.93V876H590.17v1.89Z"/><path class="cls-1" d="M118.44,877.93V876H61.61v1.89Z"/><path class="cls-1" d="M999.37,877.93V876H942.54v1.89Z"/><path class="cls-1" d="M1058.08,877.93V876h-56.82v1.89Z"/><path class="cls-1" d="M1352.65,877.93V876h-.94v1.89Z"/><path class="cls-1" d="M940.65,819.45v-1.89H883.82v1.89Z"/><path class="cls-1" d="M1351.71,819.45v-1.89h-56.83v1.89Z"/><path class="cls-1" d="M235.9,819.45v-1.89H179.08v1.89Z"/><path class="cls-1" d="M881.9,819.45v-1.89H825.07v1.89Z"/><path class="cls-1" d="M1116.8,819.45v-1.89H1060v1.89Z"/><path class="cls-1" d="M118.44,819.45v-1.89H61.61v1.89Z"/><path class="cls-1" d="M59.72,819.45v-1.89H2.9v1.89Z"/><path class="cls-1" d="M1234.27,819.45v-1.89h-56.82v1.89Z"/><path class="cls-1" d="M999.37,819.45v-1.89H942.54v1.89Z"/><path class="cls-1" d="M1293,819.45v-1.89h-56.83v1.89Z"/><path class="cls-1" d="M1058.08,819.45v-1.89h-56.82v1.89Z"/><path class="cls-1" d="M764.43,819.45v-1.89H707.61v1.89Z"/><path class="cls-1" d="M529.53,819.45v-1.89H472.7v1.89Z"/><path class="cls-1" d="M470.81,819.45v-1.89H414v1.89Z"/><path class="cls-1" d="M588.28,819.45v-1.89H531.45v1.89Z"/><path class="cls-1" d="M412.09,819.45v-1.89H355.27v1.89Z"/><path class="cls-1" d="M1175.55,819.45v-1.89h-56.82v1.89Z"/><path class="cls-1" d="M647,819.45v-1.89H590.17v1.89Z"/><path class="cls-1" d="M177.16,819.45v-1.89H120.33v1.89Z"/><path class="cls-1" d="M353.34,819.45v-1.89H296.52v1.89Z"/><path class="cls-1" d="M823.18,819.45v-1.89H766.36v1.89Z"/><path class="cls-1" d="M705.71,819.45v-1.89H648.89v1.89Z"/><path class="cls-1" d="M294.62,819.45v-1.89H237.8v1.89Z"/><path class="cls-1" d="M1352.65,819.45v-1.89h-.94v1.89Z"/><path class="cls-1" d="M1293,761v-1.9h-56.83V761Z"/><path class="cls-1" d="M881.9,761v-1.9H825.07V761Z"/><path class="cls-1" d="M177.16,761v-1.9H120.33V761Z"/><path class="cls-1" d="M529.53,761v-1.9H472.7V761Z"/><path class="cls-1" d="M705.71,761v-1.9H648.89V761Z"/><path class="cls-1" d="M412.09,761v-1.9H355.27V761Z"/><path class="cls-1" d="M118.44,761v-1.9H61.61V761Z"/><path class="cls-1" d="M1116.8,761v-1.9H1060V761Z"/><path class="cls-1" d="M764.43,761v-1.9H707.61V761Z"/><path class="cls-1" d="M59.72,761v-1.9H2.9V761Z"/><path class="cls-1" d="M353.34,761v-1.9H296.52V761Z"/><path class="cls-1" d="M588.28,761v-1.9H531.45V761Z"/><path class="cls-1" d="M823.18,761v-1.9H766.36V761Z"/><path class="cls-1" d="M1234.27,761v-1.9h-56.82V761Z"/><path class="cls-1" d="M294.62,761v-1.9H237.8V761Z"/><path class="cls-1" d="M999.37,761v-1.9H942.54V761Z"/><path class="cls-1" d="M470.81,761v-1.9H414V761Z"/><path class="cls-1" d="M1175.55,761v-1.9h-56.82V761Z"/><path class="cls-1" d="M1058.08,761v-1.9h-56.82V761Z"/><path class="cls-1" d="M1351.71,761v-1.9h-56.83V761Z"/><path class="cls-1" d="M235.9,761v-1.9H179.08V761Z"/><path class="cls-1" d="M940.65,761v-1.9H883.82V761Z"/><path class="cls-1" d="M647,761v-1.9H590.17V761Z"/><path class="cls-1" d="M1352.65,761v-1.9h-.94V761Z"/><path class="cls-1" d="M1234.27,702.55v-1.9h-56.83v1.9Z"/><path class="cls-1" d="M177.16,702.55v-1.9H120.33v1.9Z"/><path class="cls-1" d="M1058.08,702.55v-1.9h-56.82v1.9Z"/><path class="cls-1" d="M823.18,702.55v-1.9H766.36v1.9Z"/><path class="cls-1" d="M294.62,702.55v-1.9H237.8v1.9Z"/><path class="cls-1" d="M1175.55,702.55v-1.9h-56.82v1.9Z"/><path class="cls-1" d="M59.72,702.55v-1.9H2.9v1.9Z"/><path class="cls-1" d="M881.9,702.55v-1.9H825.07v1.9Z"/><path class="cls-1" d="M353.34,702.55v-1.9H296.52v1.9Z"/><path class="cls-1" d="M1351.71,702.55v-1.9h-56.83v1.9Z"/><path class="cls-1" d="M1293,702.55v-1.9h-56.82v1.9Z"/><path class="cls-1" d="M999.37,702.55v-1.9H942.54v1.9Z"/><path class="cls-1" d="M764.43,702.55v-1.9H707.61v1.9Z"/><path class="cls-1" d="M1116.8,702.55v-1.9H1060v1.9Z"/><path class="cls-1" d="M235.91,702.55v-1.9H179.08v1.9Z"/><path class="cls-1" d="M940.65,702.55v-1.9H883.82v1.9Z"/><path class="cls-1" d="M647,702.55v-1.9H590.17v1.9Z"/><path class="cls-1" d="M588.28,702.55v-1.9H531.45v1.9Z"/><path class="cls-1" d="M470.81,702.55v-1.9H414v1.9Z"/><path class="cls-1" d="M412.09,702.55v-1.9H355.27v1.9Z"/><path class="cls-1" d="M705.71,702.55v-1.9H648.89v1.9Z"/><path class="cls-1" d="M529.53,702.55v-1.9H472.7v1.9Z"/><path class="cls-1" d="M118.44,702.55v-1.9H61.61v1.9Z"/><path class="cls-1" d="M1352.65,702.55v-1.9h-.94v1.9Z"/><path class="cls-1" d="M294.62,644.06v-1.89H237.8v1.89Z"/><path class="cls-1" d="M177.16,644.07v-1.9H120.33v1.9Z"/><path class="cls-1" d="M470.81,644.06v-1.89H414v1.89Z"/><path class="cls-1" d="M1234.27,644.09V642.2h-56.82v1.89Z"/><path class="cls-1" d="M118.44,644.07v-1.9H61.61v1.9Z"/><path class="cls-1" d="M999.37,644.09V642.2H942.54v1.89Z"/><path class="cls-1" d="M881.9,644.09V642.2H825.07v1.89Z"/><path class="cls-1" d="M353.34,644.07v-1.9H296.52v1.9Z"/><path class="cls-1" d="M940.65,644.09V642.2H883.82v1.89Z"/><path class="cls-1" d="M59.72,644.07v-1.9H2.89v1.9Z"/><path class="cls-1" d="M1175.55,644.09V642.2h-56.82v1.89Z"/><path class="cls-1" d="M705.71,644.09V642.2H648.89v1.89Z"/><path class="cls-1" d="M412.09,644.07v-1.9H355.27v1.9Z"/><path class="cls-1" d="M235.91,644.07v-1.9H179.08v1.9Z"/><path class="cls-1" d="M823.18,644.09V642.2H766.36v1.89Z"/><path class="cls-1" d="M1116.8,644.09V642.2H1060v1.89Z"/><path class="cls-1" d="M529.53,644.07v-1.9H472.7v1.9Z"/><path class="cls-1" d="M764.43,644.09V642.2H707.61v1.89Z"/><path class="cls-1" d="M1058.08,644.09V642.2h-56.82v1.89Z"/><path class="cls-1" d="M1351.71,644.09V642.2h-56.83v1.89Z"/><path class="cls-1" d="M647,644.06v-1.89H590.17v1.89Z"/><path class="cls-1" d="M1293,644.09V642.2h-56.83v1.89Z"/><path class="cls-1" d="M588.28,644.07v-1.9H531.45v1.9Z"/><path class="cls-1" d="M1352.65,644.09V642.2h-.94v1.89Z"/><path class="cls-1" d="M647,585.61v-1.89H590.17v1.89Z"/><path class="cls-1" d="M940.65,585.61v-1.89H883.82v1.89Z"/><path class="cls-1" d="M588.28,585.61v-1.89H531.45v1.89Z"/><path class="cls-1" d="M59.72,585.61v-1.89H2.9v1.89Z"/><path class="cls-1" d="M1116.8,585.61v-1.89H1060v1.89Z"/><path class="cls-1" d="M118.44,585.61v-1.89H61.61v1.89Z"/><path class="cls-1" d="M881.9,585.61v-1.89H825.07v1.89Z"/><path class="cls-1" d="M999.37,585.61v-1.89H942.54v1.89Z"/><path class="cls-1" d="M412.09,585.61v-1.89H355.27v1.89Z"/><path class="cls-1" d="M1058.08,585.61v-1.89h-56.82v1.89Z"/><path class="cls-1" d="M235.91,585.61v-1.89H179.08v1.89Z"/><path class="cls-1" d="M823.18,585.61v-1.89H766.36v1.89Z"/><path class="cls-1" d="M1351.71,585.61v-1.89h-56.83v1.89Z"/><path class="cls-1" d="M705.71,585.61v-1.89H648.89v1.89Z"/><path class="cls-1" d="M177.16,585.61v-1.89H120.33v1.89Z"/><path class="cls-1" d="M294.62,585.61v-1.89H237.8v1.89Z"/><path class="cls-1" d="M1293,585.61v-1.89h-56.83v1.89Z"/><path class="cls-1" d="M470.81,585.61v-1.89H414v1.89Z"/><path class="cls-1" d="M353.34,585.61v-1.89H296.52v1.89Z"/><path class="cls-1" d="M1175.55,585.61v-1.89h-56.82v1.89Z"/><path class="cls-1" d="M529.53,585.61v-1.89H472.7v1.89Z"/><path class="cls-1" d="M764.43,585.61v-1.89H707.61v1.89Z"/><path class="cls-1" d="M1234.27,585.61v-1.89h-56.82v1.89Z"/><path class="cls-1" d="M1352.65,585.61v-1.89h-.94v1.89Z"/><path class="cls-1" d="M1234.27,527.16v-1.89h-56.82v1.89Z"/><path class="cls-1" d="M294.62,527.16v-1.89H237.8v1.89Z"/><path class="cls-1" d="M705.71,527.16v-1.89H648.89v1.89Z"/><path class="cls-1" d="M529.53,527.16v-1.89H472.7v1.89Z"/><path class="cls-1" d="M59.72,527.16v-1.89H2.9v1.89Z"/><path class="cls-1" d="M588.28,527.16v-1.89H531.45v1.89Z"/><path class="cls-1" d="M647,527.16v-1.89H590.17v1.89Z"/><path class="cls-1" d="M177.16,527.16v-1.89H120.33v1.89Z"/><path class="cls-1" d="M823.18,527.16v-1.89H766.36v1.89Z"/><path class="cls-1" d="M470.81,527.16v-1.89H414v1.89Z"/><path class="cls-1" d="M1293,527.16v-1.89h-56.83v1.89Z"/><path class="cls-1" d="M1058.08,527.16v-1.89h-56.82v1.89Z"/><path class="cls-1" d="M412.09,527.16v-1.89H355.27v1.89Z"/><path class="cls-1" d="M1351.71,527.16v-1.89h-56.83v1.89Z"/><path class="cls-1" d="M764.43,527.16v-1.89H707.61v1.89Z"/><path class="cls-1" d="M1116.8,527.16v-1.89H1060v1.89Z"/><path class="cls-1" d="M353.34,527.16v-1.89H296.52v1.89Z"/><path class="cls-1" d="M118.44,527.16v-1.89H61.61v1.89Z"/><path class="cls-1" d="M881.9,527.16v-1.89H825.07v1.89Z"/><path class="cls-1" d="M1175.55,527.16v-1.89h-56.82v1.89Z"/><path class="cls-1" d="M999.37,527.16v-1.89H942.54v1.89Z"/><path class="cls-1" d="M940.65,527.16v-1.89H883.82v1.89Z"/><path class="cls-1" d="M235.91,527.16v-1.89H179.08v1.89Z"/><path class="cls-1" d="M1352.65,527.16v-1.89h-.94v1.89Z"/><path class="cls-1" d="M999.37,468.71v-1.9H942.54v1.9Z"/><path class="cls-1" d="M294.62,468.71v-1.9H237.8v1.9Z"/><path class="cls-1" d="M235.9,468.71v-1.9H179.08v1.9Z"/><path class="cls-1" d="M177.16,468.71v-1.9H120.33v1.9Z"/><path class="cls-1" d="M940.65,468.71v-1.9H883.82v1.9Z"/><path class="cls-1" d="M59.72,468.71v-1.9H2.9v1.9Z"/><path class="cls-1" d="M647,468.71v-1.9H590.17v1.9Z"/><path class="cls-1" d="M705.71,468.71v-1.9H648.89v1.9Z"/><path class="cls-1" d="M470.81,468.71v-1.9H414v1.9Z"/><path class="cls-1" d="M529.53,468.71v-1.9H472.7v1.9Z"/><path class="cls-1" d="M823.18,468.71v-1.9H766.36v1.9Z"/><path class="cls-1" d="M1058.08,468.71v-1.9h-56.82v1.9Z"/><path class="cls-1" d="M412.09,468.71v-1.9H355.27v1.9Z"/><path class="cls-1" d="M764.43,468.71v-1.9H707.61v1.9Z"/><path class="cls-1" d="M118.44,468.71v-1.9H61.61v1.9Z"/><path class="cls-1" d="M588.28,468.71v-1.9H531.45v1.9Z"/><path class="cls-1" d="M1351.71,468.71v-1.9h-56.83v1.9Z"/><path class="cls-1" d="M1175.55,468.71v-1.9h-56.82v1.9Z"/><path class="cls-1" d="M1293,468.71v-1.9h-56.82v1.9Z"/><path class="cls-1" d="M1116.8,468.71v-1.9H1060v1.9Z"/><path class="cls-1" d="M881.9,468.71v-1.9H825.07v1.9Z"/><path class="cls-1" d="M353.34,468.71v-1.9H296.52v1.9Z"/><path class="cls-1" d="M1234.27,468.71v-1.9h-56.82v1.9Z"/><path class="cls-1" d="M1352.65,468.71v-1.9h-.94v1.9Z"/><path class="cls-1" d="M470.81,410.23v-1.9H414v1.9Z"/><path class="cls-1" d="M353.34,410.23v-1.9H296.52v1.9Z"/><path class="cls-1" d="M177.16,410.23v-1.9H120.33v1.9Z"/><path class="cls-1" d="M881.9,410.23v-1.9H825.07v1.9Z"/><path class="cls-1" d="M940.65,410.23v-1.9H883.82v1.9Z"/><path class="cls-1" d="M118.44,410.23v-1.9H61.61v1.9Z"/><path class="cls-1" d="M1116.8,410.23v-1.9H1060v1.9Z"/><path class="cls-1" d="M1293,410.23v-1.9h-56.83v1.9Z"/><path class="cls-1" d="M705.71,410.23v-1.9H648.89v1.9Z"/><path class="cls-1" d="M235.9,410.23v-1.9H179.08v1.9Z"/><path class="cls-1" d="M1058.08,410.23v-1.9h-56.82v1.9Z"/><path class="cls-1" d="M294.62,410.23v-1.9H237.8v1.9Z"/><path class="cls-1" d="M1175.55,410.23v-1.9h-56.82v1.9Z"/><path class="cls-1" d="M1234.27,410.23v-1.9h-56.82v1.9Z"/><path class="cls-1" d="M823.18,410.23v-1.9H766.36v1.9Z"/><path class="cls-1" d="M647,410.23v-1.9H590.17v1.9Z"/><path class="cls-1" d="M999.37,410.23v-1.9H942.54v1.9Z"/><path class="cls-1" d="M59.72,410.23v-1.9H2.9v1.9Z"/><path class="cls-1" d="M1351.71,410.23v-1.9h-56.83v1.9Z"/><path class="cls-1" d="M529.53,410.23v-1.9H472.7v1.9Z"/><path class="cls-1" d="M764.43,410.23v-1.9H707.61v1.9Z"/><path class="cls-1" d="M412.09,410.23v-1.9H355.27v1.9Z"/><path class="cls-1" d="M588.28,410.23v-1.9H531.45v1.9Z"/><path class="cls-1" d="M1352.65,410.23v-1.9h-.94v1.9Z"/><path class="cls-1" d="M588.28,351.77v-1.89H531.45v1.89Z"/><path class="cls-1" d="M647,351.77v-1.89H590.17v1.89Z"/><path class="cls-1" d="M1351.71,351.77v-1.89h-56.83v1.89Z"/><path class="cls-1" d="M59.72,351.77v-1.89H2.89v1.89Z"/><path class="cls-1" d="M1234.27,351.77v-1.89h-56.82v1.89Z"/><path class="cls-1" d="M999.37,351.77v-1.89H942.54v1.89Z"/><path class="cls-1" d="M1175.55,351.77v-1.89h-56.82v1.89Z"/><path class="cls-1" d="M1293,351.77v-1.89h-56.83v1.89Z"/><path class="cls-1" d="M294.62,351.77v-1.89H237.8v1.89Z"/><path class="cls-1" d="M177.16,351.77v-1.89H120.33v1.89Z"/><path class="cls-1" d="M1116.8,351.77v-1.89H1060v1.89Z"/><path class="cls-1" d="M235.9,351.77v-1.89H179.08v1.89Z"/><path class="cls-1" d="M353.34,351.77v-1.89H296.52v1.89Z"/><path class="cls-1" d="M881.9,351.77v-1.89H825.07v1.89Z"/><path class="cls-1" d="M412.09,351.77v-1.89H355.27v1.89Z"/><path class="cls-1" d="M940.65,351.77v-1.89H883.82v1.89Z"/><path class="cls-1" d="M705.71,351.77v-1.89H648.89v1.89Z"/><path class="cls-1" d="M118.44,351.77v-1.89H61.61v1.89Z"/><path class="cls-1" d="M764.43,351.77v-1.89H707.61v1.89Z"/><path class="cls-1" d="M470.81,351.77v-1.89H414v1.89Z"/><path class="cls-1" d="M1058.08,351.77v-1.89h-56.82v1.89Z"/><path class="cls-1" d="M823.18,351.77v-1.89H766.36v1.89Z"/><path class="cls-1" d="M529.53,351.77v-1.89H472.7v1.89Z"/><path class="cls-1" d="M1352.65,351.77v-1.89h-.94v1.89Z"/><path class="cls-1" d="M59.72,293.32v-1.89H2.9v1.89Z"/><path class="cls-1" d="M294.62,293.32v-1.89H237.8v1.89Z"/><path class="cls-1" d="M353.34,293.32v-1.89H296.52v1.89Z"/><path class="cls-1" d="M470.81,293.32v-1.89H414v1.89Z"/><path class="cls-1" d="M1058.08,293.32v-1.89h-56.82v1.89Z"/><path class="cls-1" d="M1175.55,293.32v-1.89h-56.82v1.89Z"/><path class="cls-1" d="M999.37,293.32v-1.89H942.54v1.89Z"/><path class="cls-1" d="M412.09,293.32v-1.89H355.27v1.89Z"/><path class="cls-1" d="M764.43,293.32v-1.89H707.61v1.89Z"/><path class="cls-1" d="M177.16,293.32v-1.89H120.33v1.89Z"/><path class="cls-1" d="M1351.71,293.32v-1.89h-56.83v1.89Z"/><path class="cls-1" d="M235.91,293.32v-1.89H179.08v1.89Z"/><path class="cls-1" d="M940.65,293.32v-1.89H883.82v1.89Z"/><path class="cls-1" d="M1234.27,293.32v-1.89h-56.82v1.89Z"/><path class="cls-1" d="M529.53,293.32v-1.89H472.7v1.89Z"/><path class="cls-1" d="M823.18,293.32v-1.89H766.36v1.89Z"/><path class="cls-1" d="M588.28,293.32v-1.89H531.45v1.89Z"/><path class="cls-1" d="M1293,293.32v-1.89h-56.83v1.89Z"/><path class="cls-1" d="M705.71,293.32v-1.89H648.89v1.89Z"/><path class="cls-1" d="M1116.8,293.32v-1.89H1060v1.89Z"/><path class="cls-1" d="M647,293.32v-1.89H590.17v1.89Z"/><path class="cls-1" d="M881.9,293.32v-1.89H825.07v1.89Z"/><path class="cls-1" d="M118.44,293.32v-1.89H61.61v1.89Z"/><path class="cls-1" d="M1352.65,293.32v-1.89h-.94v1.89Z"/><path class="cls-1" d="M647,234.84V233H590.17v1.89Z"/><path class="cls-1" d="M1234.27,234.84V233h-56.82v1.89Z"/><path class="cls-1" d="M235.9,234.84V233H179.08v1.89Z"/><path class="cls-1" d="M529.53,234.84V233H472.7v1.89Z"/><path class="cls-1" d="M823.18,234.84V233H766.36v1.89Z"/><path class="cls-1" d="M588.28,234.84V233H531.45v1.89Z"/><path class="cls-1" d="M294.62,234.84V233H237.8v1.89Z"/><path class="cls-1" d="M764.43,234.84V233H707.61v1.89Z"/><path class="cls-1" d="M1293,234.84V233h-56.83v1.89Z"/><path class="cls-1" d="M705.71,234.84V233H648.89v1.89Z"/><path class="cls-1" d="M881.9,234.84V233H825.07v1.89Z"/><path class="cls-1" d="M1351.71,234.84V233h-56.83v1.89Z"/><path class="cls-1" d="M412.09,234.84V233H355.27v1.89Z"/><path class="cls-1" d="M940.65,234.84V233H883.82v1.89Z"/><path class="cls-1" d="M470.81,234.84V233H414v1.89Z"/><path class="cls-1" d="M999.37,234.84V233H942.54v1.89Z"/><path class="cls-1" d="M353.34,234.84V233H296.52v1.89Z"/><path class="cls-1" d="M1116.8,234.84V233H1060v1.89Z"/><path class="cls-1" d="M1175.55,234.84V233h-56.82v1.89Z"/><path class="cls-1" d="M1058.08,234.84V233h-56.82v1.89Z"/><path class="cls-1" d="M1352.65,234.84V233h-.94v1.89Z"/><path class="cls-1" d="M999.37,176.39v-1.9H942.54v1.9Z"/><path class="cls-1" d="M1175.55,176.39v-1.9h-56.82v1.9Z"/><path class="cls-1" d="M881.9,176.39v-1.9H825.07v1.9Z"/><path class="cls-1" d="M823.18,176.39v-1.9H766.36v1.9Z"/><path class="cls-1" d="M940.65,176.39v-1.9H883.82v1.9Z"/><path class="cls-1" d="M1058.08,176.39v-1.9h-56.82v1.9Z"/><path class="cls-1" d="M353.34,176.39v-1.9H296.52v1.9Z"/><path class="cls-1" d="M412.09,176.39v-1.9H355.27v1.9Z"/><path class="cls-1" d="M1234.27,176.39v-1.9h-56.82v1.9Z"/><path class="cls-1" d="M470.81,176.39v-1.9H414v1.9Z"/><path class="cls-1" d="M235.9,176.39v-1.9H179.08v1.9Z"/><path class="cls-1" d="M177.16,176.39v-1.9H120.33v1.9Z"/><path class="cls-1" d="M1351.71,176.39v-1.9h-56.83v1.9Z"/><path class="cls-1" d="M1293,176.39v-1.9h-56.82v1.9Z"/><path class="cls-1" d="M764.43,176.39v-1.9H707.61v1.9Z"/><path class="cls-1" d="M1116.8,176.39v-1.9H1060v1.9Z"/><path class="cls-1" d="M118.44,176.39v-1.9H61.61v1.9Z"/><path class="cls-1" d="M59.72,176.39v-1.9H2.9v1.9Z"/><path class="cls-1" d="M529.53,176.39v-1.9H472.7v1.9Z"/><path class="cls-1" d="M294.62,176.39v-1.9H237.8v1.9Z"/><path class="cls-1" d="M588.28,176.39v-1.9H531.45v1.9Z"/><path class="cls-1" d="M647,176.39v-1.9H590.17v1.9Z"/><path class="cls-1" d="M705.71,176.39v-1.9H648.89v1.9Z"/><path class="cls-1" d="M1352.65,176.39v-1.9h-.94v1.9Z"/><path class="cls-1" d="M940.65,117.93V116H883.82v1.89Z"/><path class="cls-1" d="M1293,117.93V116h-56.83v1.89Z"/><path class="cls-1" d="M470.81,117.91V116H414v1.9Z"/><path class="cls-1" d="M177.16,117.9V116H120.33v1.89Z"/><path class="cls-1" d="M353.34,117.91V116H296.52v1.9Z"/><path class="cls-1" d="M294.62,117.91V116H237.8v1.9Z"/><path class="cls-1" d="M529.53,117.91V116H472.7v1.9Z"/><path class="cls-1" d="M1234.27,117.93V116h-56.82v1.89Z"/><path class="cls-1" d="M1116.8,117.93V116H1060v1.89Z"/><path class="cls-1" d="M1351.71,117.93V116h-56.83v1.89Z"/><path class="cls-1" d="M705.71,117.93V116H648.89v1.89Z"/><path class="cls-1" d="M1175.55,117.93V116h-56.82v1.89Z"/><path class="cls-1" d="M118.44,117.9V116H61.61v1.89Z"/><path class="cls-1" d="M235.9,117.91V116H179.08v1.9Z"/><path class="cls-1" d="M999.37,117.93V116H942.54v1.89Z"/><path class="cls-1" d="M647,117.93V116H590.17v1.89Z"/><path class="cls-1" d="M59.72,117.91V116H2.9v1.9Z"/><path class="cls-1" d="M881.9,117.93V116H825.07v1.89Z"/><path class="cls-1" d="M412.09,117.91V116H355.27v1.9Z"/><path class="cls-1" d="M1058.08,117.93V116h-56.82v1.89Z"/><path class="cls-1" d="M823.18,117.93V116H766.36v1.89Z"/><path class="cls-1" d="M764.43,117.93V116H707.61v1.89Z"/><path class="cls-1" d="M588.28,117.93V116H531.45v1.89Z"/><path class="cls-1" d="M1352.65,117.93V116h-.94v1.89Z"/><path class="cls-1" d="M940.65,59.45V57.56H883.82v1.89Z"/><path class="cls-1" d="M177.16,59.45V57.56H120.33v1.89Z"/><path class="cls-1" d="M764.43,59.45V57.56H707.61v1.89Z"/><path class="cls-1" d="M235.9,59.45V57.56H179.08v1.89Z"/><path class="cls-1" d="M1116.8,59.45V57.56H1060v1.89Z"/><path class="cls-1" d="M412.09,59.45V57.56H355.27v1.89Z"/><path class="cls-1" d="M823.18,59.45V57.56H766.36v1.89Z"/><path class="cls-1" d="M881.9,59.45V57.56H825.07v1.89Z"/><path class="cls-1" d="M1175.55,59.45V57.56h-56.82v1.89Z"/><path class="cls-1" d="M999.37,59.45V57.56H942.54v1.89Z"/><path class="cls-1" d="M1351.71,59.45V57.56h-56.83v1.89Z"/><path class="cls-1" d="M353.34,59.45V57.56H296.52v1.89Z"/><path class="cls-1" d="M294.62,59.45V57.56H237.8v1.89Z"/><path class="cls-1" d="M647,59.45V57.56H590.17v1.89Z"/><path class="cls-1" d="M705.71,59.45V57.56H648.89v1.89Z"/><path class="cls-1" d="M529.53,59.45V57.56H472.7v1.89Z"/><path class="cls-1" d="M588.28,59.45V57.56H531.45v1.89Z"/><path class="cls-1" d="M59.72,59.45V57.56H2.89v1.89Z"/><path class="cls-1" d="M1293,59.45V57.56h-56.83v1.89Z"/><path class="cls-1" d="M1234.27,59.45V57.56h-56.82v1.89Z"/><path class="cls-1" d="M470.81,59.45V57.56H414v1.89Z"/><path class="cls-1" d="M118.44,59.45V57.56H61.61v1.89Z"/><path class="cls-1" d="M1058.08,59.45V57.56h-56.82v1.89Z"/><path class="cls-1" d="M1352.65,59.45V57.56h-.94v1.89Z"/><path class="cls-1" d="M1294.88,992.94V936.39H1293v56.55Z"/><path class="cls-1" d="M1294.88,174.49V117.94H1293v56.55Z"/><path class="cls-1" d="M1294.88,525.27V468.71H1293v56.56Z"/><path class="cls-1" d="M1294.88,291.4V234.84H1293V291.4Z"/><path class="cls-1" d="M1294.88,583.72V527.16H1293v56.56Z"/><path class="cls-1" d="M1294.88,466.78V410.23H1293v56.55Z"/><path class="cls-1" d="M1294.88,700.62V644.07H1293v56.55Z"/><path class="cls-1" d="M1294.88,1051.4V994.84H1293v56.56Z"/><path class="cls-1" d="M1294.88,642.17V585.61H1293v56.56Z"/><path class="cls-1" d="M1294.88,1109.88v-56.56H1293v56.56Z"/><path class="cls-1" d="M1294.88,934.49V877.93H1293v56.56Z"/><path class="cls-1" d="M1294.88,408.33V351.77H1293v56.56Z"/><path class="cls-1" d="M1294.88,817.56V761H1293v56.56Z"/><path class="cls-1" d="M1294.88,57.56V1H1293V57.56Z"/><path class="cls-1" d="M1294.88,233V176.39H1293V233Z"/><path class="cls-1" d="M1294.88,876V819.45H1293V876Z"/><path class="cls-1" d="M1294.88,116V59.45H1293V116Z"/><path class="cls-1" d="M1294.88,349.88V293.32H1293v56.56Z"/><path class="cls-1" d="M1294.88,759.1V702.55H1293V759.1Z"/><path class="cls-1" d="M1294.88,1111.77v-1.89H1293v1.89Z"/><path class="cls-1" d="M1294.88,1053.32v-1.89H1293v1.89Z"/><path class="cls-1" d="M1294.88,994.84v-1.9H1293v1.9Z"/><path class="cls-1" d="M1294.88,936.39v-1.9H1293v1.9Z"/><path class="cls-1" d="M1294.88,877.93V876H1293v1.89Z"/><path class="cls-1" d="M1294.88,819.45v-1.89H1293v1.89Z"/><path class="cls-1" d="M1294.88,761v-1.9H1293V761Z"/><path class="cls-1" d="M1294.88,702.55v-1.9H1293v1.9Z"/><path class="cls-1" d="M1294.88,644.09V642.2H1293v1.89Z"/><path class="cls-1" d="M1294.88,585.61v-1.89H1293v1.89Z"/><path class="cls-1" d="M1294.88,527.16v-1.89H1293v1.89Z"/><path class="cls-1" d="M1294.88,468.71v-1.9H1293v1.9Z"/><path class="cls-1" d="M1294.88,410.23v-1.9H1293v1.9Z"/><path class="cls-1" d="M1294.88,351.77v-1.89H1293v1.89Z"/><path class="cls-1" d="M1294.88,293.32v-1.89H1293v1.89Z"/><path class="cls-1" d="M1294.88,234.84V233H1293v1.89Z"/><path class="cls-1" d="M1294.88,176.39v-1.9H1293v1.9Z"/><path class="cls-1" d="M1294.88,117.93V116H1293v1.89Z"/><path class="cls-1" d="M1294.88,59.45V57.56H1293v1.89Z"/><path class="cls-1" d="M1236.16,349.88V293.32h-1.89v56.56Z"/><path class="cls-1" d="M1236.16,1109.88v-56.56h-1.89v56.56Z"/><path class="cls-1" d="M1236.16,466.78V410.23h-1.89v56.55Z"/><path class="cls-1" d="M1236.16,174.49V117.93h-1.89v56.56Z"/><path class="cls-1" d="M1236.16,233V176.39h-1.89V233Z"/><path class="cls-1" d="M1236.16,408.33V351.77h-1.89v56.56Z"/><path class="cls-1" d="M1236.16,116V59.45h-1.89V116Z"/><path class="cls-1" d="M1236.16,57.56V1h-1.89V57.56Z"/><path class="cls-1" d="M1236.16,759.1V702.55h-1.89V759.1Z"/><path class="cls-1" d="M1236.16,642.17V585.61h-1.89v56.56Z"/><path class="cls-1" d="M1236.16,934.49V877.93h-1.89v56.56Z"/><path class="cls-1" d="M1236.16,876V819.45h-1.89V876Z"/><path class="cls-1" d="M1236.17,817.56V761h-1.9v56.56Z"/><path class="cls-1" d="M1236.16,583.72V527.16h-1.89v56.56Z"/><path class="cls-1" d="M1236.16,700.62V644.07h-1.89v56.55Z"/><path class="cls-1" d="M1236.16,291.4V234.84h-1.89V291.4Z"/><path class="cls-1" d="M1236.16,1051.4V994.84h-1.89v56.56Z"/><path class="cls-1" d="M1236.16,992.94V936.39h-1.89v56.55Z"/><path class="cls-1" d="M1236.16,525.27V468.71h-1.89v56.56Z"/><path class="cls-1" d="M1236.16,1111.77v-1.89h-1.89v1.89Z"/><path class="cls-1" d="M1236.16,1053.32v-1.89h-1.89v1.89Z"/><path class="cls-1" d="M1236.16,994.84v-1.9h-1.89v1.9Z"/><path class="cls-1" d="M1236.16,936.39v-1.9h-1.89v1.9Z"/><path class="cls-1" d="M1236.16,877.93V876h-1.89v1.89Z"/><path class="cls-1" d="M1236.16,819.45v-1.89h-1.89v1.89Z"/><path class="cls-1" d="M1236.16,761v-1.9h-1.89V761Z"/><path class="cls-1" d="M1236.16,702.55v-1.9h-1.89v1.9Z"/><path class="cls-1" d="M1236.16,644.09V642.2h-1.89v1.89Z"/><path class="cls-1" d="M1236.16,585.61v-1.89h-1.89v1.89Z"/><path class="cls-1" d="M1236.16,527.16v-1.89h-1.89v1.89Z"/><path class="cls-1" d="M1236.16,468.71v-1.9h-1.89v1.9Z"/><path class="cls-1" d="M1236.16,410.23v-1.9h-1.89v1.9Z"/><path class="cls-1" d="M1236.16,351.77v-1.89h-1.89v1.89Z"/><path class="cls-1" d="M1236.16,293.32v-1.89h-1.89v1.89Z"/><path class="cls-1" d="M1236.16,234.84V233h-1.89v1.89Z"/><path class="cls-1" d="M1236.16,176.39v-1.9h-1.89v1.9Z"/><path class="cls-1" d="M1236.16,117.93V116h-1.89v1.89Z"/><path class="cls-1" d="M1236.17,59.45V57.56h-1.9v1.89Z"/><path class="cls-1" d="M1177.45,583.72V527.16h-1.9v56.56Z"/><path class="cls-1" d="M1177.45,233V176.39h-1.9V233Z"/><path class="cls-1" d="M1177.45,466.79V410.23h-1.9v56.56Z"/><path class="cls-1" d="M1177.45,642.17V585.61h-1.9v56.56Z"/><path class="cls-1" d="M1177.45,174.49V117.93h-1.9v56.56Z"/><path class="cls-1" d="M1177.45,57.56V1h-1.9V57.56Z"/><path class="cls-1" d="M1177.45,700.62V644.07h-1.9v56.55Z"/><path class="cls-1" d="M1177.45,349.88V293.32h-1.9v56.56Z"/><path class="cls-1" d="M1177.45,525.27V468.71h-1.9v56.56Z"/><path class="cls-1" d="M1177.45,408.33V351.77h-1.9v56.56Z"/><path class="cls-1" d="M1177.45,934.49V877.93h-1.9v56.56Z"/><path class="cls-1" d="M1177.45,876V819.45h-1.9V876Z"/><path class="cls-1" d="M1177.45,291.4V234.84h-1.9V291.4Z"/><path class="cls-1" d="M1177.45,992.94V936.39h-1.9v56.55Z"/><path class="cls-1" d="M1177.45,759.1V702.55h-1.9V759.1Z"/><path class="cls-1" d="M1177.45,817.56V761h-1.9v56.56Z"/><path class="cls-1" d="M1177.45,116V59.45h-1.9V116Z"/><path class="cls-1" d="M1177.45,1051.4V994.84h-1.9v56.56Z"/><path class="cls-1" d="M1177.45,1109.88v-56.56h-1.9v56.56Z"/><path class="cls-1" d="M1177.45,1111.77v-1.89h-1.9v1.89Z"/><path class="cls-1" d="M1177.45,1053.32v-1.89h-1.9v1.89Z"/><path class="cls-1" d="M1177.45,994.84v-1.9h-1.9v1.9Z"/><path class="cls-1" d="M1177.45,936.39v-1.9h-1.9v1.9Z"/><path class="cls-1" d="M1177.45,877.93V876h-1.9v1.89Z"/><path class="cls-1" d="M1177.45,819.45v-1.89h-1.9v1.89Z"/><path class="cls-1" d="M1177.45,761v-1.9h-1.9V761Z"/><path class="cls-1" d="M1177.45,702.55v-1.9h-1.9v1.9Z"/><path class="cls-1" d="M1177.45,644.09V642.2h-1.9v1.89Z"/><path class="cls-1" d="M1177.45,585.61v-1.89h-1.9v1.89Z"/><path class="cls-1" d="M1177.45,527.16v-1.89h-1.9v1.89Z"/><path class="cls-1" d="M1177.45,468.71v-1.9h-1.9v1.9Z"/><path class="cls-1" d="M1177.45,410.23v-1.9h-1.9v1.9Z"/><path class="cls-1" d="M1177.45,351.77v-1.89h-1.9v1.89Z"/><path class="cls-1" d="M1177.45,293.32v-1.89h-1.9v1.89Z"/><path class="cls-1" d="M1177.45,234.84V233h-1.9v1.89Z"/><path class="cls-1" d="M1177.45,176.39v-1.9h-1.9v1.9Z"/><path class="cls-1" d="M1177.45,117.93V116h-1.9v1.89Z"/><path class="cls-1" d="M1177.45,59.45V57.56h-1.9v1.89Z"/><path class="cls-1" d="M1118.7,700.62V644.06h-1.9v56.56Z"/><path class="cls-1" d="M1118.7,642.17V585.61h-1.9v56.56Z"/><path class="cls-1" d="M1118.7,583.72V527.16h-1.9v56.56Z"/><path class="cls-1" d="M1118.7,525.27V468.71h-1.9v56.56Z"/><path class="cls-1" d="M1118.7,1051.4V994.84h-1.9v56.56Z"/><path class="cls-1" d="M1118.7,57.56V1h-1.9V57.56Z"/><path class="cls-1" d="M1118.7,934.49V877.93h-1.9v56.56Z"/><path class="cls-1" d="M1118.7,759.1V702.55h-1.9V759.1Z"/><path class="cls-1" d="M1118.7,817.56V761h-1.9v56.56Z"/><path class="cls-1" d="M1118.7,1109.88v-56.56h-1.9v56.56Z"/><path class="cls-1" d="M1118.7,876V819.45h-1.9V876Z"/><path class="cls-1" d="M1118.7,992.94V936.39h-1.9v56.55Z"/><path class="cls-1" d="M1118.7,233V176.39h-1.9V233Z"/><path class="cls-1" d="M1118.7,291.4V234.84h-1.9V291.4Z"/><path class="cls-1" d="M1118.7,174.49V117.93h-1.9v56.56Z"/><path class="cls-1" d="M1118.7,116V59.45h-1.9V116Z"/><path class="cls-1" d="M1118.7,408.33V351.77h-1.9v56.56Z"/><path class="cls-1" d="M1118.7,466.78V410.23h-1.9v56.55Z"/><path class="cls-1" d="M1118.7,349.88V293.32h-1.9v56.56Z"/><path class="cls-1" d="M1118.7,1111.77v-1.89h-1.9v1.89Z"/><path class="cls-1" d="M1118.7,1053.32v-1.89h-1.9v1.89Z"/><path class="cls-1" d="M1118.7,994.84v-1.9h-1.9v1.9Z"/><path class="cls-1" d="M1118.7,936.39v-1.9h-1.9v1.9Z"/><path class="cls-1" d="M1118.7,877.93V876h-1.9v1.89Z"/><path class="cls-1" d="M1118.7,819.45v-1.89h-1.9v1.89Z"/><path class="cls-1" d="M1118.7,761v-1.9h-1.9V761Z"/><path class="cls-1" d="M1118.7,702.55v-1.9h-1.9v1.9Z"/><path class="cls-1" d="M1118.7,644.09V642.2h-1.9v1.89Z"/><path class="cls-1" d="M1118.7,585.61v-1.89h-1.9v1.89Z"/><path class="cls-1" d="M1118.7,527.16v-1.89h-1.9v1.89Z"/><path class="cls-1" d="M1118.7,468.71v-1.9h-1.9v1.9Z"/><path class="cls-1" d="M1118.7,410.23v-1.9h-1.9v1.9Z"/><path class="cls-1" d="M1118.7,351.77v-1.89h-1.9v1.89Z"/><path class="cls-1" d="M1118.7,293.32v-1.89h-1.9v1.89Z"/><path class="cls-1" d="M1118.7,234.84V233h-1.9v1.89Z"/><path class="cls-1" d="M1118.7,176.39v-1.9h-1.9v1.9Z"/><path class="cls-1" d="M1118.7,117.93V116h-1.9v1.89Z"/><path class="cls-1" d="M1118.7,59.45V57.56h-1.9v1.89Z"/><path class="cls-1" d="M1060,525.27V468.71h-1.9v56.56Z"/><path class="cls-1" d="M1060,992.94V936.39h-1.9v56.55Z"/><path class="cls-1" d="M1060,291.4V234.84h-1.9V291.4Z"/><path class="cls-1" d="M1060,408.33V351.77h-1.9v56.56Z"/><path class="cls-1" d="M1060,466.78V410.23h-1.9v56.55Z"/><path class="cls-1" d="M1060,583.72V527.16h-1.9v56.56Z"/><path class="cls-1" d="M1060,759.1V702.55h-1.9V759.1Z"/><path class="cls-1" d="M1060,233V176.39h-1.9V233Z"/><path class="cls-1" d="M1060,700.62V644.07h-1.9v56.55Z"/><path class="cls-1" d="M1060,817.56V761h-1.9v56.56Z"/><path class="cls-1" d="M1060,642.17V585.61h-1.9v56.56Z"/><path class="cls-1" d="M1060,934.49V877.93h-1.9v56.56Z"/><path class="cls-1" d="M1060,1109.88v-56.56h-1.9v56.56Z"/><path class="cls-1" d="M1060,876V819.45h-1.9V876Z"/><path class="cls-1" d="M1060,57.56V1h-1.9V57.56Z"/><path class="cls-1" d="M1060,116V59.45h-1.9V116Z"/><path class="cls-1" d="M1060,1051.4V994.84h-1.9v56.56Z"/><path class="cls-1" d="M1060,174.49V117.93h-1.9v56.56Z"/><path class="cls-1" d="M1060,349.88V293.32h-1.9v56.56Z"/><path class="cls-1" d="M1060,1111.77v-1.89h-1.9v1.89Z"/><path class="cls-1" d="M1060,1053.32v-1.9h-1.9v1.9Z"/><path class="cls-1" d="M1060,994.84v-1.9h-1.9v1.9Z"/><path class="cls-1" d="M1060,936.39v-1.9h-1.9v1.9Z"/><path class="cls-1" d="M1060,877.93V876h-1.9v1.89Z"/><path class="cls-1" d="M1060,819.45v-1.89h-1.9v1.89Z"/><path class="cls-1" d="M1060,761v-1.9h-1.9V761Z"/><path class="cls-1" d="M1060,702.55v-1.9h-1.9v1.9Z"/><path class="cls-1" d="M1060,644.09V642.2h-1.9v1.89Z"/><path class="cls-1" d="M1060,585.61v-1.89h-1.9v1.89Z"/><path class="cls-1" d="M1060,527.16v-1.89h-1.9v1.89Z"/><path class="cls-1" d="M1060,468.71v-1.9h-1.9v1.9Z"/><path class="cls-1" d="M1060,410.23v-1.9h-1.9v1.9Z"/><path class="cls-1" d="M1060,351.77v-1.89h-1.9v1.89Z"/><path class="cls-1" d="M1060,293.32v-1.89h-1.9v1.89Z"/><path class="cls-1" d="M1060,234.84V233h-1.9v1.89Z"/><path class="cls-1" d="M1060,176.39v-1.9h-1.9v1.9Z"/><path class="cls-1" d="M1060,117.93V116h-1.9v1.89Z"/><path class="cls-1" d="M1060,59.45V57.56h-1.9v1.89Z"/><path class="cls-1" d="M1001.26,408.33V351.77h-1.9v56.56Z"/><path class="cls-1" d="M1001.26,642.17V585.61h-1.9v56.56Z"/><path class="cls-1" d="M1001.26,759.1V702.55h-1.89V759.1Z"/><path class="cls-1" d="M1001.26,700.62V644.07h-1.89v56.55Z"/><path class="cls-1" d="M1001.26,291.4V234.84h-1.89V291.4Z"/><path class="cls-1" d="M1001.26,57.56V1h-1.89V57.56Z"/><path class="cls-1" d="M1001.26,525.27V468.71h-1.89v56.56Z"/><path class="cls-1" d="M1001.26,174.49V117.93h-1.89v56.56Z"/><path class="cls-1" d="M1001.26,116V59.45h-1.89V116Z"/><path class="cls-1" d="M1001.26,233V176.39h-1.89V233Z"/><path class="cls-1" d="M1001.26,1109.88v-56.56h-1.9v56.56Z"/><path class="cls-1" d="M1001.26,583.72V527.16h-1.89v56.56Z"/><path class="cls-1" d="M1001.26,349.88V293.32h-1.89v56.56Z"/><path class="cls-1" d="M1001.26,992.94V936.39h-1.9v56.55Z"/><path class="cls-1" d="M1001.26,876V819.45h-1.89V876Z"/><path class="cls-1" d="M1001.26,934.49V877.93h-1.89v56.56Z"/><path class="cls-1" d="M1001.26,1051.4V994.84h-1.89v56.56Z"/><path class="cls-1" d="M1001.26,817.56V761h-1.89v56.56Z"/><path class="cls-1" d="M1001.26,466.78V410.23h-1.89v56.55Z"/><path class="cls-1" d="M1001.26,1111.77v-1.89h-1.89v1.89Z"/><path class="cls-1" d="M1001.26,1053.32v-1.89h-1.89v1.89Z"/><path class="cls-1" d="M1001.26,994.84v-1.9h-1.89v1.9Z"/><path class="cls-1" d="M1001.26,936.39v-1.9h-1.89v1.9Z"/><path class="cls-1" d="M1001.26,877.93V876h-1.89v1.89Z"/><path class="cls-1" d="M1001.26,819.45v-1.89h-1.89v1.89Z"/><path class="cls-1" d="M1001.26,761v-1.9h-1.89V761Z"/><path class="cls-1" d="M1001.26,702.55v-1.9h-1.89v1.9Z"/><path class="cls-1" d="M1001.26,644.09V642.2h-1.89v1.89Z"/><path class="cls-1" d="M1001.26,585.61v-1.89h-1.89v1.89Z"/><path class="cls-1" d="M1001.26,527.16v-1.89h-1.9v1.89Z"/><path class="cls-1" d="M1001.26,468.71v-1.9h-1.89v1.9Z"/><path class="cls-1" d="M1001.26,410.23v-1.9h-1.9v1.9Z"/><path class="cls-1" d="M1001.26,351.77v-1.89h-1.9v1.89Z"/><path class="cls-1" d="M1001.26,293.32v-1.89h-1.89v1.89Z"/><path class="cls-1" d="M1001.26,234.84V233h-1.89v1.89Z"/><path class="cls-1" d="M1001.26,176.39v-1.9h-1.89v1.9Z"/><path class="cls-1" d="M1001.26,117.93V116h-1.89v1.89Z"/><path class="cls-1" d="M1001.26,59.45V57.56h-1.89v1.89Z"/><path class="cls-1" d="M942.54,700.62V644.07h-1.89v56.55Z"/><path class="cls-1" d="M942.54,583.72V527.16h-1.89v56.56Z"/><path class="cls-1" d="M942.54,642.17V585.61h-1.89v56.56Z"/><path class="cls-1" d="M942.54,876V819.45h-1.89V876Z"/><path class="cls-1" d="M942.54,934.49V877.93h-1.89v56.56Z"/><path class="cls-1" d="M942.54,759.1V702.55h-1.89V759.1Z"/><path class="cls-1" d="M942.54,817.56V761h-1.89v56.56Z"/><path class="cls-1" d="M942.54,174.49V117.93h-1.89v56.56Z"/><path class="cls-1" d="M942.54,1051.4V994.84h-1.89v56.56Z"/><path class="cls-1" d="M942.54,116V59.45h-1.89V116Z"/><path class="cls-1" d="M942.54,57.56V1h-1.89V57.56Z"/><path class="cls-1" d="M942.54,408.33V351.77h-1.89v56.56Z"/><path class="cls-1" d="M942.54,466.79V410.23h-1.89v56.56Z"/><path class="cls-1" d="M942.54,525.27V468.71h-1.89v56.56Z"/><path class="cls-1" d="M942.54,233V176.39h-1.89V233Z"/><path class="cls-1" d="M942.54,349.88V293.32h-1.89v56.56Z"/><path class="cls-1" d="M942.54,291.4V234.84h-1.89V291.4Z"/><path class="cls-1" d="M942.54,992.94V936.39h-1.89v56.55Z"/><path class="cls-1" d="M942.54,1109.88v-56.56h-1.89v56.56Z"/><path class="cls-1" d="M942.54,1111.77v-1.89h-1.89v1.89Z"/><path class="cls-1" d="M942.54,1053.32v-1.89h-1.89v1.89Z"/><path class="cls-1" d="M942.54,994.84v-1.9h-1.89v1.9Z"/><path class="cls-1" d="M942.54,936.39v-1.9h-1.89v1.9Z"/><path class="cls-1" d="M942.54,877.93V876h-1.89v1.89Z"/><path class="cls-1" d="M942.54,819.45v-1.89h-1.89v1.89Z"/><path class="cls-1" d="M942.54,761v-1.9h-1.89V761Z"/><path class="cls-1" d="M942.54,702.55v-1.9h-1.89v1.9Z"/><path class="cls-1" d="M942.54,644.09V642.2h-1.89v1.89Z"/><path class="cls-1" d="M942.54,585.61v-1.89h-1.89v1.89Z"/><path class="cls-1" d="M942.54,527.16v-1.89h-1.89v1.89Z"/><path class="cls-1" d="M942.54,468.71v-1.9h-1.89v1.9Z"/><path class="cls-1" d="M942.54,410.23v-1.9h-1.89v1.9Z"/><path class="cls-1" d="M942.54,351.77v-1.89h-1.89v1.89Z"/><path class="cls-1" d="M942.54,293.32v-1.89h-1.89v1.89Z"/><path class="cls-1" d="M942.54,234.84V233h-1.89v1.89Z"/><path class="cls-1" d="M942.54,176.39v-1.9h-1.89v1.9Z"/><path class="cls-1" d="M942.54,117.93V116h-1.89v1.89Z"/><path class="cls-1" d="M942.54,59.45V57.56h-1.89v1.89Z"/><path class="cls-1" d="M883.79,1051.4V994.84H881.9v56.56Z"/><path class="cls-1" d="M883.79,759.1V702.55H881.9V759.1Z"/><path class="cls-1" d="M883.79,57.56V1H881.9V57.56Z"/><path class="cls-1" d="M883.79,116V59.45H881.9V116Z"/><path class="cls-1" d="M883.79,466.78V410.23H881.9v56.55Z"/><path class="cls-1" d="M883.79,174.49V117.93H881.9v56.56Z"/><path class="cls-1" d="M883.79,349.88V293.32H881.9v56.56Z"/><path class="cls-1" d="M883.79,642.17V585.61H881.9v56.56Z"/><path class="cls-1" d="M883.79,291.4V234.84H881.9V291.4Z"/><path class="cls-1" d="M883.79,233V176.39H881.9V233Z"/><path class="cls-1" d="M883.79,408.33V351.77H881.9v56.56Z"/><path class="cls-1" d="M883.79,700.62V644.07H881.9v56.55Z"/><path class="cls-1" d="M883.79,934.49V877.93H881.9v56.56Z"/><path class="cls-1" d="M883.79,583.72V527.16H881.9v56.56Z"/><path class="cls-1" d="M883.79,817.56V761H881.9v56.56Z"/><path class="cls-1" d="M883.79,1109.88v-56.56H881.9v56.56Z"/><path class="cls-1" d="M883.79,876V819.45H881.9V876Z"/><path class="cls-1" d="M883.79,525.27V468.71H881.9v56.56Z"/><path class="cls-1" d="M883.79,992.94V936.39H881.9v56.55Z"/><path class="cls-1" d="M883.79,1111.77v-1.89H881.9v1.89Z"/><path class="cls-1" d="M883.79,1053.32v-1.9H881.9v1.9Z"/><path class="cls-1" d="M883.79,994.84v-1.9H881.9v1.9Z"/><path class="cls-1" d="M883.79,936.39v-1.9H881.9v1.9Z"/><path class="cls-1" d="M883.79,877.93V876H881.9v1.89Z"/><path class="cls-1" d="M883.79,819.45v-1.89H881.9v1.89Z"/><path class="cls-1" d="M883.79,761v-1.9H881.9V761Z"/><path class="cls-1" d="M883.79,702.55v-1.9H881.9v1.9Z"/><path class="cls-1" d="M883.79,644.09V642.2H881.9v1.89Z"/><path class="cls-1" d="M883.79,585.61v-1.89H881.9v1.89Z"/><path class="cls-1" d="M883.79,527.16v-1.89H881.9v1.89Z"/><path class="cls-1" d="M883.79,468.71v-1.9H881.9v1.9Z"/><path class="cls-1" d="M883.79,410.23v-1.9H881.9v1.9Z"/><path class="cls-1" d="M883.79,351.77v-1.89H881.9v1.89Z"/><path class="cls-1" d="M883.79,293.32v-1.89H881.9v1.89Z"/><path class="cls-1" d="M883.79,234.84V233H881.9v1.89Z"/><path class="cls-1" d="M883.79,176.39v-1.9H881.9v1.9Z"/><path class="cls-1" d="M883.79,117.93V116H881.9v1.89Z"/><path class="cls-1" d="M883.79,59.45V57.56H881.9v1.89Z"/><path class="cls-1" d="M825.07,408.33V351.77h-1.89v56.56Z"/><path class="cls-1" d="M825.07,876V819.45h-1.89V876Z"/><path class="cls-1" d="M825.07,349.88V293.32h-1.89v56.56Z"/><path class="cls-1" d="M825.07,700.62V644.07h-1.89v56.55Z"/><path class="cls-1" d="M825.07,583.72V527.16h-1.89v56.56Z"/><path class="cls-1" d="M825.07,57.56V1h-1.89V57.56Z"/><path class="cls-1" d="M825.07,233V176.39h-1.89V233Z"/><path class="cls-1" d="M825.07,291.4V234.84h-1.89V291.4Z"/><path class="cls-1" d="M825.07,174.49V117.93h-1.89v56.56Z"/><path class="cls-1" d="M825.07,525.27V468.71h-1.89v56.56Z"/><path class="cls-1" d="M825.07,116V59.45h-1.89V116Z"/><path class="cls-1" d="M825.07,466.78V410.23h-1.89v56.55Z"/><path class="cls-1" d="M825.07,934.49V877.93h-1.89v56.56Z"/><path class="cls-1" d="M825.07,817.56V761h-1.89v56.56Z"/><path class="cls-1" d="M825.07,642.17V585.61h-1.89v56.56Z"/><path class="cls-1" d="M825.07,1051.4V994.84h-1.89v56.56Z"/><path class="cls-1" d="M825.07,992.94V936.39h-1.89v56.55Z"/><path class="cls-1" d="M825.07,759.1V702.55h-1.89V759.1Z"/><path class="cls-1" d="M825.07,1109.88v-56.56h-1.89v56.56Z"/><path class="cls-1" d="M825.07,1111.77v-1.89h-1.89v1.89Z"/><path class="cls-1" d="M825.07,1053.32v-1.89h-1.89v1.89Z"/><path class="cls-1" d="M825.07,994.84v-1.9h-1.89v1.9Z"/><path class="cls-1" d="M825.07,936.39v-1.9h-1.89v1.9Z"/><path class="cls-1" d="M825.07,877.93V876h-1.89v1.89Z"/><path class="cls-1" d="M825.07,819.45v-1.89h-1.89v1.89Z"/><path class="cls-1" d="M825.07,761v-1.9h-1.89V761Z"/><path class="cls-1" d="M825.07,702.55v-1.9h-1.89v1.9Z"/><path class="cls-1" d="M825.07,644.09V642.2h-1.89v1.89Z"/><path class="cls-1" d="M825.07,585.61v-1.89h-1.89v1.89Z"/><path class="cls-1" d="M825.07,527.16v-1.89h-1.89v1.89Z"/><path class="cls-1" d="M825.07,468.71v-1.9h-1.89v1.9Z"/><path class="cls-1" d="M825.07,410.23v-1.9h-1.89v1.9Z"/><path class="cls-1" d="M825.07,351.77v-1.89h-1.89v1.89Z"/><path class="cls-1" d="M825.07,293.32v-1.89h-1.89v1.89Z"/><path class="cls-1" d="M825.07,234.84V233h-1.89v1.89Z"/><path class="cls-1" d="M825.07,176.39v-1.9h-1.89v1.9Z"/><path class="cls-1" d="M825.07,117.93V116h-1.89v1.89Z"/><path class="cls-1" d="M825.07,59.45V57.56h-1.89v1.89Z"/><path class="cls-1" d="M766.33,349.88V293.32h-1.9v56.56Z"/><path class="cls-1" d="M766.33,291.4V234.84h-1.9V291.4Z"/><path class="cls-1" d="M766.33,233V176.39h-1.9V233Z"/><path class="cls-1" d="M766.33,408.33V351.77h-1.9v56.56Z"/><path class="cls-1" d="M766.33,934.49V877.93h-1.9v56.56Z"/><path class="cls-1" d="M766.33,466.78V410.23h-1.9v56.55Z"/><path class="cls-1" d="M766.33,174.49V117.93h-1.9v56.56Z"/><path class="cls-1" d="M766.33,57.56V1h-1.9V57.56Z"/><path class="cls-1" d="M766.33,116V59.45h-1.9V116Z"/><path class="cls-1" d="M766.33,759.1V702.55h-1.9V759.1Z"/><path class="cls-1" d="M766.33,1109.88v-56.56h-1.9v56.56Z"/><path class="cls-1" d="M766.33,1051.4V994.84h-1.9v56.56Z"/><path class="cls-1" d="M766.33,525.27V468.71h-1.9v56.56Z"/><path class="cls-1" d="M766.33,700.62V644.07h-1.9v56.55Z"/><path class="cls-1" d="M766.33,817.56V761h-1.9v56.56Z"/><path class="cls-1" d="M766.33,642.17V585.61h-1.9v56.56Z"/><path class="cls-1" d="M766.33,583.72V527.16h-1.9v56.56Z"/><path class="cls-1" d="M766.33,876V819.45h-1.9V876Z"/><path class="cls-1" d="M766.33,992.94V936.39h-1.9v56.55Z"/><path class="cls-1" d="M766.33,1111.77v-1.89h-1.9v1.89Z"/><path class="cls-1" d="M766.33,1053.32v-1.89h-1.9v1.89Z"/><path class="cls-1" d="M766.33,994.84v-1.9h-1.9v1.9Z"/><path class="cls-1" d="M766.33,936.39v-1.9h-1.9v1.9Z"/><path class="cls-1" d="M766.33,877.93V876h-1.9v1.89Z"/><path class="cls-1" d="M766.33,819.45v-1.89h-1.9v1.89Z"/><path class="cls-1" d="M766.33,761v-1.9h-1.9V761Z"/><path class="cls-1" d="M766.33,702.55v-1.9h-1.9v1.9Z"/><path class="cls-1" d="M766.33,644.09V642.2h-1.9v1.89Z"/><path class="cls-1" d="M766.33,585.61v-1.89h-1.9v1.89Z"/><path class="cls-1" d="M766.33,527.16v-1.89h-1.9v1.89Z"/><path class="cls-1" d="M766.33,468.71v-1.9h-1.9v1.9Z"/><path class="cls-1" d="M766.33,410.23v-1.9h-1.9v1.9Z"/><path class="cls-1" d="M766.33,351.77v-1.89h-1.9v1.89Z"/><path class="cls-1" d="M766.33,293.32v-1.89h-1.9v1.89Z"/><path class="cls-1" d="M766.33,234.84V233h-1.9v1.89Z"/><path class="cls-1" d="M766.33,176.39v-1.9h-1.9v1.9Z"/><path class="cls-1" d="M766.33,117.93V116h-1.9v1.89Z"/><path class="cls-1" d="M766.33,59.45V57.56h-1.9v1.89Z"/><path class="cls-1" d="M707.61,1109.88v-56.56h-1.9v56.56Z"/><path class="cls-1" d="M707.61,116V59.45h-1.9V116Z"/><path class="cls-1" d="M707.61,57.56V1h-1.9V57.56Z"/><path class="cls-1" d="M707.61,759.1V702.55h-1.9V759.1Z"/><path class="cls-1" d="M707.61,233V176.39h-1.9V233Z"/><path class="cls-1" d="M707.61,876V819.45h-1.9V876Z"/><path class="cls-1" d="M707.61,992.94V936.39h-1.9v56.55Z"/><path class="cls-1" d="M707.61,700.62V644.07h-1.9v56.55Z"/><path class="cls-1" d="M707.61,408.33V351.77h-1.9v56.56Z"/><path class="cls-1" d="M707.61,1051.4V994.84h-1.9v56.56Z"/><path class="cls-1" d="M707.61,583.72V527.16h-1.9v56.56Z"/><path class="cls-1" d="M707.61,642.17V585.61h-1.9v56.56Z"/><path class="cls-1" d="M707.61,525.27V468.71h-1.9v56.56Z"/><path class="cls-1" d="M707.61,934.49V877.93h-1.9v56.56Z"/><path class="cls-1" d="M707.61,466.78V410.23h-1.9v56.55Z"/><path class="cls-1" d="M707.61,349.88V293.32h-1.9v56.56Z"/><path class="cls-1" d="M707.61,174.49V117.93h-1.9v56.56Z"/><path class="cls-1" d="M707.61,291.4V234.84h-1.9V291.4Z"/><path class="cls-1" d="M707.61,817.56V761h-1.9v56.56Z"/><path class="cls-1" d="M707.61,1111.77v-1.89h-1.9v1.89Z"/><path class="cls-1" d="M707.61,1053.32v-1.89h-1.9v1.89Z"/><path class="cls-1" d="M707.61,994.84v-1.9h-1.9v1.9Z"/><path class="cls-1" d="M707.61,936.39v-1.9h-1.9v1.9Z"/><path class="cls-1" d="M707.61,877.93V876h-1.9v1.89Z"/><path class="cls-1" d="M707.61,819.45v-1.89h-1.9v1.89Z"/><path class="cls-1" d="M707.61,761v-1.9h-1.9V761Z"/><path class="cls-1" d="M707.61,702.55v-1.9h-1.9v1.9Z"/><path class="cls-1" d="M707.61,644.09V642.2h-1.9v1.89Z"/><path class="cls-1" d="M707.61,585.61v-1.89h-1.9v1.89Z"/><path class="cls-1" d="M707.61,527.16v-1.89h-1.9v1.89Z"/><path class="cls-1" d="M707.61,468.71v-1.9h-1.9v1.9Z"/><path class="cls-1" d="M707.61,410.23v-1.9h-1.9v1.9Z"/><path class="cls-1" d="M707.61,351.77v-1.89h-1.9v1.89Z"/><path class="cls-1" d="M707.61,293.32v-1.89h-1.9v1.89Z"/><path class="cls-1" d="M707.61,234.84V233h-1.9v1.89Z"/><path class="cls-1" d="M707.61,176.39v-1.9h-1.9v1.9Z"/><path class="cls-1" d="M707.61,117.93V116h-1.9v1.89Z"/><path class="cls-1" d="M707.61,59.45V57.56h-1.9v1.89Z"/><path class="cls-1" d="M648.89,116V59.45H647V116Z"/><path class="cls-1" d="M648.89,642.17V585.61H647v56.56Z"/><path class="cls-1" d="M648.89,291.4V234.84H647V291.4Z"/><path class="cls-1" d="M648.89,233V176.39H647V233Z"/><path class="cls-1" d="M648.89,700.65V644.09H647v56.56Z"/><path class="cls-1" d="M648.89,934.49V877.93H647v56.56Z"/><path class="cls-1" d="M648.89,349.88V293.32H647v56.56Z"/><path class="cls-1" d="M648.89,408.33V351.77H647v56.56Z"/><path class="cls-1" d="M648.89,1051.4V994.84H647v56.56Z"/><path class="cls-1" d="M648.89,1109.88v-56.56H647v56.56Z"/><path class="cls-1" d="M648.89,583.72V527.16H647v56.56Z"/><path class="cls-1" d="M648.89,876V819.45H647V876Z"/><path class="cls-1" d="M648.89,525.27V468.71H647v56.56Z"/><path class="cls-1" d="M648.89,466.78V410.23H647v56.55Z"/><path class="cls-1" d="M648.89,992.94V936.39H647v56.55Z"/><path class="cls-1" d="M648.89,817.56V761H647v56.56Z"/><path class="cls-1" d="M648.89,174.49V117.93H647v56.56Z"/><path class="cls-1" d="M648.89,57.56V1H647V57.56Z"/><path class="cls-1" d="M648.89,759.1V702.55H647V759.1Z"/><path class="cls-1" d="M648.89,1111.77v-1.89H647v1.89Z"/><path class="cls-1" d="M648.89,1053.32v-1.9H647v1.9Z"/><path class="cls-1" d="M648.89,994.84v-1.9H647v1.9Z"/><path class="cls-1" d="M648.89,936.39v-1.9H647v1.9Z"/><path class="cls-1" d="M648.89,877.93V876H647v1.89Z"/><path class="cls-1" d="M648.89,819.45v-1.89H647v1.89Z"/><path class="cls-1" d="M648.89,761v-1.9H647V761Z"/><path class="cls-1" d="M648.89,702.55v-1.9H647v1.9Z"/><path class="cls-1" d="M648.89,644.09V642.2H647v1.89Z"/><path class="cls-1" d="M648.89,585.61v-1.89H647v1.89Z"/><path class="cls-1" d="M648.89,527.16v-1.89H647v1.89Z"/><path class="cls-1" d="M648.89,468.71v-1.9H647v1.9Z"/><path class="cls-1" d="M648.89,410.23v-1.9H647v1.9Z"/><path class="cls-1" d="M648.89,351.77v-1.89H647v1.89Z"/><path class="cls-1" d="M648.89,293.32v-1.89H647v1.89Z"/><path class="cls-1" d="M648.89,234.84V233H647v1.89Z"/><path class="cls-1" d="M648.89,176.39v-1.9H647v1.9Z"/><path class="cls-1" d="M648.89,117.93V116H647v1.89Z"/><path class="cls-1" d="M648.89,59.45V57.56H647v1.89Z"/><path class="cls-1" d="M590.17,291.4V234.84h-1.9V291.4Z"/><path class="cls-1" d="M590.17,700.65V644.09h-1.89v56.56Z"/><path class="cls-1" d="M590.17,233V176.39h-1.9V233Z"/><path class="cls-1" d="M590.17,876V819.45h-1.89V876Z"/><path class="cls-1" d="M590.17,525.27V468.71h-1.89v56.56Z"/><path class="cls-1" d="M590.17,583.72V527.16h-1.89v56.56Z"/><path class="cls-1" d="M590.17,466.78V410.23h-1.89v56.55Z"/><path class="cls-1" d="M590.17,349.88V293.32h-1.89v56.56Z"/><path class="cls-1" d="M590.17,408.33V351.77h-1.89v56.56Z"/><path class="cls-1" d="M590.17,174.49V117.93h-1.9v56.56Z"/><path class="cls-1" d="M590.17,1109.88v-56.56h-1.89v56.56Z"/><path class="cls-1" d="M590.17,817.56V761h-1.9v56.56Z"/><path class="cls-1" d="M590.17,57.56V1h-1.89V57.56Z"/><path class="cls-1" d="M590.17,992.94V936.39h-1.9v56.55Z"/><path class="cls-1" d="M590.17,759.1V702.55h-1.89V759.1Z"/><path class="cls-1" d="M590.17,642.17V585.61h-1.89v56.56Z"/><path class="cls-1" d="M590.17,1051.4V994.84h-1.89v56.56Z"/><path class="cls-1" d="M590.17,934.49V877.93h-1.9v56.56Z"/><path class="cls-1" d="M590.17,116V59.45h-1.89V116Z"/><path class="cls-1" d="M590.17,1111.77v-1.89h-1.9v1.89Z"/><path class="cls-1" d="M590.17,1053.32v-1.89h-1.9v1.89Z"/><path class="cls-1" d="M590.17,994.84v-1.9h-1.89v1.9Z"/><path class="cls-1" d="M590.17,936.39v-1.9h-1.89v1.9Z"/><path class="cls-1" d="M590.17,877.93V876h-1.89v1.89Z"/><path class="cls-1" d="M590.17,819.45v-1.89h-1.89v1.89Z"/><path class="cls-1" d="M590.17,761v-1.9h-1.89V761Z"/><path class="cls-1" d="M590.17,702.55v-1.9h-1.89v1.9Z"/><path class="cls-1" d="M590.17,644.06v-1.89h-1.89v1.89Z"/><path class="cls-1" d="M590.17,585.61v-1.89h-1.89v1.89Z"/><path class="cls-1" d="M590.17,527.16v-1.89h-1.89v1.89Z"/><path class="cls-1" d="M590.17,468.71v-1.9h-1.89v1.9Z"/><path class="cls-1" d="M590.17,410.23v-1.9h-1.89v1.9Z"/><path class="cls-1" d="M590.17,351.77v-1.89h-1.9v1.89Z"/><path class="cls-1" d="M590.17,293.32v-1.89h-1.89v1.89Z"/><path class="cls-1" d="M590.17,234.84V233h-1.9v1.89Z"/><path class="cls-1" d="M590.17,176.39v-1.9h-1.9v1.9Z"/><path class="cls-1" d="M590.17,117.93V116h-1.89v1.89Z"/><path class="cls-1" d="M590.17,59.45V57.56h-1.89v1.89Z"/><path class="cls-1" d="M531.42,116V59.45h-1.89V116Z"/><path class="cls-1" d="M531.42,934.49V877.93h-1.89v56.56Z"/><path class="cls-1" d="M531.42,992.94V936.39h-1.89v56.55Z"/><path class="cls-1" d="M531.42,642.17V585.61h-1.89v56.56Z"/><path class="cls-1" d="M531.42,700.65V644.09h-1.89v56.56Z"/><path class="cls-1" d="M531.42,1109.88v-56.56h-1.89v56.56Z"/><path class="cls-1" d="M531.42,759.1V702.55h-1.89V759.1Z"/><path class="cls-1" d="M531.42,349.88V293.32h-1.89v56.56Z"/><path class="cls-1" d="M531.42,408.33V351.77h-1.89v56.56Z"/><path class="cls-1" d="M531.42,233V176.39h-1.89V233Z"/><path class="cls-1" d="M531.42,291.4V234.84h-1.89V291.4Z"/><path class="cls-1" d="M531.42,525.27V468.71h-1.89v56.56Z"/><path class="cls-1" d="M531.42,817.56V761h-1.89v56.56Z"/><path class="cls-1" d="M531.42,174.49V117.93h-1.89v56.56Z"/><path class="cls-1" d="M531.42,1051.4V994.84h-1.89v56.56Z"/><path class="cls-1" d="M531.42,466.78V410.23h-1.89v56.55Z"/><path class="cls-1" d="M531.42,876V819.45h-1.89V876Z"/><path class="cls-1" d="M531.42,583.72V527.16h-1.89v56.56Z"/><path class="cls-1" d="M531.42,57.56V1h-1.89V57.56Z"/><path class="cls-1" d="M531.42,1111.77v-1.89h-1.89v1.89Z"/><path class="cls-1" d="M531.42,1053.32v-1.89h-1.89v1.89Z"/><path class="cls-1" d="M531.42,994.84v-1.9h-1.89v1.9Z"/><path class="cls-1" d="M531.42,936.39v-1.9h-1.89v1.9Z"/><path class="cls-1" d="M531.42,877.93V876h-1.89v1.89Z"/><path class="cls-1" d="M531.42,819.45v-1.89h-1.89v1.89Z"/><path class="cls-1" d="M531.42,761v-1.9h-1.89V761Z"/><path class="cls-1" d="M531.42,702.55v-1.9h-1.89v1.9Z"/><path class="cls-1" d="M531.42,644.07v-1.9h-1.89v1.9Z"/><path class="cls-1" d="M531.42,585.61v-1.89h-1.89v1.89Z"/><path class="cls-1" d="M531.42,527.16v-1.89h-1.89v1.89Z"/><path class="cls-1" d="M531.42,468.71v-1.9h-1.89v1.9Z"/><path class="cls-1" d="M531.42,410.23v-1.9h-1.89v1.9Z"/><path class="cls-1" d="M531.42,351.77v-1.89h-1.89v1.89Z"/><path class="cls-1" d="M531.42,293.32v-1.89h-1.89v1.89Z"/><path class="cls-1" d="M531.42,234.84v-1.9h-1.89v1.9Z"/><path class="cls-1" d="M531.42,176.39v-1.9h-1.89v1.9Z"/><path class="cls-1" d="M531.42,117.91V116h-1.89v1.9Z"/><path class="cls-1" d="M531.42,59.45V57.56h-1.89v1.89Z"/><path class="cls-1" d="M472.7,408.33V351.77h-1.89v56.56Z"/><path class="cls-1" d="M472.7,291.4V234.84h-1.89V291.4Z"/><path class="cls-1" d="M472.7,1051.4V994.84h-1.89v56.56Z"/><path class="cls-1" d="M472.7,525.27V468.71h-1.89v56.56Z"/><path class="cls-1" d="M472.7,466.78V410.23h-1.89v56.55Z"/><path class="cls-1" d="M472.7,349.88V293.32h-1.89v56.56Z"/><path class="cls-1" d="M472.7,876V819.45h-1.89V876Z"/><path class="cls-1" d="M472.7,700.65V644.09h-1.89v56.56Z"/><path class="cls-1" d="M472.7,57.56V1h-1.89V57.56Z"/><path class="cls-1" d="M472.7,992.94V936.39h-1.89v56.55Z"/><path class="cls-1" d="M472.7,642.17V585.61h-1.89v56.56Z"/><path class="cls-1" d="M472.7,583.72V527.16h-1.89v56.56Z"/><path class="cls-1" d="M472.7,759.1V702.55h-1.89V759.1Z"/><path class="cls-1" d="M472.7,1109.88v-56.56h-1.89v56.56Z"/><path class="cls-1" d="M472.7,116V59.45h-1.89V116Z"/><path class="cls-1" d="M472.7,934.49V877.93h-1.89v56.56Z"/><path class="cls-1" d="M472.7,817.56V761h-1.89v56.56Z"/><path class="cls-1" d="M472.7,233V176.39h-1.89V233Z"/><path class="cls-1" d="M472.7,174.49V117.93h-1.89v56.56Z"/><path class="cls-1" d="M472.7,1111.77v-1.89h-1.89v1.89Z"/><path class="cls-1" d="M472.7,1053.32v-1.89h-1.89v1.89Z"/><path class="cls-1" d="M472.7,994.84v-1.9h-1.89v1.9Z"/><path class="cls-1" d="M472.7,936.39v-1.9h-1.89v1.9Z"/><path class="cls-1" d="M472.7,877.93V876h-1.89v1.89Z"/><path class="cls-1" d="M472.7,819.45v-1.89h-1.89v1.89Z"/><path class="cls-1" d="M472.7,761v-1.9h-1.89V761Z"/><path class="cls-1" d="M472.7,702.55v-1.9h-1.89v1.9Z"/><path class="cls-1" d="M472.7,644.07v-1.9h-1.89v1.9Z"/><path class="cls-1" d="M472.7,585.61v-1.89h-1.89v1.89Z"/><path class="cls-1" d="M472.7,527.16v-1.89h-1.89v1.89Z"/><path class="cls-1" d="M472.7,468.71v-1.9h-1.89v1.9Z"/><path class="cls-1" d="M472.7,410.23v-1.9h-1.89v1.9Z"/><path class="cls-1" d="M472.7,351.77v-1.89h-1.89v1.89Z"/><path class="cls-1" d="M472.7,293.32v-1.89h-1.89v1.89Z"/><path class="cls-1" d="M472.7,234.84V233h-1.89v1.89Z"/><path class="cls-1" d="M472.7,176.39v-1.9h-1.89v1.9Z"/><path class="cls-1" d="M472.7,117.9V116h-1.89v1.89Z"/><path class="cls-1" d="M472.7,59.45V57.56h-1.89v1.89Z"/><path class="cls-1" d="M414,57.56V1h-1.89V57.56Z"/><path class="cls-1" d="M414,116V59.45h-1.89V116Z"/><path class="cls-1" d="M414,817.56V761h-1.9v56.56Z"/><path class="cls-1" d="M414,876V819.45h-1.89V876Z"/><path class="cls-1" d="M414,349.88V293.32h-1.89v56.56Z"/><path class="cls-1" d="M414,700.65V644.09h-1.89v56.56Z"/><path class="cls-1" d="M414,174.49V117.93h-1.89v56.56Z"/><path class="cls-1" d="M414,583.72V527.16h-1.89v56.56Z"/><path class="cls-1" d="M414,642.17V585.61h-1.89v56.56Z"/><path class="cls-1" d="M414,934.49V877.93h-1.89v56.56Z"/><path class="cls-1" d="M414,525.27V468.71h-1.89v56.56Z"/><path class="cls-1" d="M414,1051.4V994.84h-1.89v56.56Z"/><path class="cls-1" d="M414,992.94V936.39h-1.89v56.55Z"/><path class="cls-1" d="M414,1109.88v-56.56h-1.89v56.56Z"/><path class="cls-1" d="M414,291.4V234.84h-1.89V291.4Z"/><path class="cls-1" d="M414,233V176.39h-1.89V233Z"/><path class="cls-1" d="M414,759.1V702.55h-1.89V759.1Z"/><path class="cls-1" d="M414,408.33V351.77h-1.89v56.56Z"/><path class="cls-1" d="M414,466.78V410.23h-1.89v56.55Z"/><path class="cls-1" d="M414,1111.77v-1.89h-1.89v1.89Z"/><path class="cls-1" d="M414,1053.32v-1.89h-1.89v1.89Z"/><path class="cls-1" d="M414,994.84v-1.9h-1.89v1.9Z"/><path class="cls-1" d="M414,936.39v-1.9h-1.89v1.9Z"/><path class="cls-1" d="M414,877.93V876h-1.89v1.89Z"/><path class="cls-1" d="M414,819.45v-1.89h-1.89v1.89Z"/><path class="cls-1" d="M414,761v-1.9h-1.89V761Z"/><path class="cls-1" d="M414,702.55v-1.9h-1.89v1.9Z"/><path class="cls-1" d="M414,644.06v-1.89h-1.89v1.89Z"/><path class="cls-1" d="M414,585.61v-1.89h-1.89v1.89Z"/><path class="cls-1" d="M414,527.16v-1.89h-1.89v1.89Z"/><path class="cls-1" d="M414,468.71v-1.9h-1.89v1.9Z"/><path class="cls-1" d="M414,410.23v-1.9h-1.89v1.9Z"/><path class="cls-1" d="M414,351.77v-1.89h-1.89v1.89Z"/><path class="cls-1" d="M414,293.32v-1.89h-1.89v1.89Z"/><path class="cls-1" d="M414,234.84V233h-1.89v1.89Z"/><path class="cls-1" d="M414,176.39v-1.9h-1.89v1.9Z"/><path class="cls-1" d="M414,117.91V116h-1.89v1.9Z"/><path class="cls-1" d="M414,59.45V57.56h-1.89v1.89Z"/><path class="cls-1" d="M355.24,817.56V761h-1.9v56.56Z"/><path class="cls-1" d="M355.24,57.56V1h-1.9V57.56Z"/><path class="cls-1" d="M355.23,116V59.45h-1.89V116Z"/><path class="cls-1" d="M355.23,408.33V351.77h-1.89v56.56Z"/><path class="cls-1" d="M355.24,759.1V702.55h-1.9V759.1Z"/><path class="cls-1" d="M355.24,992.94V936.39h-1.9v56.55Z"/><path class="cls-1" d="M355.24,466.78V410.23h-1.9v56.55Z"/><path class="cls-1" d="M355.24,1109.88v-56.56h-1.9v56.56Z"/><path class="cls-1" d="M355.23,349.88V293.32h-1.89v56.56Z"/><path class="cls-1" d="M355.23,291.4V234.84h-1.89V291.4Z"/><path class="cls-1" d="M355.23,233V176.39h-1.89V233Z"/><path class="cls-1" d="M355.23,642.17V585.61h-1.89v56.56Z"/><path class="cls-1" d="M355.23,700.65V644.09h-1.89v56.56Z"/><path class="cls-1" d="M355.24,174.49V117.93h-1.9v56.56Z"/><path class="cls-1" d="M355.23,525.27V468.71h-1.89v56.56Z"/><path class="cls-1" d="M355.23,583.72V527.16h-1.89v56.56Z"/><path class="cls-1" d="M355.23,876V819.45h-1.89V876Z"/><path class="cls-1" d="M355.24,934.49V877.93h-1.9v56.56Z"/><path class="cls-1" d="M355.23,1051.4V994.84h-1.89v56.56Z"/><path class="cls-1" d="M355.23,1111.77v-1.89h-1.89v1.89Z"/><path class="cls-1" d="M355.24,1053.32v-1.89h-1.9v1.89Z"/><path class="cls-1" d="M355.23,994.84v-1.9h-1.89v1.9Z"/><path class="cls-1" d="M355.23,936.39v-1.9h-1.89v1.9Z"/><path class="cls-1" d="M355.24,877.93V876h-1.9v1.89Z"/><path class="cls-1" d="M355.23,819.45v-1.89h-1.89v1.89Z"/><path class="cls-1" d="M355.24,761v-1.9h-1.9V761Z"/><path class="cls-1" d="M355.23,702.55v-1.9h-1.89v1.9Z"/><path class="cls-1" d="M355.24,644.06v-1.89h-1.9v1.89Z"/><path class="cls-1" d="M355.23,585.61v-1.89h-1.89v1.89Z"/><path class="cls-1" d="M355.23,527.16v-1.89h-1.89v1.89Z"/><path class="cls-1" d="M355.23,468.71v-1.9h-1.89v1.9Z"/><path class="cls-1" d="M355.23,410.23v-1.9h-1.89v1.9Z"/><path class="cls-1" d="M355.23,351.77v-1.89h-1.89v1.89Z"/><path class="cls-1" d="M355.24,293.32v-1.89h-1.9v1.89Z"/><path class="cls-1" d="M355.23,234.84V233h-1.89v1.89Z"/><path class="cls-1" d="M355.23,176.39v-1.9h-1.89v1.9Z"/><path class="cls-1" d="M355.24,117.9V116h-1.9v1.89Z"/><path class="cls-1" d="M355.24,59.45V57.56h-1.9v1.89Z"/><path class="cls-1" d="M296.52,466.78V410.23h-1.9v56.55Z"/><path class="cls-1" d="M296.52,1051.4V994.84h-1.9v56.56Z"/><path class="cls-1" d="M296.52,525.27V468.71h-1.9v56.56Z"/><path class="cls-1" d="M296.52,992.94V936.39h-1.9v56.55Z"/><path class="cls-1" d="M296.52,116V59.45h-1.9V116Z"/><path class="cls-1" d="M296.52,408.33V351.77h-1.9v56.56Z"/><path class="cls-1" d="M296.52,876V819.45h-1.9V876Z"/><path class="cls-1" d="M296.52,233V176.39h-1.9V233Z"/><path class="cls-1" d="M296.52,174.49V117.93h-1.9v56.56Z"/><path class="cls-1" d="M296.52,291.4V234.84h-1.9V291.4Z"/><path class="cls-1" d="M296.52,934.49V877.93h-1.9v56.56Z"/><path class="cls-1" d="M296.52,1109.88v-56.56h-1.9v56.56Z"/><path class="cls-1" d="M296.52,583.72V527.16h-1.9v56.56Z"/><path class="cls-1" d="M296.52,700.65V644.09h-1.9v56.56Z"/><path class="cls-1" d="M296.52,57.56V1h-1.9V57.56Z"/><path class="cls-1" d="M296.52,642.17V585.61h-1.9v56.56Z"/><path class="cls-1" d="M296.52,349.88V293.32h-1.9v56.56Z"/><path class="cls-1" d="M296.52,759.1V702.55h-1.9V759.1Z"/><path class="cls-1" d="M296.52,817.56V761h-1.9v56.56Z"/><path class="cls-1" d="M296.52,1111.77v-1.89h-1.9v1.89Z"/><path class="cls-1" d="M296.52,1053.32v-1.89h-1.9v1.89Z"/><path class="cls-1" d="M296.52,994.84v-1.9h-1.9v1.9Z"/><path class="cls-1" d="M296.52,936.39v-1.9h-1.9v1.9Z"/><path class="cls-1" d="M296.52,877.93V876h-1.9v1.89Z"/><path class="cls-1" d="M296.52,819.45v-1.89h-1.9v1.89Z"/><path class="cls-1" d="M296.52,761v-1.9h-1.9V761Z"/><path class="cls-1" d="M296.52,702.55v-1.9h-1.9v1.9Z"/><path class="cls-1" d="M296.52,644.07v-1.9h-1.9v1.9Z"/><path class="cls-1" d="M296.52,585.61v-1.89h-1.9v1.89Z"/><path class="cls-1" d="M296.52,527.16v-1.89h-1.9v1.89Z"/><path class="cls-1" d="M296.52,468.71v-1.9h-1.9v1.9Z"/><path class="cls-1" d="M296.52,410.23v-1.9h-1.9v1.9Z"/><path class="cls-1" d="M296.52,351.77v-1.89h-1.9v1.89Z"/><path class="cls-1" d="M296.52,293.32v-1.89h-1.9v1.89Z"/><path class="cls-1" d="M296.52,234.84V233h-1.9v1.89Z"/><path class="cls-1" d="M296.52,176.39v-1.9h-1.9v1.9Z"/><path class="cls-1" d="M296.52,117.9V116h-1.9v1.89Z"/><path class="cls-1" d="M296.52,59.45V57.56h-1.9v1.89Z"/><path class="cls-1" d="M237.8,349.88V293.32h-1.9v56.56Z"/><path class="cls-1" d="M237.8,291.4V234.84h-1.9V291.4Z"/><path class="cls-1" d="M237.8,1109.88v-56.56h-1.9v56.56Z"/><path class="cls-1" d="M237.8,233V176.39h-1.9V233Z"/><path class="cls-1" d="M237.8,1051.4V994.84h-1.9v56.56Z"/><path class="cls-1" d="M237.8,116V59.45h-1.9V116Z"/><path class="cls-1" d="M237.8,57.56V1h-1.9V57.56Z"/><path class="cls-1" d="M237.8,174.49V117.93h-1.9v56.56Z"/><path class="cls-1" d="M237.8,583.72V527.16h-1.9v56.56Z"/><path class="cls-1" d="M237.8,934.49V877.93h-1.9v56.56Z"/><path class="cls-1" d="M237.8,817.56V761h-1.9v56.56Z"/><path class="cls-1" d="M237.8,642.17V585.61h-1.9v56.56Z"/><path class="cls-1" d="M237.8,700.65V644.09h-1.9v56.56Z"/><path class="cls-1" d="M237.8,759.1V702.55h-1.9V759.1Z"/><path class="cls-1" d="M237.8,876V819.45h-1.9V876Z"/><path class="cls-1" d="M237.8,466.78V410.23h-1.9v56.55Z"/><path class="cls-1" d="M237.8,408.33V351.77h-1.9v56.56Z"/><path class="cls-1" d="M237.8,992.94V936.39h-1.9v56.55Z"/><path class="cls-1" d="M237.8,525.27V468.71h-1.9v56.56Z"/><path class="cls-1" d="M237.8,1111.77v-1.89h-1.9v1.89Z"/><path class="cls-1" d="M237.8,1053.32v-1.89h-1.9v1.89Z"/><path class="cls-1" d="M237.8,994.84v-1.9h-1.9v1.9Z"/><path class="cls-1" d="M237.8,936.39v-1.9h-1.9v1.9Z"/><path class="cls-1" d="M237.8,877.93V876h-1.9v1.89Z"/><path class="cls-1" d="M237.8,819.45v-1.89h-1.9v1.89Z"/><path class="cls-1" d="M237.8,761v-1.9h-1.9V761Z"/><path class="cls-1" d="M237.8,702.55v-1.9h-1.9v1.9Z"/><path class="cls-1" d="M237.8,644.07v-1.9h-1.9v1.9Z"/><path class="cls-1" d="M237.8,585.61v-1.89h-1.9v1.89Z"/><path class="cls-1" d="M237.8,527.16v-1.89h-1.89v1.89Z"/><path class="cls-1" d="M237.8,468.71v-1.9h-1.9v1.9Z"/><path class="cls-1" d="M237.8,410.23v-1.9h-1.9v1.9Z"/><path class="cls-1" d="M237.8,351.77v-1.89h-1.9v1.89Z"/><path class="cls-1" d="M237.8,293.32v-1.89h-1.9v1.89Z"/><path class="cls-1" d="M237.8,234.84V233h-1.9v1.89Z"/><path class="cls-1" d="M237.8,176.39v-1.9h-1.9v1.9Z"/><path class="cls-1" d="M237.8,117.91V116h-1.9v1.9Z"/><path class="cls-1" d="M237.8,59.45V57.56h-1.9v1.89Z"/><path class="cls-1" d="M179.05,1109.88v-56.56h-1.89v56.56Z"/><path class="cls-1" d="M179.05,291.4V234.84h-1.89V291.4Z"/><path class="cls-1" d="M179.05,934.49V877.93h-1.89v56.56Z"/><path class="cls-1" d="M179.05,1051.4V994.84h-1.89v56.56Z"/><path class="cls-1" d="M179.05,876V819.45h-1.89V876Z"/><path class="cls-1" d="M179.05,817.56V761h-1.9v56.56Z"/><path class="cls-1" d="M179.05,642.17V585.61h-1.89v56.56Z"/><path class="cls-1" d="M179.05,233V176.39h-1.89V233Z"/><path class="cls-1" d="M179.05,583.72V527.16h-1.89v56.56Z"/><path class="cls-1" d="M179.05,408.33V351.77h-1.89v56.56Z"/><path class="cls-1" d="M179.05,466.78V410.23h-1.89v56.55Z"/><path class="cls-1" d="M179.05,116V59.45h-1.89V116Z"/><path class="cls-1" d="M179.05,992.94V936.39h-1.89v56.55Z"/><path class="cls-1" d="M179.05,759.1V702.55h-1.89V759.1Z"/><path class="cls-1" d="M179.05,525.27V468.71h-1.89v56.56Z"/><path class="cls-1" d="M179.05,349.88V293.32h-1.89v56.56Z"/><path class="cls-1" d="M179.05,57.56V1h-1.89V57.56Z"/><path class="cls-1" d="M179.05,700.65V644.09h-1.89v56.56Z"/><path class="cls-1" d="M179.05,174.49V117.93h-1.89v56.56Z"/><path class="cls-1" d="M179.05,1111.77v-1.89h-1.89v1.89Z"/><path class="cls-1" d="M179.05,1053.32v-1.89h-1.89v1.89Z"/><path class="cls-1" d="M179.05,994.84v-1.9h-1.89v1.9Z"/><path class="cls-1" d="M179.05,936.39v-1.9h-1.89v1.9Z"/><path class="cls-1" d="M179.05,877.93V876h-1.89v1.89Z"/><path class="cls-1" d="M179.05,819.45v-1.89h-1.89v1.89Z"/><path class="cls-1" d="M179.05,761v-1.9h-1.89V761Z"/><path class="cls-1" d="M179.05,702.55v-1.9h-1.9v1.9Z"/><path class="cls-1" d="M179.05,644.07v-1.9h-1.89v1.9Z"/><path class="cls-1" d="M179.05,585.61v-1.89h-1.89v1.89Z"/><path class="cls-1" d="M179.05,527.16v-1.89h-1.89v1.89Z"/><path class="cls-1" d="M179.05,468.71v-1.9h-1.89v1.9Z"/><path class="cls-1" d="M179.05,410.23v-1.9h-1.89v1.9Z"/><path class="cls-1" d="M179.05,351.77v-1.89h-1.89v1.89Z"/><path class="cls-1" d="M179.05,293.32v-1.89h-1.89v1.89Z"/><path class="cls-1" d="M179.05,234.84V233h-1.89v1.89Z"/><path class="cls-1" d="M179.05,176.39v-1.9h-1.89v1.9Z"/><path class="cls-1" d="M179.05,117.9V116h-1.89v1.89Z"/><path class="cls-1" d="M179.05,59.45V57.56h-1.89v1.89Z"/><path class="cls-1" d="M120.33,1109.88v-56.56h-1.89v56.56Z"/><path class="cls-1" d="M120.33,642.17V585.61h-1.89v56.56Z"/><path class="cls-1" d="M120.33,583.72V527.16h-1.89v56.56Z"/><path class="cls-1" d="M120.33,174.49V117.93h-1.89v56.56Z"/><path class="cls-1" d="M120.33,116V59.45h-1.89V116Z"/><path class="cls-1" d="M120.33,57.56V1h-1.89V57.56Z"/><path class="cls-1" d="M120.33,525.27V468.71h-1.89v56.56Z"/><path class="cls-1" d="M120.33,466.78V410.23h-1.89v56.55Z"/><path class="cls-1" d="M120.33,759.1V702.55h-1.89V759.1Z"/><path class="cls-1" d="M120.33,817.56V761h-1.89v56.56Z"/><path class="cls-1" d="M120.33,1051.4V994.84h-1.89v56.56Z"/><path class="cls-1" d="M120.33,349.88V293.32h-1.89v56.56Z"/><path class="cls-1" d="M120.33,934.49V877.93h-1.89v56.56Z"/><path class="cls-1" d="M120.33,992.94V936.39h-1.89v56.55Z"/><path class="cls-1" d="M120.33,876V819.45h-1.89V876Z"/><path class="cls-1" d="M120.33,700.65V644.09h-1.89v56.56Z"/><path class="cls-1" d="M120.33,408.33V351.77h-1.89v56.56Z"/><path class="cls-1" d="M120.33,1111.77v-1.89h-1.89v1.89Z"/><path class="cls-1" d="M120.33,1053.32v-1.9h-1.89v1.9Z"/><path class="cls-1" d="M120.33,994.84v-1.9h-1.89v1.9Z"/><path class="cls-1" d="M120.33,936.39v-1.9h-1.89v1.9Z"/><path class="cls-1" d="M120.33,877.93V876h-1.89v1.89Z"/><path class="cls-1" d="M120.33,819.45v-1.89h-1.89v1.89Z"/><path class="cls-1" d="M120.33,761v-1.9h-1.89V761Z"/><path class="cls-1" d="M120.33,702.55v-1.9h-1.89v1.9Z"/><path class="cls-1" d="M120.33,644.06v-1.89h-1.89v1.89Z"/><path class="cls-1" d="M120.33,585.61v-1.89h-1.89v1.89Z"/><path class="cls-1" d="M120.33,527.16v-1.89h-1.89v1.89Z"/><path class="cls-1" d="M120.33,468.71v-1.9h-1.89v1.9Z"/><path class="cls-1" d="M120.33,410.23v-1.9h-1.89v1.9Z"/><path class="cls-1" d="M120.33,351.77v-1.89h-1.89v1.89Z"/><path class="cls-1" d="M120.33,293.32v-1.89h-1.89v1.89Z"/><path class="cls-1" d="M120.33,176.39v-1.9h-1.89v1.9Z"/><path class="cls-1" d="M120.33,117.9V116h-1.89v1.89Z"/><path class="cls-1" d="M120.33,59.45V57.56h-1.89v1.89Z"/><path class="cls-1" d="M61.61,116V59.45H59.72V116Z"/><path class="cls-1" d="M61.61,174.49V117.93H59.72v56.56Z"/><path class="cls-1" d="M61.61,992.94V936.39H59.72v56.55Z"/><path class="cls-1" d="M61.61,57.56V1H59.72V57.56Z"/><path class="cls-1" d="M61.61,1051.4V994.84H59.72v56.56Z"/><path class="cls-1" d="M61.61,408.33V351.77H59.72v56.56Z"/><path class="cls-1" d="M61.61,349.88V293.32H59.72v56.56Z"/><path class="cls-1" d="M61.61,700.65V644.09H59.72v56.56Z"/><path class="cls-1" d="M61.61,583.72V527.16H59.72v56.56Z"/><path class="cls-1" d="M61.61,466.78V410.23H59.72v56.55Z"/><path class="cls-1" d="M61.61,525.27V468.71H59.72v56.56Z"/><path class="cls-1" d="M61.61,817.56V761H59.72v56.56Z"/><path class="cls-1" d="M61.61,876V819.45H59.72V876Z"/><path class="cls-1" d="M61.61,934.49V877.93H59.72v56.56Z"/><path class="cls-1" d="M61.61,759.1V702.55H59.72V759.1Z"/><path class="cls-1" d="M61.61,642.17V585.61H59.72v56.56Z"/><path class="cls-1" d="M61.61,1109.88v-56.56H59.72v56.56Z"/><path class="cls-1" d="M61.61,1111.77v-1.89H59.72v1.89Z"/><path class="cls-1" d="M61.61,1053.32v-1.89H59.72v1.89Z"/><path class="cls-1" d="M61.61,994.84v-1.9H59.72v1.9Z"/><path class="cls-1" d="M61.61,936.39v-1.9H59.72v1.9Z"/><path class="cls-1" d="M61.61,877.93V876H59.72v1.89Z"/><path class="cls-1" d="M61.61,819.45v-1.89H59.72v1.89Z"/><path class="cls-1" d="M61.61,761v-1.9H59.72V761Z"/><path class="cls-1" d="M61.61,702.55v-1.9H59.72v1.9Z"/><path class="cls-1" d="M61.61,644.07v-1.9H59.72v1.9Z"/><path class="cls-1" d="M61.61,585.61v-1.89H59.72v1.89Z"/><path class="cls-1" d="M61.61,527.16v-1.89H59.72v1.89Z"/><path class="cls-1" d="M61.61,468.71v-1.9H59.72v1.9Z"/><path class="cls-1" d="M61.61,410.23v-1.9H59.72v1.9Z"/><path class="cls-1" d="M61.61,351.77v-1.89H59.72v1.89Z"/><path class="cls-1" d="M61.61,293.32v-1.89H59.72v1.89Z"/><path class="cls-1" d="M61.61,176.39v-1.9H59.72v1.9Z"/><path class="cls-1" d="M61.61,117.9V116H59.72v1.89Z"/><path class="cls-1" d="M61.61,59.45V57.56H59.72v1.89Z"/><path class="cls-1" d="M2.9,1053.32v-1.9H1v1.9Z"/><path class="cls-1" d="M2.9,994.84v-1.9H1v1.9Z"/><path class="cls-1" d="M2.89,936.39v-1.9H1v1.9Z"/><path class="cls-1" d="M2.9,877.93V876H1v1.89Z"/><path class="cls-1" d="M2.9,819.45v-1.89H1v1.89Z"/><path class="cls-1" d="M2.9,761v-1.9H1V761Z"/><path class="cls-1" d="M2.9,702.55v-1.9H1v1.9Z"/><path class="cls-1" d="M2.9,644.07v-1.9H1v1.9Z"/><path class="cls-1" d="M2.9,585.61v-1.89H1v1.89Z"/><path class="cls-1" d="M2.9,527.16v-1.89H1v1.89Z"/><path class="cls-1" d="M2.9,468.71v-1.9H1v1.9Z"/><path class="cls-1" d="M2.9,410.23v-1.9H1v1.9Z"/><path class="cls-1" d="M2.9,351.77v-1.89H1v1.89Z"/><path class="cls-1" d="M2.9,293.32v-1.89H1v1.89Z"/><path class="cls-1" d="M2.9,176.39v-1.9H1v1.9Z"/><path class="cls-1" d="M2.9,117.91V116H1v1.9Z"/><path class="cls-1" d="M2.9,59.45V57.56H1v1.89Z"/><path class="cls-2" d="M37.65,202l21.43,32.14L37.65,266.29H59.08l21.43-32.15L59.08,202Z"/><path class="cls-2" d="M68.72,202l21.43,32.14L68.72,266.29H90.15l21.43-32.15L90.15,202Z"/><path class="cls-2" d="M99.79,202l21.43,32.14L99.79,266.29h21.43l21.43-32.15L121.22,202Z"/></g></g></svg>