<svg width="23" height="23" viewBox="0 0 23 23" fill="none" xmlns="http://www.w3.org/2000/svg">
<path d="M16.1234 15.887L16.0611 15.957L16.1268 16.0237L21.8374 21.8277C22.0785 22.073 22.0785 22.4718 21.8369 22.7171L21.8368 22.7172C21.5966 22.9615 21.2074 22.9615 20.9673 22.7172L20.9672 22.7171L15.2344 16.8903L15.1702 16.825L15.0995 16.8832C13.5167 18.1881 11.5022 18.9726 9.30582 18.9726C4.22294 18.9726 0.1 14.7845 0.1 9.61396C0.1 4.44342 4.22294 0.255273 9.30582 0.255273C14.3887 0.255273 18.5117 4.44343 18.5124 9.61396C18.5124 12.0305 17.6032 14.2264 16.1234 15.887ZM1.33183 9.61396C1.33183 14.0878 4.90037 17.7174 9.30582 17.7174C13.7113 17.7174 17.2798 14.0878 17.2798 9.61396C17.2798 5.1401 13.7113 1.51055 9.30582 1.51055C4.90037 1.51055 1.33183 5.1401 1.33183 9.61396Z" fill="white" stroke="#1E2433" stroke-width="0.2"/>
</svg>
