<svg width="22" height="22" viewBox="0 0 22 22" fill="none" xmlns="http://www.w3.org/2000/svg">
<path fill-rule="evenodd" clip-rule="evenodd" d="M5.73926 5.22796C5.73926 2.54772 8.09993 0.367676 11.0001 0.367676C13.9003 0.367676 16.261 2.54772 16.261 5.22796C16.261 7.90819 13.9003 10.0882 11.0001 10.0882C8.09997 10.0882 5.73926 7.90819 5.73926 5.22796ZM6.69577 5.22796C6.69577 7.42039 8.62699 9.20456 11.0001 9.20456C13.3733 9.20456 15.3045 7.42039 15.3045 5.22796C15.3045 3.03552 13.3733 1.25135 11.0001 1.25135C8.62699 1.25135 6.69577 3.03552 6.69577 5.22796ZM0 21.1891C0 15.5856 4.93465 11.0266 11 11.0266C17.0653 11.0266 22 15.5847 22 21.1891C22 21.433 21.7857 21.6309 21.5217 21.6309C21.2577 21.6309 21.0434 21.433 21.0434 21.1891C21.0434 16.0725 16.5382 11.9103 11 11.9103C5.46175 11.9103 0.956549 16.0725 0.956549 21.1891C0.956549 21.433 0.742274 21.6309 0.478275 21.6309C0.214275 21.6309 0 21.433 0 21.1891Z" fill="white"/>
</svg>
