<svg width="118" height="26" viewBox="0 0 118 26" fill="none" xmlns="http://www.w3.org/2000/svg">
<path d="M28.2988 24.6223V4.57373H47.5581V10.4789H38.5395V12.812H46.9681V16.3634H38.5395V18.7378H47.5581V24.6223H28.2988Z" fill="#F99D21"/>
<path d="M61.4233 4.57373H51.1826V24.6223H61.4233V4.57373Z" fill="#F99D21"/>
<path d="M75.3092 25.2211C68.9246 25.2211 65.3846 23.177 64.4153 22.5369V16.735C68.9457 19.5431 75.4146 20.1005 75.8782 18.4694C76.3417 16.8795 74.3189 16.9415 71.7482 16.6524C65.7849 15.9504 63.8042 13.7411 63.8042 10.8712C63.8042 9.96269 63.6989 3.99561 76.1099 3.99561C79.9871 3.99561 83.4849 4.51179 86.0978 5.72998V11.5319C83.506 10.3963 80.5349 9.81815 78.1117 9.81815C76.1942 9.81815 75.1196 9.98333 75.1196 11.1189C75.1196 13.7824 87.3199 10.2311 87.3199 17.7467C87.2989 22.6402 81.9889 25.2211 75.3092 25.2211Z" fill="#F99D21"/>
<path d="M12.5796 4.57373H0C0 24.6223 0 4.57373 0 24.6223H12.5796C23.1575 24.6223 25.8968 19.8941 25.8968 14.5877C25.8968 9.30197 23.1575 4.57373 12.5796 4.57373ZM12.6428 19.9147H10.2407V9.30197H12.6428C15.6561 9.30197 16.225 12.8327 16.2461 14.6083C16.225 16.3634 15.6561 19.9147 12.6428 19.9147Z" fill="#F99D21"/>
<path d="M100.005 25.2211C93.6204 25.2211 90.0804 23.177 89.1111 22.5369V16.735C93.6415 19.5431 100.11 20.1005 100.574 18.4694C101.038 16.8795 99.0147 16.9415 96.444 16.6524C90.4807 15.9504 88.5 13.7411 88.5 10.8712C88.5 9.96269 88.3947 3.99561 100.806 3.99561C104.683 3.99561 108.181 4.51179 110.794 5.72998V11.5319C108.202 10.3963 105.231 9.81815 102.808 9.81815C100.89 9.81815 99.8154 9.98333 99.8154 11.1189C99.8154 13.7824 112.016 10.2311 112.016 17.7467C111.974 22.6402 106.685 25.2211 100.005 25.2211Z" fill="#F99D21"/>
<path d="M116.167 3.31502C116.293 3.25318 116.399 3.15011 116.483 3.02642C116.567 2.90273 116.588 2.75843 116.588 2.59352C116.588 2.4286 116.546 2.30491 116.462 2.18123C116.378 2.05754 116.272 1.95447 116.125 1.89262C115.977 1.83078 115.809 1.78955 115.598 1.78955H113.997V4.40759H114.755V3.29441L115.682 4.40759H116.588L115.724 3.4181C115.893 3.4181 116.04 3.37687 116.167 3.31502ZM115.303 3.04704H114.755V2.32553H115.345C115.493 2.32553 115.598 2.34614 115.682 2.40799C115.767 2.46983 115.788 2.55229 115.788 2.65536C115.788 2.92335 115.619 3.04704 115.303 3.04704Z" fill="#F99D21"/>
<path d="M115.282 1.00646C116.462 1.00646 117.41 1.93438 117.41 3.08913C117.41 4.24388 116.462 5.1718 115.282 5.1718C114.102 5.1718 113.153 4.24388 113.153 3.08913C113.153 1.955 114.123 1.00646 115.282 1.00646ZM115.282 0.449707C113.786 0.449707 112.563 1.64569 112.563 3.10975C112.563 4.5738 113.786 5.76979 115.282 5.76979C116.778 5.76979 118 4.5738 118 3.10975C118 1.64569 116.778 0.449707 115.282 0.449707Z" fill="#F99D21"/>
</svg>
