<svg xmlns="http://www.w3.org/2000/svg" viewBox="0 0 1423.29 1170"><defs><style>.cls-1{fill:none;stroke:#fbd29a;stroke-miterlimit:10;stroke-width:2px;}.cls-2{fill:#f99d21;}</style></defs><title>Чертеж_сетка со стрелкой_десктоп</title><g id="Слой_2" data-name="Слой 2"><g id="Слой_1-2" data-name="Слой 1"><path class="cls-1" d="M495,244.9V185.42H435.26V244.9Z"/><path class="cls-1" d="M495,183.43V124H435.26v59.47Z"/><path class="cls-1" d="M495,121.94V62.46H435.26v59.48Z"/><path class="cls-1" d="M495,429.32V369.85H435.26v59.47Z"/><path class="cls-1" d="M495,552.28V492.8H435.26v59.48Z"/><path class="cls-1" d="M495,675.2V615.73H435.26V675.2Z"/><path class="cls-1" d="M495,613.74V554.27H435.26v59.47Z"/><path class="cls-1" d="M495,490.78V431.31H435.26v59.47Z"/><path class="cls-1" d="M742,244.9V185.42H682.27V244.9Z"/><path class="cls-1" d="M742,306.36V246.89H682.27v59.47Z"/><path class="cls-1" d="M742,367.85V308.38H682.27v59.47Z"/><path class="cls-1" d="M742,429.32V369.85H682.27v59.47Z"/><path class="cls-1" d="M742,183.43V124H682.27v59.47Z"/><path class="cls-1" d="M742,490.78V431.31H682.27v59.47Z"/><path class="cls-1" d="M742,121.94V62.46H682.27v59.48Z"/><path class="cls-1" d="M803.77,244.9V185.42H744V244.9Z"/><path class="cls-1" d="M803.77,183.43V124H744v59.47Z"/><path class="cls-1" d="M803.76,306.36V246.89H744v59.47Z"/><path class="cls-1" d="M803.76,490.78V431.31H744v59.47Z"/><path class="cls-1" d="M495,736.7V677.23H435.26V736.7Z"/><path class="cls-1" d="M803.76,429.32V369.85H744v59.47Z"/><path class="cls-1" d="M803.76,121.94V62.46H744v59.48Z"/><path class="cls-1" d="M803.77,367.85V308.38H744v59.47Z"/><path class="cls-1" d="M618.53,798.16V738.69H558.78v59.47Z"/><path class="cls-1" d="M742,798.16V738.69H682.27v59.47Z"/><path class="cls-1" d="M680.28,798.16V738.69H620.53v59.47Z"/><path class="cls-1" d="M803.76,552.28V492.8H744v59.48Z"/><path class="cls-1" d="M556.76,798.16V738.69H497v59.47Z"/><path class="cls-1" d="M495,798.16V738.69H435.26v59.47Z"/><path class="cls-1" d="M803.76,613.74V554.27H744v59.47Z"/><path class="cls-1" d="M803.76,675.2V615.73H744V675.2Z"/><path class="cls-1" d="M803.76,798.16V738.69H744v59.47Z"/><path class="cls-1" d="M803.76,736.67V677.2H744v59.47Z"/><path class="cls-1" d="M680.28,490.78V431.31H620.53v59.47Z"/><path class="cls-1" d="M618.53,490.78V431.31H558.78v59.47Z"/><path class="cls-1" d="M618.53,552.28V492.8H558.78v59.48Z"/><path class="cls-1" d="M618.53,367.85V308.38H558.78v59.47Z"/><path class="cls-1" d="M618.53,429.32V369.85H558.78v59.47Z"/><path class="cls-1" d="M618.53,613.74V554.27H558.78v59.47Z"/><path class="cls-1" d="M618.53,306.36V246.89H558.78v59.47Z"/><path class="cls-1" d="M680.28,429.32V369.85H620.52v59.47Z"/><path class="cls-1" d="M680.28,675.21V615.73H620.53v59.48Z"/><path class="cls-1" d="M680.28,613.74V554.27H620.53v59.47Z"/><path class="cls-1" d="M618.53,675.2V615.73H558.78V675.2Z"/><path class="cls-1" d="M618.53,244.9V185.42H558.78V244.9Z"/><path class="cls-1" d="M742,552.28V492.8H682.27v59.48Z"/><path class="cls-1" d="M618.53,183.43V124H558.78v59.47Z"/><path class="cls-1" d="M556.76,675.2V615.73H497V675.2Z"/><path class="cls-1" d="M556.76,613.74V554.27H497v59.47Z"/><path class="cls-1" d="M556.76,552.28V492.8H497v59.48Z"/><path class="cls-1" d="M556.76,736.7V677.23H497V736.7Z"/><path class="cls-1" d="M556.76,490.78V431.31H497v59.47Z"/><path class="cls-1" d="M618.53,736.7V677.23H558.78V736.7Z"/><path class="cls-1" d="M742,613.74V554.27H682.27v59.47Z"/><path class="cls-1" d="M556.76,429.32V369.85H497v59.47Z"/><path class="cls-1" d="M680.28,367.85V308.38H620.53v59.47Z"/><path class="cls-1" d="M680.28,736.7V677.23H620.53V736.7Z"/><path class="cls-1" d="M742,736.67V677.2H682.27v59.47Z"/><path class="cls-1" d="M742,675.2V615.73H682.27V675.2Z"/><path class="cls-1" d="M680.28,183.43V124H620.53v59.47Z"/><path class="cls-1" d="M680.28,121.94V62.46H620.53v59.48Z"/><path class="cls-1" d="M680.28,306.36V246.89H620.53v59.47Z"/><path class="cls-1" d="M680.28,244.9V185.42H620.53V244.9Z"/><path class="cls-1" d="M618.53,121.94V62.46H558.78v59.48Z"/><path class="cls-1" d="M556.76,121.94V62.46H497v59.48Z"/><path class="cls-1" d="M556.76,244.9V185.42H497V244.9Z"/><path class="cls-1" d="M556.76,183.43V124H497v59.47Z"/><path class="cls-1" d="M865.54,367.85V308.38H805.79v59.47Z"/><path class="cls-1" d="M371.49,798.16V738.69H311.74v59.47Z"/><path class="cls-1" d="M371.49,736.7V677.23H311.74V736.7Z"/><path class="cls-1" d="M371.49,613.74V554.27H311.74v59.47Z"/><path class="cls-1" d="M371.5,859.63V800.16H311.74v59.47Z"/><path class="cls-1" d="M371.49,675.21V615.73H311.74v59.48Z"/><path class="cls-1" d="M495,921.09V861.62H435.26v59.47Z"/><path class="cls-1" d="M556.76,921.09V861.62H497v59.47Z"/><path class="cls-1" d="M618.53,921.09V861.62H558.78v59.47Z"/><path class="cls-1" d="M433.27,921.09V861.62H373.52v59.47Z"/><path class="cls-1" d="M371.5,921.09V861.62H311.74v59.47Z"/><path class="cls-1" d="M371.49,552.28V492.8H311.74v59.48Z"/><path class="cls-1" d="M371.49,429.32V369.85H311.74v59.47Z"/><path class="cls-1" d="M371.49,121.94V62.46H311.74v59.48Z"/><path class="cls-1" d="M371.49,183.43V124H311.74v59.47Z"/><path class="cls-1" d="M371.49,306.36V246.89H311.74v59.47Z"/><path class="cls-1" d="M680.28,921.09V861.62H620.53v59.47Z"/><path class="cls-1" d="M371.49,244.9V185.42H311.74V244.9Z"/><path class="cls-1" d="M371.49,367.85V308.38H311.74v59.47Z"/><path class="cls-1" d="M371.49,490.78V431.31H311.74v59.47Z"/><path class="cls-1" d="M803.76,921.09V861.62H744v59.47Z"/><path class="cls-1" d="M927.28,121.94V62.46H867.53v59.48Z"/><path class="cls-1" d="M927.28,183.43V124H867.53v59.47Z"/><path class="cls-1" d="M927.28,244.9V185.42H867.53V244.9Z"/><path class="cls-1" d="M927.28,367.85V308.38H867.53v59.47Z"/><path class="cls-1" d="M927.28,429.32V369.85H867.53v59.47Z"/><path class="cls-1" d="M927.28,306.36V246.89H867.53v59.47Z"/><path class="cls-1" d="M927.28,859.63V800.16H867.53v59.47Z"/><path class="cls-1" d="M927.28,798.16V738.69H867.53v59.47Z"/><path class="cls-1" d="M927.28,921.09V861.62H867.53v59.47Z"/><path class="cls-1" d="M865.54,921.09V861.62H805.79v59.47Z"/><path class="cls-1" d="M742,921.09V861.62H682.27v59.47Z"/><path class="cls-1" d="M927.28,613.74V554.27H867.53v59.47Z"/><path class="cls-1" d="M927.28,552.28V492.8H867.53v59.48Z"/><path class="cls-1" d="M927.28,490.78V431.31H867.53v59.47Z"/><path class="cls-1" d="M927.28,736.67V677.2H867.53v59.47Z"/><path class="cls-1" d="M927.28,675.2V615.73H867.53V675.2Z"/><path class="cls-1" d="M433.27,367.85V308.38H373.52v59.47Z"/><path class="cls-1" d="M433.27,736.7V677.23H373.52V736.7Z"/><path class="cls-1" d="M433.27,859.63V800.16H373.52v59.47Z"/><path class="cls-1" d="M433.27,552.28V492.8H373.52v59.48Z"/><path class="cls-1" d="M433.27,613.74V554.27H373.52v59.47Z"/><path class="cls-1" d="M433.27,675.21V615.73H373.52v59.48Z"/><path class="cls-1" d="M433.27,798.16V738.69H373.52v59.47Z"/><path class="cls-1" d="M495,859.63V800.15H435.26v59.48Z"/><path class="cls-1" d="M742,859.63V800.16H682.27v59.47Z"/><path class="cls-1" d="M680.28,859.63V800.16H620.53v59.47Z"/><path class="cls-1" d="M803.76,859.63V800.16H744v59.47Z"/><path class="cls-1" d="M618.53,859.63V800.15H558.78v59.48Z"/><path class="cls-1" d="M556.76,859.63V800.16H497v59.47Z"/><path class="cls-1" d="M433.27,121.94V62.46H373.52v59.48Z"/><path class="cls-1" d="M433.27,183.43V124H373.52v59.47Z"/><path class="cls-1" d="M433.27,490.78V431.31H373.52v59.47Z"/><path class="cls-1" d="M433.27,429.32V369.85H373.52v59.47Z"/><path class="cls-1" d="M433.27,244.9V185.42H373.52V244.9Z"/><path class="cls-1" d="M433.27,306.36V246.89H373.52v59.47Z"/><path class="cls-1" d="M865.54,736.67V677.2H805.79v59.47Z"/><path class="cls-1" d="M865.54,183.43V124H805.79v59.47Z"/><path class="cls-1" d="M865.54,121.94V62.46H805.79v59.48Z"/><path class="cls-1" d="M865.54,859.63V800.16H805.79v59.47Z"/><path class="cls-1" d="M865.54,613.74V554.27H805.79v59.47Z"/><path class="cls-1" d="M865.54,675.21V615.73H805.79v59.48Z"/><path class="cls-1" d="M865.54,798.16V738.69H805.79v59.47Z"/><path class="cls-1" d="M865.54,552.28V492.8H805.79v59.48Z"/><path class="cls-1" d="M865.54,306.36V246.89H805.79v59.47Z"/><path class="cls-1" d="M865.54,244.9V185.42H805.79V244.9Z"/><path class="cls-1" d="M865.54,490.78V431.31H805.79v59.47Z"/><path class="cls-1" d="M865.54,429.32V369.85H805.79v59.47Z"/><path class="cls-1" d="M680.28,552.28V492.8H620.52v59.48Z"/><path class="cls-1" d="M1112.55,490.78V431.31h-59.76v59.47Z"/><path class="cls-1" d="M124.49,859.63V800.16H64.74v59.47Z"/><path class="cls-1" d="M124.49,982.59V923.11H64.74v59.48Z"/><path class="cls-1" d="M124.49,921.09V861.62H64.74v59.47Z"/><path class="cls-1" d="M124.49,798.16V738.69H64.74v59.47Z"/><path class="cls-1" d="M124.49,736.7V677.23H64.74V736.7Z"/><path class="cls-1" d="M124.49,1105.51V1046H64.74v59.47Z"/><path class="cls-1" d="M124.49,1044.05V984.58H64.74v59.47Z"/><path class="cls-1" d="M124.49,675.21V615.73H64.74v59.48Z"/><path class="cls-1" d="M1174.29,429.32V369.85h-59.75v59.47Z"/><path class="cls-1" d="M1174.29,490.78V431.31h-59.75v59.47Z"/><path class="cls-1" d="M1174.29,306.36V246.89h-59.75v59.47Z"/><path class="cls-1" d="M1174.29,552.28V492.8h-59.75v59.48Z"/><path class="cls-1" d="M1174.29,244.9V185.42h-59.75V244.9Z"/><path class="cls-1" d="M1174.29,613.74V554.27h-59.75v59.47Z"/><path class="cls-1" d="M1174.29,183.43V124h-59.75v59.47Z"/><path class="cls-1" d="M1174.29,121.94V62.46h-59.75v59.48Z"/><path class="cls-1" d="M1174.29,1044.05V984.58h-59.75v59.47Z"/><path class="cls-1" d="M1174.29,1105.51V1046h-59.75v59.47Z"/><path class="cls-1" d="M1174.29,982.59V923.11h-59.75v59.48Z"/><path class="cls-1" d="M1174.29,859.63V800.15h-59.75v59.48Z"/><path class="cls-1" d="M1174.29,921.09V861.62h-59.75v59.47Z"/><path class="cls-1" d="M1174.29,736.67V677.2h-59.75v59.47Z"/><path class="cls-1" d="M1174.29,798.16V738.69h-59.75v59.47Z"/><path class="cls-1" d="M1174.29,675.21V615.73h-59.75v59.48Z"/><path class="cls-1" d="M1174.29,367.85V308.38h-59.75v59.47Z"/><path class="cls-1" d="M1112.55,183.43V124h-59.76v59.47Z"/><path class="cls-1" d="M1112.55,306.36V246.89h-59.76v59.47Z"/><path class="cls-1" d="M1112.55,244.9V185.42h-59.76V244.9Z"/><path class="cls-1" d="M1112.55,367.85V308.38h-59.76v59.47Z"/><path class="cls-1" d="M1112.55,429.32V369.85h-59.76v59.47Z"/><path class="cls-1" d="M1112.55,121.94V62.46h-59.76v59.48Z"/><path class="cls-1" d="M124.49,244.9V185.42H64.74V244.9Z"/><path class="cls-1" d="M124.49,183.43V124H64.74v59.47Z"/><path class="cls-1" d="M124.49,306.36V246.89H64.74v59.47Z"/><path class="cls-1" d="M124.49,121.94V62.46H64.74v59.48Z"/><path class="cls-1" d="M124.49,429.32V369.85H64.74v59.47Z"/><path class="cls-1" d="M124.49,490.78V431.31H64.74v59.47Z"/><path class="cls-1" d="M124.49,367.85V308.38H64.74v59.47Z"/><path class="cls-1" d="M124.49,552.28V492.8H64.74v59.48Z"/><path class="cls-1" d="M124.49,613.74V554.27H64.74v59.47Z"/><path class="cls-1" d="M1236.06,675.2V615.73h-59.75V675.2Z"/><path class="cls-1" d="M1236.06,306.36V246.89h-59.75v59.47Z"/><path class="cls-1" d="M1236.07,183.43V124h-59.76v59.47Z"/><path class="cls-1" d="M1236.06,244.9V185.42h-59.75V244.9Z"/><path class="cls-1" d="M1236.06,429.32V369.85h-59.75v59.47Z"/><path class="cls-1" d="M1236.07,367.85V308.38h-59.76v59.47Z"/><path class="cls-1" d="M1236.07,490.78V431.31h-59.76v59.47Z"/><path class="cls-1" d="M1236.06,121.94V62.46h-59.75v59.48Z"/><path class="cls-1" d="M1236.06,736.67V677.2h-59.75v59.47Z"/><path class="cls-1" d="M1236.06,552.28V492.8h-59.75v59.48Z"/><path class="cls-1" d="M1236.06,982.59V923.11h-59.75v59.48Z"/><path class="cls-1" d="M1236.06,859.63V800.16h-59.75v59.47Z"/><path class="cls-1" d="M1236.06,1105.51V1046h-59.75v59.47Z"/><path class="cls-1" d="M1236.06,921.09V861.62h-59.75v59.47Z"/><path class="cls-1" d="M1236.06,798.16V738.69h-59.75v59.47Z"/><path class="cls-1" d="M1236.06,1044.05V984.58h-59.75v59.47Z"/><path class="cls-1" d="M1236.06,613.74V554.27h-59.75v59.47Z"/><path class="cls-1" d="M989.06,429.32V369.85H929.3v59.47Z"/><path class="cls-1" d="M989.06,121.94V62.46H929.3v59.48Z"/><path class="cls-1" d="M989.06,183.43V124H929.3v59.47Z"/><path class="cls-1" d="M989.06,244.9V185.42H929.31V244.9Z"/><path class="cls-1" d="M989.06,367.85V308.38H929.3v59.47Z"/><path class="cls-1" d="M989.06,306.36V246.89H929.3v59.47Z"/><path class="cls-1" d="M248,798.16V738.69H188.26v59.47Z"/><path class="cls-1" d="M248,736.7V677.23H188.26V736.7Z"/><path class="cls-1" d="M248,552.28V492.8H188.25v59.48Z"/><path class="cls-1" d="M248,859.63V800.16H188.25v59.47Z"/><path class="cls-1" d="M248,613.74V554.27H188.26v59.47Z"/><path class="cls-1" d="M371.5,1044.05V984.58H311.74v59.47Z"/><path class="cls-1" d="M309.75,1044.05V984.58H250v59.47Z"/><path class="cls-1" d="M248,921.09V861.62H188.26v59.47Z"/><path class="cls-1" d="M248,982.59V923.11H188.26v59.48Z"/><path class="cls-1" d="M248,1044.05V984.58H188.26v59.47Z"/><path class="cls-1" d="M248,675.21V615.73H188.26v59.48Z"/><path class="cls-1" d="M248,183.43V124H188.26v59.47Z"/><path class="cls-1" d="M248,121.94V62.46H188.26v59.48Z"/><path class="cls-1" d="M248,490.78V431.31H188.26v59.47Z"/><path class="cls-1" d="M248,429.32V369.85H188.26v59.47Z"/><path class="cls-1" d="M248,244.9V185.42H188.25V244.9Z"/><path class="cls-1" d="M248,367.85V308.38H188.25v59.47Z"/><path class="cls-1" d="M248,306.36V246.89H188.25v59.47Z"/><path class="cls-1" d="M433.27,982.59V923.11H373.52v59.48Z"/><path class="cls-1" d="M309.75,367.85V308.38H250v59.47Z"/><path class="cls-1" d="M309.75,429.32V369.85H250v59.47Z"/><path class="cls-1" d="M309.75,306.36V246.89H250v59.47Z"/><path class="cls-1" d="M309.75,244.9V185.42H250V244.9Z"/><path class="cls-1" d="M309.75,183.43V124H250v59.47Z"/><path class="cls-1" d="M309.75,121.94V62.47H250v59.47Z"/><path class="cls-1" d="M309.75,675.21V615.73H250v59.48Z"/><path class="cls-1" d="M309.75,490.78V431.31H250v59.47Z"/><path class="cls-1" d="M309.75,736.7V677.23H250V736.7Z"/><path class="cls-1" d="M309.75,552.28V492.8H250v59.48Z"/><path class="cls-1" d="M309.75,798.16V738.69H250v59.47Z"/><path class="cls-1" d="M309.75,613.74V554.27H250v59.47Z"/><path class="cls-1" d="M989.06,675.2V615.73H929.3V675.2Z"/><path class="cls-1" d="M989.06,798.16V738.69H929.31v59.47Z"/><path class="cls-1" d="M989.06,859.63V800.16H929.3v59.47Z"/><path class="cls-1" d="M989.06,921.09V861.62H929.3v59.47Z"/><path class="cls-1" d="M927.28,982.59V923.11H867.53v59.48Z"/><path class="cls-1" d="M989.06,982.59V923.11H929.3v59.48Z"/><path class="cls-1" d="M865.54,982.59V923.11H805.79v59.48Z"/><path class="cls-1" d="M989.06,613.74V554.27H929.3v59.47Z"/><path class="cls-1" d="M989.06,552.28V492.8H929.3v59.48Z"/><path class="cls-1" d="M989.06,490.78V431.31H929.3v59.47Z"/><path class="cls-1" d="M989.06,736.67V677.2H929.3v59.47Z"/><path class="cls-1" d="M309.75,921.09V861.62H250v59.47Z"/><path class="cls-1" d="M803.76,982.59V923.11H744v59.48Z"/><path class="cls-1" d="M495,982.59V923.11H435.26v59.48Z"/><path class="cls-1" d="M371.49,982.59V923.11H311.74v59.48Z"/><path class="cls-1" d="M309.75,982.59V923.11H250v59.48Z"/><path class="cls-1" d="M309.75,859.63V800.16H250v59.47Z"/><path class="cls-1" d="M433.27,1044.05V984.58H373.52v59.47Z"/><path class="cls-1" d="M680.28,982.59V923.11H620.53v59.48Z"/><path class="cls-1" d="M742,982.59V923.11H682.27v59.48Z"/><path class="cls-1" d="M618.53,982.59V923.11H558.78v59.48Z"/><path class="cls-1" d="M556.76,982.59V923.11H497v59.48Z"/><path class="cls-1" d="M186.23,736.7V677.23H126.48V736.7Z"/><path class="cls-1" d="M186.23,675.21V615.73H126.48v59.48Z"/><path class="cls-1" d="M186.23,490.78V431.31H126.48v59.47Z"/><path class="cls-1" d="M186.23,798.16V738.69H126.48v59.47Z"/><path class="cls-1" d="M186.23,613.74V554.27H126.48v59.47Z"/><path class="cls-1" d="M186.23,552.28V492.8H126.48v59.48Z"/><path class="cls-1" d="M186.23,1044.05V984.58H126.48v59.47Z"/><path class="cls-1" d="M186.23,1105.51V1046H126.48v59.47Z"/><path class="cls-1" d="M186.23,982.59V923.11H126.48v59.48Z"/><path class="cls-1" d="M186.23,859.63V800.15H126.48v59.48Z"/><path class="cls-1" d="M186.23,921.09V861.62H126.48v59.47Z"/><path class="cls-1" d="M186.23,429.32V369.85H126.48v59.47Z"/><path class="cls-1" d="M248,1105.51V1046H188.26v59.47Z"/><path class="cls-1" d="M186.23,121.94V62.46H126.48v59.48Z"/><path class="cls-1" d="M186.23,367.85V308.38H126.48v59.47Z"/><path class="cls-1" d="M186.23,306.36V246.89H126.48v59.47Z"/><path class="cls-1" d="M186.23,183.43V124H126.48v59.47Z"/><path class="cls-1" d="M186.23,244.9V185.42H126.48V244.9Z"/><path class="cls-1" d="M1112.55,921.09V861.62h-59.76v59.47Z"/><path class="cls-1" d="M495,1044.05V984.58H435.26v59.47Z"/><path class="cls-1" d="M1112.55,1044.05V984.58h-59.76v59.47Z"/><path class="cls-1" d="M1112.55,1105.51V1046h-59.76v59.47Z"/><path class="cls-1" d="M309.75,1105.51V1046H250v59.47Z"/><path class="cls-1" d="M1112.55,859.63V800.16h-59.76v59.47Z"/><path class="cls-1" d="M989.06,1105.51V1046H929.3v59.47Z"/><path class="cls-1" d="M1112.55,675.2V615.73h-59.76V675.2Z"/><path class="cls-1" d="M1112.55,613.74V554.27h-59.76v59.47Z"/><path class="cls-1" d="M1112.55,798.16V738.69h-59.76v59.47Z"/><path class="cls-1" d="M1112.55,736.67V677.2h-59.76v59.47Z"/><path class="cls-1" d="M1050.77,1105.51V1046H991v59.47Z"/><path class="cls-1" d="M556.76,1105.51V1046H497v59.47Z"/><path class="cls-1" d="M495,1105.51V1046H435.26v59.47Z"/><path class="cls-1" d="M618.53,1105.51V1046H558.78v59.47Z"/><path class="cls-1" d="M433.27,1105.51V1046H373.52v59.47Z"/><path class="cls-1" d="M371.49,1105.51V1046H311.74v59.47Z"/><path class="cls-1" d="M865.54,1105.51V1046H805.79v59.47Z"/><path class="cls-1" d="M680.28,1105.51V1046H620.53v59.47Z"/><path class="cls-1" d="M803.76,1105.51V1046H744v59.47Z"/><path class="cls-1" d="M927.28,1105.51V1046H867.53v59.47Z"/><path class="cls-1" d="M742,1105.51V1046H682.27v59.47Z"/><path class="cls-1" d="M1112.55,982.59V923.11h-59.76v59.48Z"/><path class="cls-1" d="M1050.8,675.2V615.73H991.05V675.2Z"/><path class="cls-1" d="M1050.8,613.74V554.27H991.05v59.47Z"/><path class="cls-1" d="M1050.8,859.63V800.15H991.05v59.48Z"/><path class="cls-1" d="M1050.8,798.16V738.69H991.05v59.47Z"/><path class="cls-1" d="M1050.8,552.28V492.8H991.05v59.48Z"/><path class="cls-1" d="M1050.8,367.85V308.38H991.05v59.47Z"/><path class="cls-1" d="M1050.8,306.36V246.89H991.05v59.47Z"/><path class="cls-1" d="M1050.8,490.78V431.31H991.05v59.47Z"/><path class="cls-1" d="M1050.8,429.32V369.85H991.05v59.47Z"/><path class="cls-1" d="M1050.8,921.09V861.62H991.05v59.47Z"/><path class="cls-1" d="M742,1044.05V984.58H682.27v59.47Z"/><path class="cls-1" d="M1050.8,982.59V923.11H991.05v59.48Z"/><path class="cls-1" d="M680.28,1044.05V984.58H620.53v59.47Z"/><path class="cls-1" d="M1050.8,244.9V185.42H991.05V244.9Z"/><path class="cls-1" d="M618.53,1044.05V984.58H558.78v59.47Z"/><path class="cls-1" d="M556.76,1044.05V984.58H497v59.47Z"/><path class="cls-1" d="M803.76,1044.05V984.58H744v59.47Z"/><path class="cls-1" d="M989.06,1044.05V984.58H929.3v59.47Z"/><path class="cls-1" d="M865.54,1044.05V984.58H805.79v59.47Z"/><path class="cls-1" d="M1050.8,1044.05V984.58H991.05v59.47Z"/><path class="cls-1" d="M927.28,1044.05V984.58H867.53v59.47Z"/><path class="cls-1" d="M1050.8,736.67V677.2H991.05v59.47Z"/><path class="cls-1" d="M1050.8,121.94V62.46H991.05v59.48Z"/><path class="cls-1" d="M1050.8,183.43V124H991.05v59.47Z"/><path class="cls-1" d="M1112.55,552.28V492.8h-59.76v59.48Z"/><path class="cls-1" d="M1359.55,982.59V923.11H1299.8v59.48Z"/><path class="cls-1" d="M1359.55,1105.51V1046H1299.8v59.47Z"/><path class="cls-1" d="M1359.55,1044.05V984.58H1299.8v59.47Z"/><path class="cls-1" d="M1359.55,736.67V677.2H1299.8v59.47Z"/><path class="cls-1" d="M1359.55,859.63V800.15H1299.8v59.48Z"/><path class="cls-1" d="M1359.55,921.09V861.62H1299.8v59.47Z"/><path class="cls-1" d="M1359.55,798.16V738.69H1299.8v59.47Z"/><path class="cls-1" d="M1359.55,429.32V369.85H1299.8v59.47Z"/><path class="cls-1" d="M1359.55,121.94V62.46H1299.8v59.48Z"/><path class="cls-1" d="M1359.55,183.43V124H1299.8v59.47Z"/><path class="cls-1" d="M1359.55,244.9V185.42H1299.8V244.9Z"/><path class="cls-1" d="M1359.55,613.74V554.27H1299.8v59.47Z"/><path class="cls-1" d="M1359.55,552.28V492.8H1299.8v59.48Z"/><path class="cls-1" d="M1359.55,490.78V431.31H1299.8v59.47Z"/><path class="cls-1" d="M1359.55,306.36V246.89H1299.8v59.47Z"/><path class="cls-1" d="M1359.55,675.2V615.73H1299.8V675.2Z"/><path class="cls-1" d="M1359.55,367.85V308.38H1299.8v59.47Z"/><path class="cls-1" d="M1297.81,982.59V923.11h-59.75v59.48Z"/><path class="cls-1" d="M1297.81,1044.05V984.58h-59.75v59.47Z"/><path class="cls-1" d="M1297.81,429.32V369.85h-59.75v59.47Z"/><path class="cls-1" d="M1297.81,490.78V431.31h-59.75v59.47Z"/><path class="cls-1" d="M1297.81,552.28V492.8h-59.75v59.48Z"/><path class="cls-1" d="M1297.81,367.85V308.38h-59.75v59.47Z"/><path class="cls-1" d="M1297.81,1105.51V1046h-59.75v59.47Z"/><path class="cls-1" d="M1297.81,921.09V861.62h-59.75v59.47Z"/><path class="cls-1" d="M1297.81,859.63V800.16h-59.75v59.47Z"/><path class="cls-1" d="M1297.81,798.16V738.69h-59.75v59.47Z"/><path class="cls-1" d="M1297.81,306.36V246.89h-59.75v59.47Z"/><path class="cls-1" d="M1297.81,675.2V615.73h-59.75V675.2Z"/><path class="cls-1" d="M1297.81,736.67V677.2h-59.75v59.47Z"/><path class="cls-1" d="M1297.81,613.74V554.27h-59.75v59.47Z"/><path class="cls-1" d="M1297.81,183.43V124h-59.75v59.47Z"/><path class="cls-1" d="M1297.81,244.9V185.42h-59.75V244.9Z"/><path class="cls-1" d="M1297.81,121.94V62.46h-59.75v59.48Z"/><path class="cls-1" d="M1050.77,1107.53v-2H991v2Z"/><path class="cls-1" d="M1112.55,1107.54v-2h-59.76v2Z"/><path class="cls-1" d="M927.28,1107.53v-2H867.53v2Z"/><path class="cls-1" d="M433.27,1107.54v-2H373.52v2Z"/><path class="cls-1" d="M865.54,1107.54v-2H805.79v2Z"/><path class="cls-1" d="M495,1107.54v-2H435.26v2Z"/><path class="cls-1" d="M680.28,1107.54v-2H620.53v2Z"/><path class="cls-1" d="M248,1107.54v-2H188.26v2Z"/><path class="cls-1" d="M186.23,1107.54v-2H126.48v2Z"/><path class="cls-1" d="M556.76,1107.54v-2H497v2Z"/><path class="cls-1" d="M371.49,1107.53v-2H311.74v2Z"/><path class="cls-1" d="M618.53,1107.54v-2H558.78v2Z"/><path class="cls-1" d="M803.77,1107.53v-2H744v2Z"/><path class="cls-1" d="M742,1107.54v-2H682.27v2Z"/><path class="cls-1" d="M309.75,1107.54v-2H250v2Z"/><path class="cls-1" d="M989.06,1107.53v-2H929.3v2Z"/><path class="cls-1" d="M1174.29,1107.54v-2h-59.75v2Z"/><path class="cls-1" d="M124.49,1107.53v-2H64.74v2Z"/><path class="cls-1" d="M1359.55,1107.54v-2H1299.8v2Z"/><path class="cls-1" d="M62.74,1107.54v-2H3v2Z"/><path class="cls-1" d="M1236.06,1107.54v-2h-59.75v2Z"/><path class="cls-1" d="M1421.3,1107.54v-2h-59.76v2Z"/><path class="cls-1" d="M1297.81,1107.54v-2h-59.75v2Z"/><path class="cls-1" d="M1422.29,1107.54v-2h-1v2Z"/><path class="cls-1" d="M1236.06,1046v-2h-59.75v2Z"/><path class="cls-1" d="M865.54,1046v-2H805.79v2Z"/><path class="cls-1" d="M803.76,1046v-2H744v2Z"/><path class="cls-1" d="M1421.3,1046v-2h-59.76v2Z"/><path class="cls-1" d="M1297.81,1046v-2h-59.75v2Z"/><path class="cls-1" d="M927.28,1046v-2H867.53v2Z"/><path class="cls-1" d="M1112.55,1046v-2h-59.76v2Z"/><path class="cls-1" d="M1174.29,1046v-2h-59.75v2Z"/><path class="cls-1" d="M186.23,1046v-2H126.48v2Z"/><path class="cls-1" d="M989.06,1046v-2H929.3v2Z"/><path class="cls-1" d="M309.75,1046v-2H250v2Z"/><path class="cls-1" d="M371.49,1046v-2H311.74v2Z"/><path class="cls-1" d="M124.49,1046v-2H64.74v2Z"/><path class="cls-1" d="M248,1046v-2H188.26v2Z"/><path class="cls-1" d="M433.27,1046v-2H373.52v2Z"/><path class="cls-1" d="M1050.77,1046v-2H991v2Z"/><path class="cls-1" d="M618.53,1046v-2H558.78v2Z"/><path class="cls-1" d="M680.28,1046v-2H620.53v2Z"/><path class="cls-1" d="M1359.55,1046v-2H1299.8v2Z"/><path class="cls-1" d="M495,1046v-2H435.26v2Z"/><path class="cls-1" d="M742,1046v-2H682.27v2Z"/><path class="cls-1" d="M556.76,1046v-2H497v2Z"/><path class="cls-1" d="M62.75,1046v-2H3v2Z"/><path class="cls-1" d="M1422.29,1046v-2h-1v2Z"/><path class="cls-1" d="M1297.81,984.58v-2h-59.75v2Z"/><path class="cls-1" d="M124.49,984.58v-2H64.74v2Z"/><path class="cls-1" d="M1236.06,984.58v-2h-59.75v2Z"/><path class="cls-1" d="M1112.55,984.58v-2h-59.76v2Z"/><path class="cls-1" d="M742,984.58v-2H682.27v2Z"/><path class="cls-1" d="M1050.8,984.58v-2H991.05v2Z"/><path class="cls-1" d="M989.06,984.58v-2H929.3v2Z"/><path class="cls-1" d="M618.53,984.58v-2H558.78v2Z"/><path class="cls-1" d="M186.23,984.58v-2H126.48v2Z"/><path class="cls-1" d="M556.76,984.58v-2H497v2Z"/><path class="cls-1" d="M248,984.58v-2H188.26v2Z"/><path class="cls-1" d="M433.27,984.58v-2H373.52v2Z"/><path class="cls-1" d="M495,984.58v-2H435.26v2Z"/><path class="cls-1" d="M865.54,984.58v-2H805.79v2Z"/><path class="cls-1" d="M371.5,984.58v-2H311.74v2Z"/><path class="cls-1" d="M1359.55,984.58v-2H1299.8v2Z"/><path class="cls-1" d="M1174.29,984.58v-2h-59.75v2Z"/><path class="cls-1" d="M62.75,984.58v-2H3v2Z"/><path class="cls-1" d="M927.28,984.58v-2H867.53v2Z"/><path class="cls-1" d="M803.76,984.58v-2H744v2Z"/><path class="cls-1" d="M680.28,984.58v-2H620.53v2Z"/><path class="cls-1" d="M309.75,984.58v-2H250v2Z"/><path class="cls-1" d="M1421.3,984.58v-2h-59.76v2Z"/><path class="cls-1" d="M1422.29,984.58v-2h-1v2Z"/><path class="cls-1" d="M1236.06,923.11v-2h-59.75v2Z"/><path class="cls-1" d="M309.75,923.11v-2H250v2Z"/><path class="cls-1" d="M186.23,923.11v-2H126.48v2Z"/><path class="cls-1" d="M248,923.11v-2H188.26v2Z"/><path class="cls-1" d="M1174.29,923.11v-2h-59.75v2Z"/><path class="cls-1" d="M1359.55,923.11v-2H1299.8v2Z"/><path class="cls-1" d="M1421.3,923.11v-2h-59.76v2Z"/><path class="cls-1" d="M495,923.11v-2H435.26v2Z"/><path class="cls-1" d="M556.76,923.11v-2H497v2Z"/><path class="cls-1" d="M927.28,923.11v-2H867.53v2Z"/><path class="cls-1" d="M1297.81,923.11v-2h-59.75v2Z"/><path class="cls-1" d="M618.53,923.11v-2H558.78v2Z"/><path class="cls-1" d="M989.06,923.11v-2H929.3v2Z"/><path class="cls-1" d="M433.27,923.11v-2H373.52v2Z"/><path class="cls-1" d="M62.74,923.11v-2H3v2Z"/><path class="cls-1" d="M371.49,923.11v-2H311.74v2Z"/><path class="cls-1" d="M742,923.11v-2H682.27v2Z"/><path class="cls-1" d="M803.76,923.11v-2H744v2Z"/><path class="cls-1" d="M865.54,923.11v-2H805.79v2Z"/><path class="cls-1" d="M680.28,923.11v-2H620.53v2Z"/><path class="cls-1" d="M124.49,923.11v-2H64.74v2Z"/><path class="cls-1" d="M1050.8,923.11v-2H991.05v2Z"/><path class="cls-1" d="M1112.55,923.11v-2h-59.76v2Z"/><path class="cls-1" d="M1422.29,923.11v-2h-1v2Z"/><path class="cls-1" d="M989.06,861.62v-2H929.3v2Z"/><path class="cls-1" d="M1421.3,861.62v-2h-59.76v2Z"/><path class="cls-1" d="M248,861.62v-2H188.26v2Z"/><path class="cls-1" d="M927.28,861.62v-2H867.53v2Z"/><path class="cls-1" d="M1174.29,861.62v-2h-59.75v2Z"/><path class="cls-1" d="M124.49,861.62v-2H64.74v2Z"/><path class="cls-1" d="M62.74,861.62v-2H3v2Z"/><path class="cls-1" d="M1297.81,861.62v-2h-59.75v2Z"/><path class="cls-1" d="M1050.8,861.62v-2H991.05v2Z"/><path class="cls-1" d="M1359.55,861.62v-2H1299.8v2Z"/><path class="cls-1" d="M1112.55,861.62v-2h-59.76v2Z"/><path class="cls-1" d="M803.77,861.62v-2H744v2Z"/><path class="cls-1" d="M556.76,861.62v-2H497v2Z"/><path class="cls-1" d="M495,861.62v-2H435.26v2Z"/><path class="cls-1" d="M618.53,861.62v-2H558.78v2Z"/><path class="cls-1" d="M433.27,861.62v-2H373.52v2Z"/><path class="cls-1" d="M1236.06,861.62v-2h-59.75v2Z"/><path class="cls-1" d="M680.28,861.62v-2H620.53v2Z"/><path class="cls-1" d="M186.23,861.62v-2H126.48v2Z"/><path class="cls-1" d="M371.49,861.62v-2H311.74v2Z"/><path class="cls-1" d="M865.54,861.62v-2H805.79v2Z"/><path class="cls-1" d="M742,861.62v-2H682.27v2Z"/><path class="cls-1" d="M309.75,861.62v-2H250v2Z"/><path class="cls-1" d="M1422.29,861.62v-2h-1v2Z"/><path class="cls-1" d="M1359.55,800.15v-2H1299.8v2Z"/><path class="cls-1" d="M927.28,800.15v-2H867.53v2Z"/><path class="cls-1" d="M186.23,800.16v-2H126.48v2Z"/><path class="cls-1" d="M556.76,800.15v-2H497v2Z"/><path class="cls-1" d="M742,800.15v-2H682.27v2Z"/><path class="cls-1" d="M433.27,800.15v-2H373.52v2Z"/><path class="cls-1" d="M124.49,800.15v-2H64.74v2Z"/><path class="cls-1" d="M1174.29,800.16v-2h-59.75v2Z"/><path class="cls-1" d="M803.76,800.15v-2H744v2Z"/><path class="cls-1" d="M62.74,800.15v-2H3v2Z"/><path class="cls-1" d="M371.49,800.16v-2H311.74v2Z"/><path class="cls-1" d="M618.53,800.15v-2H558.78v2Z"/><path class="cls-1" d="M865.54,800.16v-2H805.79v2Z"/><path class="cls-1" d="M1297.81,800.16v-2h-59.75v2Z"/><path class="cls-1" d="M309.75,800.15v-2H250v2Z"/><path class="cls-1" d="M1050.8,800.15v-2H991.05v2Z"/><path class="cls-1" d="M495,800.16v-2H435.26v2Z"/><path class="cls-1" d="M1236.07,800.16v-2h-59.76v2Z"/><path class="cls-1" d="M1112.55,800.15v-2h-59.76v2Z"/><path class="cls-1" d="M1421.3,800.16v-2h-59.76v2Z"/><path class="cls-1" d="M248,800.15v-2H188.25v2Z"/><path class="cls-1" d="M989.06,800.15v-2H929.3v2Z"/><path class="cls-1" d="M680.28,800.15v-2H620.53v2Z"/><path class="cls-1" d="M1422.29,800.16v-2h-1v2Z"/><path class="cls-1" d="M1297.81,738.69v-2h-59.75v2Z"/><path class="cls-1" d="M186.23,738.69v-2H126.48v2Z"/><path class="cls-1" d="M1112.55,738.69v-2h-59.76v2Z"/><path class="cls-1" d="M865.54,738.69v-2H805.79v2Z"/><path class="cls-1" d="M309.75,738.69v-2H250v2Z"/><path class="cls-1" d="M1236.06,738.69v-2h-59.75v2Z"/><path class="cls-1" d="M62.74,738.69v-2H3v2Z"/><path class="cls-1" d="M927.28,738.69v-2H867.53v2Z"/><path class="cls-1" d="M371.49,738.69v-2H311.74v2Z"/><path class="cls-1" d="M1421.3,738.69v-2h-59.76v2Z"/><path class="cls-1" d="M1359.55,738.69v-2H1299.8v2Z"/><path class="cls-1" d="M1050.8,738.69v-2H991.05v2Z"/><path class="cls-1" d="M803.76,738.69v-2H744v2Z"/><path class="cls-1" d="M1174.29,738.69v-2h-59.75v2Z"/><path class="cls-1" d="M248,738.69v-2H188.26v2Z"/><path class="cls-1" d="M989.06,738.69v-2H929.31v2Z"/><path class="cls-1" d="M680.28,738.69v-2H620.53v2Z"/><path class="cls-1" d="M618.53,738.69v-2H558.78v2Z"/><path class="cls-1" d="M495,738.69v-2H435.26v2Z"/><path class="cls-1" d="M433.27,738.69v-2H373.52v2Z"/><path class="cls-1" d="M742,738.69v-2H682.27v2Z"/><path class="cls-1" d="M556.76,738.69v-2H497v2Z"/><path class="cls-1" d="M124.49,738.69v-2H64.74v2Z"/><path class="cls-1" d="M1422.29,738.69v-2h-1v2Z"/><path class="cls-1" d="M309.75,677.2v-2H250v2Z"/><path class="cls-1" d="M186.23,677.2v-2H126.48v2Z"/><path class="cls-1" d="M495,677.2v-2H435.26v2Z"/><path class="cls-1" d="M1297.81,677.23v-2h-59.75v2Z"/><path class="cls-1" d="M124.49,677.2v-2H64.74v2Z"/><path class="cls-1" d="M1050.8,677.23v-2H991.05v2Z"/><path class="cls-1" d="M927.28,677.23v-2H867.53v2Z"/><path class="cls-1" d="M371.49,677.2v-2H311.74v2Z"/><path class="cls-1" d="M989.06,677.23v-2H929.3v2Z"/><path class="cls-1" d="M62.74,677.2v-2H3v2Z"/><path class="cls-1" d="M1236.06,677.23v-2h-59.75v2Z"/><path class="cls-1" d="M742,677.23v-2H682.27v2Z"/><path class="cls-1" d="M433.27,677.2v-2H373.52v2Z"/><path class="cls-1" d="M248,677.2v-2H188.26v2Z"/><path class="cls-1" d="M865.54,677.23v-2H805.79v2Z"/><path class="cls-1" d="M1174.29,677.23v-2h-59.75v2Z"/><path class="cls-1" d="M556.76,677.2v-2H497v2Z"/><path class="cls-1" d="M803.76,677.23v-2H744v2Z"/><path class="cls-1" d="M1112.55,677.23v-2h-59.76v2Z"/><path class="cls-1" d="M1421.3,677.23v-2h-59.76v2Z"/><path class="cls-1" d="M680.28,677.2v-2H620.53v2Z"/><path class="cls-1" d="M1359.55,677.23v-2H1299.8v2Z"/><path class="cls-1" d="M618.53,677.2v-2H558.78v2Z"/><path class="cls-1" d="M1422.29,677.23v-2h-1v2Z"/><path class="cls-1" d="M680.28,615.73v-2H620.53v2Z"/><path class="cls-1" d="M989.06,615.73v-2H929.3v2Z"/><path class="cls-1" d="M618.53,615.73v-2H558.78v2Z"/><path class="cls-1" d="M62.74,615.73v-2H3v2Z"/><path class="cls-1" d="M1174.29,615.73v-2h-59.75v2Z"/><path class="cls-1" d="M124.49,615.73v-2H64.74v2Z"/><path class="cls-1" d="M927.28,615.73v-2H867.53v2Z"/><path class="cls-1" d="M1050.8,615.73v-2H991.05v2Z"/><path class="cls-1" d="M433.27,615.73v-2H373.52v2Z"/><path class="cls-1" d="M1112.55,615.73v-2h-59.76v2Z"/><path class="cls-1" d="M248,615.73v-2H188.26v2Z"/><path class="cls-1" d="M865.54,615.73v-2H805.79v2Z"/><path class="cls-1" d="M1421.3,615.73v-2h-59.76v2Z"/><path class="cls-1" d="M742,615.73v-2H682.27v2Z"/><path class="cls-1" d="M186.23,615.73v-2H126.48v2Z"/><path class="cls-1" d="M309.75,615.73v-2H250v2Z"/><path class="cls-1" d="M1359.55,615.73v-2H1299.8v2Z"/><path class="cls-1" d="M495,615.73v-2H435.26v2Z"/><path class="cls-1" d="M371.49,615.73v-2H311.74v2Z"/><path class="cls-1" d="M1236.06,615.73v-2h-59.75v2Z"/><path class="cls-1" d="M556.76,615.73v-2H497v2Z"/><path class="cls-1" d="M803.76,615.73v-2H744v2Z"/><path class="cls-1" d="M1297.81,615.73v-2h-59.75v2Z"/><path class="cls-1" d="M1422.29,615.73v-2h-1v2Z"/><path class="cls-1" d="M1297.81,554.27v-2h-59.75v2Z"/><path class="cls-1" d="M309.75,554.27v-2H250v2Z"/><path class="cls-1" d="M742,554.27v-2H682.27v2Z"/><path class="cls-1" d="M556.76,554.27v-2H497v2Z"/><path class="cls-1" d="M62.74,554.27v-2H3v2Z"/><path class="cls-1" d="M618.53,554.27v-2H558.78v2Z"/><path class="cls-1" d="M680.28,554.27v-2H620.53v2Z"/><path class="cls-1" d="M186.23,554.27v-2H126.48v2Z"/><path class="cls-1" d="M865.54,554.27v-2H805.79v2Z"/><path class="cls-1" d="M495,554.27v-2H435.26v2Z"/><path class="cls-1" d="M1359.55,554.27v-2H1299.8v2Z"/><path class="cls-1" d="M1112.55,554.27v-2h-59.76v2Z"/><path class="cls-1" d="M433.27,554.27v-2H373.52v2Z"/><path class="cls-1" d="M1421.3,554.27v-2h-59.76v2Z"/><path class="cls-1" d="M803.76,554.27v-2H744v2Z"/><path class="cls-1" d="M1174.29,554.27v-2h-59.75v2Z"/><path class="cls-1" d="M371.49,554.27v-2H311.74v2Z"/><path class="cls-1" d="M124.49,554.27v-2H64.74v2Z"/><path class="cls-1" d="M927.28,554.27v-2H867.53v2Z"/><path class="cls-1" d="M1236.06,554.27v-2h-59.75v2Z"/><path class="cls-1" d="M1050.8,554.27v-2H991.05v2Z"/><path class="cls-1" d="M989.06,554.27v-2H929.3v2Z"/><path class="cls-1" d="M248,554.27v-2H188.26v2Z"/><path class="cls-1" d="M1422.29,554.27v-2h-1v2Z"/><path class="cls-1" d="M1050.8,492.8v-2H991.05v2Z"/><path class="cls-1" d="M309.75,492.8v-2H250v2Z"/><path class="cls-1" d="M248,492.8v-2H188.25v2Z"/><path class="cls-1" d="M186.23,492.8v-2H126.48v2Z"/><path class="cls-1" d="M989.06,492.8v-2H929.3v2Z"/><path class="cls-1" d="M62.74,492.8v-2H3v2Z"/><path class="cls-1" d="M680.28,492.8v-2H620.52v2Z"/><path class="cls-1" d="M742,492.8v-2H682.27v2Z"/><path class="cls-1" d="M495,492.8v-2H435.26v2Z"/><path class="cls-1" d="M556.76,492.8v-2H497v2Z"/><path class="cls-1" d="M865.54,492.8v-2H805.79v2Z"/><path class="cls-1" d="M1112.55,492.8v-2h-59.76v2Z"/><path class="cls-1" d="M433.27,492.8v-2H373.52v2Z"/><path class="cls-1" d="M803.76,492.8v-2H744v2Z"/><path class="cls-1" d="M124.49,492.8v-2H64.74v2Z"/><path class="cls-1" d="M618.53,492.8v-2H558.78v2Z"/><path class="cls-1" d="M1421.3,492.8v-2h-59.76v2Z"/><path class="cls-1" d="M1236.06,492.8v-2h-59.75v2Z"/><path class="cls-1" d="M1359.55,492.8v-2H1299.8v2Z"/><path class="cls-1" d="M1174.29,492.8v-2h-59.75v2Z"/><path class="cls-1" d="M927.28,492.8v-2H867.53v2Z"/><path class="cls-1" d="M371.49,492.8v-2H311.74v2Z"/><path class="cls-1" d="M1297.81,492.8v-2h-59.75v2Z"/><path class="cls-1" d="M1422.29,492.8v-2h-1v2Z"/><path class="cls-1" d="M495,431.31v-2H435.26v2Z"/><path class="cls-1" d="M371.49,431.31v-2H311.74v2Z"/><path class="cls-1" d="M186.23,431.31v-2H126.48v2Z"/><path class="cls-1" d="M927.28,431.31v-2H867.53v2Z"/><path class="cls-1" d="M989.06,431.31v-2H929.3v2Z"/><path class="cls-1" d="M124.49,431.31v-2H64.74v2Z"/><path class="cls-1" d="M1174.29,431.31v-2h-59.75v2Z"/><path class="cls-1" d="M1359.55,431.31v-2H1299.8v2Z"/><path class="cls-1" d="M742,431.31v-2H682.27v2Z"/><path class="cls-1" d="M248,431.31v-2H188.25v2Z"/><path class="cls-1" d="M1112.55,431.31v-2h-59.76v2Z"/><path class="cls-1" d="M309.75,431.31v-2H250v2Z"/><path class="cls-1" d="M1236.06,431.31v-2h-59.75v2Z"/><path class="cls-1" d="M1297.81,431.31v-2h-59.75v2Z"/><path class="cls-1" d="M865.54,431.31v-2H805.79v2Z"/><path class="cls-1" d="M680.28,431.31v-2H620.53v2Z"/><path class="cls-1" d="M1050.8,431.31v-2H991.05v2Z"/><path class="cls-1" d="M62.74,431.31v-2H3v2Z"/><path class="cls-1" d="M1421.3,431.31v-2h-59.76v2Z"/><path class="cls-1" d="M556.76,431.31v-2H497v2Z"/><path class="cls-1" d="M803.76,431.31v-2H744v2Z"/><path class="cls-1" d="M433.27,431.31v-2H373.52v2Z"/><path class="cls-1" d="M618.53,431.31v-2H558.78v2Z"/><path class="cls-1" d="M1422.29,431.31v-2h-1v2Z"/><path class="cls-1" d="M618.53,369.85v-2H558.78v2Z"/><path class="cls-1" d="M680.28,369.85v-2H620.53v2Z"/><path class="cls-1" d="M1421.3,369.85v-2h-59.76v2Z"/><path class="cls-1" d="M62.74,369.85v-2H3v2Z"/><path class="cls-1" d="M1297.81,369.85v-2h-59.75v2Z"/><path class="cls-1" d="M1050.8,369.85v-2H991.05v2Z"/><path class="cls-1" d="M1236.06,369.85v-2h-59.75v2Z"/><path class="cls-1" d="M1359.55,369.85v-2H1299.8v2Z"/><path class="cls-1" d="M309.75,369.85v-2H250v2Z"/><path class="cls-1" d="M186.23,369.85v-2H126.48v2Z"/><path class="cls-1" d="M1174.29,369.85v-2h-59.75v2Z"/><path class="cls-1" d="M248,369.85v-2H188.25v2Z"/><path class="cls-1" d="M371.49,369.85v-2H311.74v2Z"/><path class="cls-1" d="M927.28,369.85v-2H867.53v2Z"/><path class="cls-1" d="M433.27,369.85v-2H373.52v2Z"/><path class="cls-1" d="M989.06,369.85v-2H929.3v2Z"/><path class="cls-1" d="M742,369.85v-2H682.27v2Z"/><path class="cls-1" d="M124.49,369.85v-2H64.74v2Z"/><path class="cls-1" d="M803.76,369.85v-2H744v2Z"/><path class="cls-1" d="M495,369.85v-2H435.26v2Z"/><path class="cls-1" d="M1112.55,369.85v-2h-59.76v2Z"/><path class="cls-1" d="M865.54,369.85v-2H805.79v2Z"/><path class="cls-1" d="M556.76,369.85v-2H497v2Z"/><path class="cls-1" d="M1422.29,369.85v-2h-1v2Z"/><path class="cls-1" d="M62.74,308.38v-2H3v2Z"/><path class="cls-1" d="M309.75,308.38v-2H250v2Z"/><path class="cls-1" d="M371.49,308.38v-2H311.74v2Z"/><path class="cls-1" d="M1112.55,308.38v-2h-59.76v2Z"/><path class="cls-1" d="M1236.06,308.38v-2h-59.75v2Z"/><path class="cls-1" d="M1050.8,308.38v-2H991.05v2Z"/><path class="cls-1" d="M433.27,308.38v-2H373.52v2Z"/><path class="cls-1" d="M803.77,308.38v-2H744v2Z"/><path class="cls-1" d="M186.23,308.38v-2H126.48v2Z"/><path class="cls-1" d="M1421.3,308.38v-2h-59.76v2Z"/><path class="cls-1" d="M248,308.38v-2H188.26v2Z"/><path class="cls-1" d="M989.06,308.38v-2H929.3v2Z"/><path class="cls-1" d="M1297.81,308.38v-2h-59.75v2Z"/><path class="cls-1" d="M865.54,308.38v-2H805.79v2Z"/><path class="cls-1" d="M618.53,308.38v-2H558.78v2Z"/><path class="cls-1" d="M1359.55,308.38v-2H1299.8v2Z"/><path class="cls-1" d="M742,308.38v-2H682.27v2Z"/><path class="cls-1" d="M1174.29,308.38v-2h-59.75v2Z"/><path class="cls-1" d="M680.28,308.38v-2H620.53v2Z"/><path class="cls-1" d="M927.28,308.38v-2H867.53v2Z"/><path class="cls-1" d="M124.49,308.38v-2H64.74v2Z"/><path class="cls-1" d="M1422.29,308.38v-2h-1v2Z"/><path class="cls-1" d="M680.28,246.89v-2H620.53v2Z"/><path class="cls-1" d="M1297.81,246.89v-2h-59.75v2Z"/><path class="cls-1" d="M248,246.89v-2H188.25v2Z"/><path class="cls-1" d="M556.76,246.89v-2H497v2Z"/><path class="cls-1" d="M865.54,246.89v-2H805.79v2Z"/><path class="cls-1" d="M618.53,246.89v-2H558.78v2Z"/><path class="cls-1" d="M309.75,246.89v-2H250v2Z"/><path class="cls-1" d="M803.76,246.89v-2H744v2Z"/><path class="cls-1" d="M1359.55,246.89v-2H1299.8v2Z"/><path class="cls-1" d="M742,246.89v-2H682.27v2Z"/><path class="cls-1" d="M927.28,246.89v-2H867.53v2Z"/><path class="cls-1" d="M1421.3,246.89v-2h-59.76v2Z"/><path class="cls-1" d="M433.27,246.89v-2H373.52v2Z"/><path class="cls-1" d="M989.06,246.89v-2H929.3v2Z"/><path class="cls-1" d="M495,246.89v-2H435.26v2Z"/><path class="cls-1" d="M1050.8,246.89v-2H991.05v2Z"/><path class="cls-1" d="M371.5,246.89v-2H311.74v2Z"/><path class="cls-1" d="M1174.29,246.89v-2h-59.75v2Z"/><path class="cls-1" d="M62.74,246.89v-2H3v2Z"/><path class="cls-1" d="M1236.06,246.89v-2h-59.75v2Z"/><path class="cls-1" d="M124.49,246.89v-2H64.74v2Z"/><path class="cls-1" d="M1112.55,246.89v-2h-59.76v2Z"/><path class="cls-1" d="M186.23,246.89v-2H126.48v2Z"/><path class="cls-1" d="M1422.29,246.89v-2h-1v2Z"/><path class="cls-1" d="M1050.8,185.42v-2H991.05v2Z"/><path class="cls-1" d="M1236.06,185.42v-2h-59.75v2Z"/><path class="cls-1" d="M927.28,185.42v-2H867.53v2Z"/><path class="cls-1" d="M865.54,185.42v-2H805.79v2Z"/><path class="cls-1" d="M989.06,185.42v-2H929.3v2Z"/><path class="cls-1" d="M1112.55,185.42v-2h-59.76v2Z"/><path class="cls-1" d="M371.49,185.42v-2H311.74v2Z"/><path class="cls-1" d="M433.27,185.42v-2H373.52v2Z"/><path class="cls-1" d="M1297.81,185.42v-2h-59.75v2Z"/><path class="cls-1" d="M495,185.42v-2H435.26v2Z"/><path class="cls-1" d="M248,185.42v-2H188.25v2Z"/><path class="cls-1" d="M186.23,185.42v-2H126.48v2Z"/><path class="cls-1" d="M1421.3,185.42v-2h-59.76v2Z"/><path class="cls-1" d="M1359.55,185.42v-2H1299.8v2Z"/><path class="cls-1" d="M803.76,185.42v-2H744v2Z"/><path class="cls-1" d="M1174.29,185.42v-2h-59.75v2Z"/><path class="cls-1" d="M124.49,185.42v-2H64.74v2Z"/><path class="cls-1" d="M62.74,185.42v-2H3v2Z"/><path class="cls-1" d="M556.76,185.42v-2H497v2Z"/><path class="cls-1" d="M309.75,185.42v-2H250v2Z"/><path class="cls-1" d="M618.53,185.42v-2H558.78v2Z"/><path class="cls-1" d="M680.28,185.42v-2H620.53v2Z"/><path class="cls-1" d="M742,185.42v-2H682.27v2Z"/><path class="cls-1" d="M1422.29,185.42v-2h-1v2Z"/><path class="cls-1" d="M989.06,124v-2H929.3v2Z"/><path class="cls-1" d="M1359.55,124v-2H1299.8v2Z"/><path class="cls-1" d="M495,123.93v-2H435.26v2Z"/><path class="cls-1" d="M186.23,123.93v-2H126.48v2Z"/><path class="cls-1" d="M371.5,123.93v-2H311.74v2Z"/><path class="cls-1" d="M309.75,123.93v-2H250v2Z"/><path class="cls-1" d="M556.76,123.93v-2H497v2Z"/><path class="cls-1" d="M1297.81,124v-2h-59.75v2Z"/><path class="cls-1" d="M1174.29,124v-2h-59.75v2Z"/><path class="cls-1" d="M1421.3,124v-2h-59.76v2Z"/><path class="cls-1" d="M742,124v-2H682.27v2Z"/><path class="cls-1" d="M1236.06,124v-2h-59.75v2Z"/><path class="cls-1" d="M124.49,123.93v-2H64.74v2Z"/><path class="cls-1" d="M248,123.93v-2H188.25v2Z"/><path class="cls-1" d="M1050.8,124v-2H991.05v2Z"/><path class="cls-1" d="M680.28,124v-2H620.53v2Z"/><path class="cls-1" d="M62.74,123.93v-2H3v2Z"/><path class="cls-1" d="M927.28,124v-2H867.53v2Z"/><path class="cls-1" d="M433.27,123.93v-2H373.52v2Z"/><path class="cls-1" d="M1112.55,124v-2h-59.76v2Z"/><path class="cls-1" d="M865.54,124v-2H805.79v2Z"/><path class="cls-1" d="M803.76,124v-2H744v2Z"/><path class="cls-1" d="M618.53,124v-2H558.78v2Z"/><path class="cls-1" d="M1422.29,124v-2h-1v2Z"/><path class="cls-1" d="M989.06,62.46v-2H929.3v2Z"/><path class="cls-1" d="M186.23,62.47v-2H126.48v2Z"/><path class="cls-1" d="M803.76,62.47v-2H744v2Z"/><path class="cls-1" d="M248,62.46v-2H188.25v2Z"/><path class="cls-1" d="M1174.29,62.46v-2h-59.75v2Z"/><path class="cls-1" d="M433.27,62.47v-2H373.52v2Z"/><path class="cls-1" d="M865.54,62.47v-2H805.79v2Z"/><path class="cls-1" d="M927.28,62.47v-2H867.53v2Z"/><path class="cls-1" d="M1236.06,62.47v-2h-59.75v2Z"/><path class="cls-1" d="M1050.8,62.47v-2H991.05v2Z"/><path class="cls-1" d="M1421.3,62.46v-2h-59.76v2Z"/><path class="cls-1" d="M371.49,62.46v-2H311.74v2Z"/><path class="cls-1" d="M309.75,62.47v-2H250v2Z"/><path class="cls-1" d="M680.28,62.46v-2H620.53v2Z"/><path class="cls-1" d="M742,62.47v-2H682.27v2Z"/><path class="cls-1" d="M556.76,62.46v-2H497v2Z"/><path class="cls-1" d="M618.53,62.46v-2H558.78v2Z"/><path class="cls-1" d="M62.74,62.46v-2H3v2Z"/><path class="cls-1" d="M1359.55,62.46v-2H1299.8v2Z"/><path class="cls-1" d="M1297.81,62.47v-2h-59.75v2Z"/><path class="cls-1" d="M495,62.47v-2H435.26v2Z"/><path class="cls-1" d="M124.49,62.46v-2H64.74v2Z"/><path class="cls-1" d="M1112.55,62.47v-2h-59.76v2Z"/><path class="cls-1" d="M1422.29,62.47v-2h-1v2Z"/><path class="cls-1" d="M1361.54,1044.05V984.58h-2v59.47Z"/><path class="cls-1" d="M1361.54,183.43V124h-2v59.47Z"/><path class="cls-1" d="M1361.54,552.28V492.8h-2v59.48Z"/><path class="cls-1" d="M1361.54,306.36V246.89h-2v59.47Z"/><path class="cls-1" d="M1361.54,613.74V554.27h-2v59.47Z"/><path class="cls-1" d="M1361.54,490.78V431.31h-2v59.47Z"/><path class="cls-1" d="M1361.54,736.67V677.2h-2v59.47Z"/><path class="cls-1" d="M1361.54,1105.51V1046h-2v59.47Z"/><path class="cls-1" d="M1361.54,675.2V615.73h-2V675.2Z"/><path class="cls-1" d="M1361.54,1167v-59.47h-2V1167Z"/><path class="cls-1" d="M1361.54,982.59V923.11h-2v59.48Z"/><path class="cls-1" d="M1361.54,429.32V369.85h-2v59.47Z"/><path class="cls-1" d="M1361.54,859.63V800.15h-2v59.48Z"/><path class="cls-1" d="M1361.54,60.47V1h-2V60.47Z"/><path class="cls-1" d="M1361.54,244.9V185.42h-2V244.9Z"/><path class="cls-1" d="M1361.54,921.09V861.62h-2v59.47Z"/><path class="cls-1" d="M1361.54,121.94V62.46h-2v59.48Z"/><path class="cls-1" d="M1361.54,367.86V308.38h-2v59.48Z"/><path class="cls-1" d="M1361.54,798.16V738.69h-2v59.47Z"/><path class="cls-1" d="M1361.54,1169v-2h-2v2Z"/><path class="cls-1" d="M1361.54,1107.54v-2h-2v2Z"/><path class="cls-1" d="M1361.54,1046v-2h-2v2Z"/><path class="cls-1" d="M1361.54,984.58v-2h-2v2Z"/><path class="cls-1" d="M1361.54,923.11v-2h-2v2Z"/><path class="cls-1" d="M1361.54,861.62v-2h-2v2Z"/><path class="cls-1" d="M1361.54,800.16v-2h-2v2Z"/><path class="cls-1" d="M1361.54,738.69v-2h-2v2Z"/><path class="cls-1" d="M1361.54,677.23v-2h-2v2Z"/><path class="cls-1" d="M1361.54,615.73v-2h-2v2Z"/><path class="cls-1" d="M1361.54,554.27v-2h-2v2Z"/><path class="cls-1" d="M1361.54,492.8v-2h-2v2Z"/><path class="cls-1" d="M1361.54,431.31v-2h-2v2Z"/><path class="cls-1" d="M1361.54,369.85v-2h-2v2Z"/><path class="cls-1" d="M1361.54,308.38v-2h-2v2Z"/><path class="cls-1" d="M1361.54,246.89v-2h-2v2Z"/><path class="cls-1" d="M1361.54,185.42v-2h-2v2Z"/><path class="cls-1" d="M1361.54,124v-2h-2v2Z"/><path class="cls-1" d="M1361.54,62.46v-2h-2v2Z"/><path class="cls-1" d="M1299.8,367.85V308.38h-2v59.47Z"/><path class="cls-1" d="M1299.8,1167v-59.47h-2V1167Z"/><path class="cls-1" d="M1299.8,490.78V431.31h-2v59.47Z"/><path class="cls-1" d="M1299.8,183.43V124h-2v59.47Z"/><path class="cls-1" d="M1299.8,244.9V185.42h-2V244.9Z"/><path class="cls-1" d="M1299.8,429.32V369.85h-2v59.47Z"/><path class="cls-1" d="M1299.8,121.94V62.46h-2v59.48Z"/><path class="cls-1" d="M1299.8,60.47V1h-2V60.47Z"/><path class="cls-1" d="M1299.8,798.16V738.69h-2v59.47Z"/><path class="cls-1" d="M1299.8,675.21V615.73h-2v59.48Z"/><path class="cls-1" d="M1299.8,982.59V923.11h-2v59.48Z"/><path class="cls-1" d="M1299.8,921.09V861.62h-2v59.47Z"/><path class="cls-1" d="M1299.8,859.63V800.16h-2v59.47Z"/><path class="cls-1" d="M1299.8,613.74V554.27h-2v59.47Z"/><path class="cls-1" d="M1299.8,736.67V677.2h-2v59.47Z"/><path class="cls-1" d="M1299.8,306.36V246.89h-2v59.47Z"/><path class="cls-1" d="M1299.8,1105.51V1046h-2v59.47Z"/><path class="cls-1" d="M1299.8,1044.05V984.58h-2v59.47Z"/><path class="cls-1" d="M1299.8,552.28V492.8h-2v59.48Z"/><path class="cls-1" d="M1299.8,1169v-2h-2v2Z"/><path class="cls-1" d="M1299.8,1107.54v-2h-2v2Z"/><path class="cls-1" d="M1299.8,1046v-2h-2v2Z"/><path class="cls-1" d="M1299.8,984.58v-2h-2v2Z"/><path class="cls-1" d="M1299.8,923.11v-2h-2v2Z"/><path class="cls-1" d="M1299.8,861.62v-2h-2v2Z"/><path class="cls-1" d="M1299.8,800.15v-2h-2v2Z"/><path class="cls-1" d="M1299.8,738.69v-2h-2v2Z"/><path class="cls-1" d="M1299.8,677.23v-2h-2v2Z"/><path class="cls-1" d="M1299.8,615.73v-2h-2v2Z"/><path class="cls-1" d="M1299.8,554.27v-2h-2v2Z"/><path class="cls-1" d="M1299.8,492.8v-2h-2v2Z"/><path class="cls-1" d="M1299.8,431.31v-2h-2v2Z"/><path class="cls-1" d="M1299.8,369.85v-2h-2v2Z"/><path class="cls-1" d="M1299.8,308.38v-2h-2v2Z"/><path class="cls-1" d="M1299.8,246.89v-2h-2v2Z"/><path class="cls-1" d="M1299.8,185.42v-2h-2v2Z"/><path class="cls-1" d="M1299.8,124v-2h-2v2Z"/><path class="cls-1" d="M1299.8,62.47v-2h-2v2Z"/><path class="cls-1" d="M1238.06,613.74V554.27h-2v59.47Z"/><path class="cls-1" d="M1238.06,244.9V185.42h-2V244.9Z"/><path class="cls-1" d="M1238.06,490.78V431.31h-2v59.47Z"/><path class="cls-1" d="M1238.06,675.2V615.73h-2V675.2Z"/><path class="cls-1" d="M1238.06,183.43V124h-2v59.47Z"/><path class="cls-1" d="M1238.06,60.47V1h-2V60.47Z"/><path class="cls-1" d="M1238.06,736.67V677.2h-2v59.47Z"/><path class="cls-1" d="M1238.06,367.85V308.38h-2v59.47Z"/><path class="cls-1" d="M1238.06,552.28V492.8h-2v59.48Z"/><path class="cls-1" d="M1238.06,429.32V369.85h-2v59.47Z"/><path class="cls-1" d="M1238.06,982.59V923.11h-2v59.48Z"/><path class="cls-1" d="M1238.06,921.09V861.62h-2v59.47Z"/><path class="cls-1" d="M1238.06,306.36V246.89h-2v59.47Z"/><path class="cls-1" d="M1238.06,1044.05V984.58h-2v59.47Z"/><path class="cls-1" d="M1238.06,798.16V738.69h-2v59.47Z"/><path class="cls-1" d="M1238.06,859.63V800.16h-2v59.47Z"/><path class="cls-1" d="M1238.06,121.94V62.46h-2v59.48Z"/><path class="cls-1" d="M1238.06,1105.51V1046h-2v59.47Z"/><path class="cls-1" d="M1238.06,1167v-59.47h-2V1167Z"/><path class="cls-1" d="M1238.06,1169v-2h-2v2Z"/><path class="cls-1" d="M1238.06,1107.54v-2h-2v2Z"/><path class="cls-1" d="M1238.06,1046v-2h-2v2Z"/><path class="cls-1" d="M1238.06,984.58v-2h-2v2Z"/><path class="cls-1" d="M1238.06,923.11v-2h-2v2Z"/><path class="cls-1" d="M1238.06,861.62v-2h-2v2Z"/><path class="cls-1" d="M1238.06,800.15v-2h-2v2Z"/><path class="cls-1" d="M1238.06,738.69v-2h-2v2Z"/><path class="cls-1" d="M1238.06,677.23v-2h-2v2Z"/><path class="cls-1" d="M1238.06,615.73v-2h-2v2Z"/><path class="cls-1" d="M1238.06,554.27v-2h-2v2Z"/><path class="cls-1" d="M1238.06,492.8v-2h-2v2Z"/><path class="cls-1" d="M1238.06,431.31v-2h-2v2Z"/><path class="cls-1" d="M1238.06,369.85v-2h-2v2Z"/><path class="cls-1" d="M1238.06,308.38v-2h-2v2Z"/><path class="cls-1" d="M1238.06,246.89v-2h-2v2Z"/><path class="cls-1" d="M1238.06,185.42v-2h-2v2Z"/><path class="cls-1" d="M1238.06,124v-2h-2v2Z"/><path class="cls-1" d="M1238.06,62.46v-2h-2v2Z"/><path class="cls-1" d="M1176.28,736.67V677.2h-2v59.47Z"/><path class="cls-1" d="M1176.28,675.2V615.73h-2V675.2Z"/><path class="cls-1" d="M1176.28,613.74V554.27h-2v59.47Z"/><path class="cls-1" d="M1176.28,552.28V492.8h-2v59.48Z"/><path class="cls-1" d="M1176.28,1105.51V1046h-2v59.47Z"/><path class="cls-1" d="M1176.28,60.47V1h-2V60.47Z"/><path class="cls-1" d="M1176.28,982.59V923.11h-2v59.48Z"/><path class="cls-1" d="M1176.28,798.16V738.69h-2v59.47Z"/><path class="cls-1" d="M1176.28,859.63V800.16h-2v59.47Z"/><path class="cls-1" d="M1176.28,1167v-59.47h-2V1167Z"/><path class="cls-1" d="M1176.28,921.09V861.62h-2v59.47Z"/><path class="cls-1" d="M1176.28,1044.05V984.58h-2v59.47Z"/><path class="cls-1" d="M1176.28,244.9V185.42h-2V244.9Z"/><path class="cls-1" d="M1176.28,306.36V246.89h-2v59.47Z"/><path class="cls-1" d="M1176.28,183.43V124h-2v59.47Z"/><path class="cls-1" d="M1176.28,121.94V62.46h-2v59.48Z"/><path class="cls-1" d="M1176.28,429.32V369.85h-2v59.47Z"/><path class="cls-1" d="M1176.28,490.78V431.31h-2v59.47Z"/><path class="cls-1" d="M1176.28,367.85V308.38h-2v59.47Z"/><path class="cls-1" d="M1176.28,1169v-2h-2v2Z"/><path class="cls-1" d="M1176.28,1107.54v-2h-2v2Z"/><path class="cls-1" d="M1176.28,1046v-2h-2v2Z"/><path class="cls-1" d="M1176.28,984.58v-2h-2v2Z"/><path class="cls-1" d="M1176.28,923.11v-2h-2v2Z"/><path class="cls-1" d="M1176.28,861.62v-2h-2v2Z"/><path class="cls-1" d="M1176.28,800.15v-2h-2v2Z"/><path class="cls-1" d="M1176.28,738.69v-2h-2v2Z"/><path class="cls-1" d="M1176.28,677.23v-2h-2v2Z"/><path class="cls-1" d="M1176.28,615.73v-2h-2v2Z"/><path class="cls-1" d="M1176.28,554.27v-2h-2v2Z"/><path class="cls-1" d="M1176.28,492.8v-2h-2v2Z"/><path class="cls-1" d="M1176.28,431.31v-2h-2v2Z"/><path class="cls-1" d="M1176.28,369.85v-2h-2v2Z"/><path class="cls-1" d="M1176.28,308.38v-2h-2v2Z"/><path class="cls-1" d="M1176.28,246.89v-2h-2v2Z"/><path class="cls-1" d="M1176.28,185.42v-2h-2v2Z"/><path class="cls-1" d="M1176.28,124v-2h-2v2Z"/><path class="cls-1" d="M1176.28,62.46v-2h-2v2Z"/><path class="cls-1" d="M1114.54,552.28V492.8h-2v59.48Z"/><path class="cls-1" d="M1114.54,1044.05V984.58h-2v59.47Z"/><path class="cls-1" d="M1114.54,306.36V246.89h-2v59.47Z"/><path class="cls-1" d="M1114.54,429.32V369.85h-2v59.47Z"/><path class="cls-1" d="M1114.54,490.78V431.31h-2v59.47Z"/><path class="cls-1" d="M1114.54,613.74V554.27h-2v59.47Z"/><path class="cls-1" d="M1114.54,798.16V738.69h-2v59.47Z"/><path class="cls-1" d="M1114.54,244.9V185.42h-2V244.9Z"/><path class="cls-1" d="M1114.54,736.67V677.2h-2v59.47Z"/><path class="cls-1" d="M1114.54,859.63V800.16h-2v59.47Z"/><path class="cls-1" d="M1114.54,675.21V615.73h-2v59.48Z"/><path class="cls-1" d="M1114.54,982.59V923.11h-2v59.48Z"/><path class="cls-1" d="M1114.54,1167v-59.47h-2V1167Z"/><path class="cls-1" d="M1114.54,921.09V861.62h-2v59.47Z"/><path class="cls-1" d="M1114.54,60.47V1h-2V60.47Z"/><path class="cls-1" d="M1114.54,121.94V62.46h-2v59.48Z"/><path class="cls-1" d="M1114.54,1105.51V1046h-2v59.47Z"/><path class="cls-1" d="M1114.54,183.43V124h-2v59.47Z"/><path class="cls-1" d="M1114.54,367.85V308.38h-2v59.47Z"/><path class="cls-1" d="M1114.54,1169v-2h-2v2Z"/><path class="cls-1" d="M1114.54,1107.53v-2h-2v2Z"/><path class="cls-1" d="M1114.54,1046v-2h-2v2Z"/><path class="cls-1" d="M1114.54,984.58v-2h-2v2Z"/><path class="cls-1" d="M1114.54,923.11v-2h-2v2Z"/><path class="cls-1" d="M1114.54,861.62v-2h-2v2Z"/><path class="cls-1" d="M1114.54,800.15v-2h-2v2Z"/><path class="cls-1" d="M1114.54,738.69v-2h-2v2Z"/><path class="cls-1" d="M1114.54,677.23v-2h-2v2Z"/><path class="cls-1" d="M1114.54,615.73v-2h-2v2Z"/><path class="cls-1" d="M1114.54,554.27v-2h-2v2Z"/><path class="cls-1" d="M1114.54,492.8v-2h-2v2Z"/><path class="cls-1" d="M1114.54,431.31v-2h-2v2Z"/><path class="cls-1" d="M1114.54,369.85v-2h-2v2Z"/><path class="cls-1" d="M1114.54,308.38v-2h-2v2Z"/><path class="cls-1" d="M1114.54,246.89v-2h-2v2Z"/><path class="cls-1" d="M1114.54,185.42v-2h-2v2Z"/><path class="cls-1" d="M1114.54,124v-2h-2v2Z"/><path class="cls-1" d="M1114.54,62.46v-2h-2v2Z"/><path class="cls-1" d="M1052.79,429.32V369.85h-2v59.47Z"/><path class="cls-1" d="M1052.79,675.21V615.73h-2v59.48Z"/><path class="cls-1" d="M1052.79,798.16V738.69h-2v59.47Z"/><path class="cls-1" d="M1052.79,736.67V677.2h-2v59.47Z"/><path class="cls-1" d="M1052.79,306.36V246.89h-2v59.47Z"/><path class="cls-1" d="M1052.79,60.47V1h-2V60.47Z"/><path class="cls-1" d="M1052.79,552.28V492.8h-2v59.48Z"/><path class="cls-1" d="M1052.79,183.43V124h-2v59.47Z"/><path class="cls-1" d="M1052.79,121.94V62.46h-2v59.48Z"/><path class="cls-1" d="M1052.79,244.9V185.42h-2V244.9Z"/><path class="cls-1" d="M1052.79,1167v-59.47h-2V1167Z"/><path class="cls-1" d="M1052.79,613.74V554.27h-2v59.47Z"/><path class="cls-1" d="M1052.79,367.85V308.38h-2v59.47Z"/><path class="cls-1" d="M1052.79,1044.05V984.58h-2v59.47Z"/><path class="cls-1" d="M1052.79,921.09V861.62h-2v59.47Z"/><path class="cls-1" d="M1052.79,982.59V923.11h-2v59.48Z"/><path class="cls-1" d="M1052.79,1105.51V1046h-2v59.47Z"/><path class="cls-1" d="M1052.79,859.63V800.15h-2v59.48Z"/><path class="cls-1" d="M1052.79,490.78V431.31h-2v59.47Z"/><path class="cls-1" d="M1052.79,1169v-2h-2v2Z"/><path class="cls-1" d="M1052.79,1107.54v-2h-2v2Z"/><path class="cls-1" d="M1052.79,1046v-2h-2v2Z"/><path class="cls-1" d="M1052.79,984.58v-2h-2v2Z"/><path class="cls-1" d="M1052.79,923.11v-2h-2v2Z"/><path class="cls-1" d="M1052.79,861.62v-2h-2v2Z"/><path class="cls-1" d="M1052.79,800.16v-2h-2v2Z"/><path class="cls-1" d="M1052.79,738.69v-2h-2v2Z"/><path class="cls-1" d="M1052.79,677.23v-2h-2v2Z"/><path class="cls-1" d="M1052.79,615.73v-2h-2v2Z"/><path class="cls-1" d="M1052.79,554.27v-2h-2v2Z"/><path class="cls-1" d="M1052.79,492.8v-2h-2v2Z"/><path class="cls-1" d="M1052.79,431.31v-2h-2v2Z"/><path class="cls-1" d="M1052.79,369.85v-2h-2v2Z"/><path class="cls-1" d="M1052.79,308.38v-2h-2v2Z"/><path class="cls-1" d="M1052.79,246.89v-2h-2v2Z"/><path class="cls-1" d="M1052.79,185.42v-2h-2v2Z"/><path class="cls-1" d="M1052.79,124v-2h-2v2Z"/><path class="cls-1" d="M1052.79,62.46v-2h-2v2Z"/><path class="cls-1" d="M991.05,736.67V677.2h-2v59.47Z"/><path class="cls-1" d="M991.05,613.74V554.27h-2v59.47Z"/><path class="cls-1" d="M991.05,675.21V615.73h-2v59.48Z"/><path class="cls-1" d="M991.05,921.09V861.62h-2v59.47Z"/><path class="cls-1" d="M991.05,982.59V923.11h-2v59.48Z"/><path class="cls-1" d="M991.05,798.16V738.69h-2v59.47Z"/><path class="cls-1" d="M991.05,859.63V800.16h-2v59.47Z"/><path class="cls-1" d="M991.05,183.43V124h-2v59.47Z"/><path class="cls-1" d="M991.05,1105.51V1046h-2v59.47Z"/><path class="cls-1" d="M991.05,121.94V62.46h-2v59.48Z"/><path class="cls-1" d="M991.05,60.47V1h-2V60.47Z"/><path class="cls-1" d="M991.05,429.32V369.85h-2v59.47Z"/><path class="cls-1" d="M991.05,490.78V431.31h-2v59.47Z"/><path class="cls-1" d="M991.05,552.28V492.8h-2v59.48Z"/><path class="cls-1" d="M991.05,244.9V185.42h-2V244.9Z"/><path class="cls-1" d="M991.05,367.85V308.38h-2v59.47Z"/><path class="cls-1" d="M991.05,306.36V246.89h-2v59.47Z"/><path class="cls-1" d="M991.05,1044.05V984.58h-2v59.47Z"/><path class="cls-1" d="M991.05,1167v-59.47h-2V1167Z"/><path class="cls-1" d="M991.05,1169v-2h-2v2Z"/><path class="cls-1" d="M991.05,1107.54v-2h-2v2Z"/><path class="cls-1" d="M991.05,1046v-2h-2v2Z"/><path class="cls-1" d="M991.05,984.58v-2h-2v2Z"/><path class="cls-1" d="M991.05,923.11v-2h-2v2Z"/><path class="cls-1" d="M991.05,861.62v-2h-2v2Z"/><path class="cls-1" d="M991.05,800.16v-2h-2v2Z"/><path class="cls-1" d="M991.05,738.69v-2h-2v2Z"/><path class="cls-1" d="M991.05,677.23v-2h-2v2Z"/><path class="cls-1" d="M991.05,615.73v-2h-2v2Z"/><path class="cls-1" d="M991.05,554.27v-2h-2v2Z"/><path class="cls-1" d="M991.05,492.8v-2h-2v2Z"/><path class="cls-1" d="M991.05,431.31v-2h-2v2Z"/><path class="cls-1" d="M991.05,369.85v-2h-2v2Z"/><path class="cls-1" d="M991.05,308.38v-2h-2v2Z"/><path class="cls-1" d="M991.05,246.89v-2h-2v2Z"/><path class="cls-1" d="M991.05,185.42v-2h-2v2Z"/><path class="cls-1" d="M991.05,124v-2h-2v2Z"/><path class="cls-1" d="M991.05,62.46v-2h-2v2Z"/><path class="cls-1" d="M929.28,1105.51V1046h-2v59.47Z"/><path class="cls-1" d="M929.28,798.16V738.69h-2v59.47Z"/><path class="cls-1" d="M929.28,60.47V1h-2V60.47Z"/><path class="cls-1" d="M929.28,121.94V62.46h-2v59.48Z"/><path class="cls-1" d="M929.28,490.78V431.31h-2v59.47Z"/><path class="cls-1" d="M929.28,183.43V124h-2v59.47Z"/><path class="cls-1" d="M929.28,367.85V308.38h-2v59.47Z"/><path class="cls-1" d="M929.28,675.21V615.73h-2v59.48Z"/><path class="cls-1" d="M929.28,306.36V246.89h-2v59.47Z"/><path class="cls-1" d="M929.28,244.9V185.42h-2V244.9Z"/><path class="cls-1" d="M929.28,429.32V369.85h-2v59.47Z"/><path class="cls-1" d="M929.28,736.67V677.2h-2v59.47Z"/><path class="cls-1" d="M929.28,982.59V923.11h-2v59.48Z"/><path class="cls-1" d="M929.28,613.74V554.27h-2v59.47Z"/><path class="cls-1" d="M929.28,859.63V800.16h-2v59.47Z"/><path class="cls-1" d="M929.28,1167v-59.47h-2V1167Z"/><path class="cls-1" d="M929.28,921.09V861.62h-2v59.47Z"/><path class="cls-1" d="M929.28,552.28V492.8h-2v59.48Z"/><path class="cls-1" d="M929.28,1044.05V984.58h-2v59.47Z"/><path class="cls-1" d="M929.28,1169v-2h-2v2Z"/><path class="cls-1" d="M929.28,1107.53v-2h-2v2Z"/><path class="cls-1" d="M929.28,1046v-2h-2v2Z"/><path class="cls-1" d="M929.28,984.58v-2h-2v2Z"/><path class="cls-1" d="M929.28,923.11v-2h-2v2Z"/><path class="cls-1" d="M929.28,861.62v-2h-2v2Z"/><path class="cls-1" d="M929.28,800.15v-2h-2v2Z"/><path class="cls-1" d="M929.28,738.69v-2h-2v2Z"/><path class="cls-1" d="M929.28,677.23v-2h-2v2Z"/><path class="cls-1" d="M929.28,615.73v-2h-2v2Z"/><path class="cls-1" d="M929.28,554.27v-2h-2v2Z"/><path class="cls-1" d="M929.28,492.8v-2h-2v2Z"/><path class="cls-1" d="M929.28,431.31v-2h-2v2Z"/><path class="cls-1" d="M929.28,369.85v-2h-2v2Z"/><path class="cls-1" d="M929.28,308.38v-2h-2v2Z"/><path class="cls-1" d="M929.28,246.89v-2h-2v2Z"/><path class="cls-1" d="M929.28,185.42v-2h-2v2Z"/><path class="cls-1" d="M929.28,124v-2h-2v2Z"/><path class="cls-1" d="M929.28,62.47v-2h-2v2Z"/><path class="cls-1" d="M867.53,429.32V369.85h-2v59.47Z"/><path class="cls-1" d="M867.53,921.09V861.62h-2v59.47Z"/><path class="cls-1" d="M867.53,367.85V308.38h-2v59.47Z"/><path class="cls-1" d="M867.53,736.67V677.2h-2v59.47Z"/><path class="cls-1" d="M867.53,613.74V554.27h-2v59.47Z"/><path class="cls-1" d="M867.53,60.47V1h-2V60.47Z"/><path class="cls-1" d="M867.53,244.9V185.42h-2V244.9Z"/><path class="cls-1" d="M867.53,306.36V246.89h-2v59.47Z"/><path class="cls-1" d="M867.53,183.43V124h-2v59.47Z"/><path class="cls-1" d="M867.53,552.28V492.8h-2v59.48Z"/><path class="cls-1" d="M867.53,121.94V62.46h-2v59.48Z"/><path class="cls-1" d="M867.53,490.78V431.31h-2v59.47Z"/><path class="cls-1" d="M867.53,982.59V923.11h-2v59.48Z"/><path class="cls-1" d="M867.53,859.63V800.15h-2v59.48Z"/><path class="cls-1" d="M867.53,675.21V615.73h-2v59.48Z"/><path class="cls-1" d="M867.53,1105.51V1046h-2v59.47Z"/><path class="cls-1" d="M867.53,1044.05V984.58h-2v59.47Z"/><path class="cls-1" d="M867.53,798.16V738.69h-2v59.47Z"/><path class="cls-1" d="M867.53,1167v-59.47h-2V1167Z"/><path class="cls-1" d="M867.53,1169v-2h-2v2Z"/><path class="cls-1" d="M867.53,1107.54v-2h-2v2Z"/><path class="cls-1" d="M867.53,1046v-2h-2v2Z"/><path class="cls-1" d="M867.53,984.58v-2h-2v2Z"/><path class="cls-1" d="M867.53,923.11v-2h-2v2Z"/><path class="cls-1" d="M867.53,861.62v-2h-2v2Z"/><path class="cls-1" d="M867.53,800.16v-2h-2v2Z"/><path class="cls-1" d="M867.53,738.69v-2h-2v2Z"/><path class="cls-1" d="M867.53,677.23v-2h-2v2Z"/><path class="cls-1" d="M867.53,615.73v-2h-2v2Z"/><path class="cls-1" d="M867.53,554.27v-2h-2v2Z"/><path class="cls-1" d="M867.53,492.8v-2h-2v2Z"/><path class="cls-1" d="M867.53,431.31v-2h-2v2Z"/><path class="cls-1" d="M867.53,369.85v-2h-2v2Z"/><path class="cls-1" d="M867.53,308.38v-2h-2v2Z"/><path class="cls-1" d="M867.53,246.89v-2h-2v2Z"/><path class="cls-1" d="M867.53,185.42v-2h-2v2Z"/><path class="cls-1" d="M867.53,124v-2h-2v2Z"/><path class="cls-1" d="M867.53,62.46v-2h-2v2Z"/><path class="cls-1" d="M805.76,367.85V308.38h-2v59.47Z"/><path class="cls-1" d="M805.76,306.36V246.89h-2v59.47Z"/><path class="cls-1" d="M805.76,244.9V185.42h-2V244.9Z"/><path class="cls-1" d="M805.76,429.32V369.85h-2v59.47Z"/><path class="cls-1" d="M805.76,982.59V923.11h-2v59.48Z"/><path class="cls-1" d="M805.76,490.78V431.31h-2v59.47Z"/><path class="cls-1" d="M805.76,183.43V124h-2v59.47Z"/><path class="cls-1" d="M805.76,60.47V1h-2V60.47Z"/><path class="cls-1" d="M805.76,121.94V62.46h-2v59.48Z"/><path class="cls-1" d="M805.76,798.16V738.69h-2v59.47Z"/><path class="cls-1" d="M805.76,1167v-59.47h-2V1167Z"/><path class="cls-1" d="M805.76,1105.51V1046h-2v59.47Z"/><path class="cls-1" d="M805.76,552.28V492.8h-2v59.48Z"/><path class="cls-1" d="M805.76,736.67V677.2h-2v59.47Z"/><path class="cls-1" d="M805.76,859.63V800.15h-2v59.48Z"/><path class="cls-1" d="M805.76,675.21V615.73h-2v59.48Z"/><path class="cls-1" d="M805.76,613.74V554.27h-2v59.47Z"/><path class="cls-1" d="M805.76,921.09V861.62h-2v59.47Z"/><path class="cls-1" d="M805.76,1044.05V984.58h-2v59.47Z"/><path class="cls-1" d="M805.76,1169v-2h-2v2Z"/><path class="cls-1" d="M805.76,1107.54v-2h-2v2Z"/><path class="cls-1" d="M805.76,1046v-2h-2v2Z"/><path class="cls-1" d="M805.76,984.58v-2h-2v2Z"/><path class="cls-1" d="M805.76,923.11v-2h-2v2Z"/><path class="cls-1" d="M805.76,861.62v-2h-2v2Z"/><path class="cls-1" d="M805.76,800.16v-2h-2v2Z"/><path class="cls-1" d="M805.76,738.69v-2h-2v2Z"/><path class="cls-1" d="M805.76,677.23v-2h-2v2Z"/><path class="cls-1" d="M805.76,615.73v-2h-2v2Z"/><path class="cls-1" d="M805.76,554.27v-2h-2v2Z"/><path class="cls-1" d="M805.76,492.8v-2h-2v2Z"/><path class="cls-1" d="M805.76,431.31v-2h-2v2Z"/><path class="cls-1" d="M805.76,369.85v-2h-2v2Z"/><path class="cls-1" d="M805.76,308.38v-2h-2v2Z"/><path class="cls-1" d="M805.76,246.89v-2h-2v2Z"/><path class="cls-1" d="M805.76,185.42v-2h-2v2Z"/><path class="cls-1" d="M805.76,124v-2h-2v2Z"/><path class="cls-1" d="M805.76,62.46v-2h-2v2Z"/><path class="cls-1" d="M744,1167v-59.47h-2V1167Z"/><path class="cls-1" d="M744,121.94V62.46h-2v59.48Z"/><path class="cls-1" d="M744,60.47V1h-2V60.47Z"/><path class="cls-1" d="M744,798.16V738.69h-2v59.47Z"/><path class="cls-1" d="M744,244.9V185.42h-2V244.9Z"/><path class="cls-1" d="M744,921.09V861.62h-2v59.47Z"/><path class="cls-1" d="M744,1044.05V984.58h-2v59.47Z"/><path class="cls-1" d="M744,736.67V677.2h-2v59.47Z"/><path class="cls-1" d="M744,429.32V369.85h-2v59.47Z"/><path class="cls-1" d="M744,1105.51V1046h-2v59.47Z"/><path class="cls-1" d="M744,613.74V554.27h-2v59.47Z"/><path class="cls-1" d="M744,675.2V615.73h-2V675.2Z"/><path class="cls-1" d="M744,552.28V492.8h-2v59.48Z"/><path class="cls-1" d="M744,982.59V923.11h-2v59.48Z"/><path class="cls-1" d="M744,490.78V431.31h-2v59.47Z"/><path class="cls-1" d="M744,367.85V308.38h-2v59.47Z"/><path class="cls-1" d="M744,183.43V124h-2v59.47Z"/><path class="cls-1" d="M744,306.36V246.89h-2v59.47Z"/><path class="cls-1" d="M744,859.63V800.16h-2v59.47Z"/><path class="cls-1" d="M744,1169v-2h-2v2Z"/><path class="cls-1" d="M744,1107.54v-2h-2v2Z"/><path class="cls-1" d="M744,1046v-2h-2v2Z"/><path class="cls-1" d="M744,984.58v-2h-2v2Z"/><path class="cls-1" d="M744,923.11v-2h-2v2Z"/><path class="cls-1" d="M744,861.62v-2h-2v2Z"/><path class="cls-1" d="M744,800.15v-2h-2v2Z"/><path class="cls-1" d="M744,738.69v-2h-2v2Z"/><path class="cls-1" d="M744,677.23v-2h-2v2Z"/><path class="cls-1" d="M744,615.73v-2h-2v2Z"/><path class="cls-1" d="M744,554.27v-2h-2v2Z"/><path class="cls-1" d="M744,492.8v-2h-2v2Z"/><path class="cls-1" d="M744,431.31v-2h-2v2Z"/><path class="cls-1" d="M744,369.85v-2h-2v2Z"/><path class="cls-1" d="M744,308.38v-2h-2v2Z"/><path class="cls-1" d="M744,246.89v-2h-2v2Z"/><path class="cls-1" d="M744,185.42v-2h-2v2Z"/><path class="cls-1" d="M744,124v-2h-2v2Z"/><path class="cls-1" d="M744,62.47v-2h-2v2Z"/><path class="cls-1" d="M682.27,121.94V62.46h-2v59.48Z"/><path class="cls-1" d="M682.27,675.2V615.73h-2V675.2Z"/><path class="cls-1" d="M682.27,306.36V246.89h-2v59.47Z"/><path class="cls-1" d="M682.27,244.9V185.42h-2V244.9Z"/><path class="cls-1" d="M682.27,736.7V677.23h-2V736.7Z"/><path class="cls-1" d="M682.27,982.59V923.11h-2v59.48Z"/><path class="cls-1" d="M682.27,367.85V308.38h-2v59.47Z"/><path class="cls-1" d="M682.27,429.32V369.85h-2v59.47Z"/><path class="cls-1" d="M682.27,1105.51V1046h-2v59.47Z"/><path class="cls-1" d="M682.27,1167v-59.47h-2V1167Z"/><path class="cls-1" d="M682.27,613.74V554.27h-2v59.47Z"/><path class="cls-1" d="M682.27,921.09V861.62h-2v59.47Z"/><path class="cls-1" d="M682.27,552.28V492.8h-2v59.48Z"/><path class="cls-1" d="M682.27,490.78V431.31h-2v59.47Z"/><path class="cls-1" d="M682.27,1044.05V984.58h-2v59.47Z"/><path class="cls-1" d="M682.27,859.63V800.16h-2v59.47Z"/><path class="cls-1" d="M682.27,183.43V124h-2v59.47Z"/><path class="cls-1" d="M682.27,60.47V1h-2V60.47Z"/><path class="cls-1" d="M682.27,798.16V738.69h-2v59.47Z"/><path class="cls-1" d="M682.27,1169v-2h-2v2Z"/><path class="cls-1" d="M682.27,1107.53v-2h-2v2Z"/><path class="cls-1" d="M682.27,1046v-2h-2v2Z"/><path class="cls-1" d="M682.27,984.58v-2h-2v2Z"/><path class="cls-1" d="M682.27,923.11v-2h-2v2Z"/><path class="cls-1" d="M682.27,861.62v-2h-2v2Z"/><path class="cls-1" d="M682.27,800.15v-2h-2v2Z"/><path class="cls-1" d="M682.27,738.69v-2h-2v2Z"/><path class="cls-1" d="M682.27,677.23v-2h-2v2Z"/><path class="cls-1" d="M682.27,615.73v-2h-2v2Z"/><path class="cls-1" d="M682.27,554.27v-2h-2v2Z"/><path class="cls-1" d="M682.27,492.8v-2h-2v2Z"/><path class="cls-1" d="M682.27,431.31v-2h-2v2Z"/><path class="cls-1" d="M682.27,369.85v-2h-2v2Z"/><path class="cls-1" d="M682.27,308.38v-2h-2v2Z"/><path class="cls-1" d="M682.27,246.89v-2h-2v2Z"/><path class="cls-1" d="M682.27,185.42v-2h-2v2Z"/><path class="cls-1" d="M682.27,124v-2h-2v2Z"/><path class="cls-1" d="M682.27,62.47v-2h-2v2Z"/><path class="cls-1" d="M620.52,306.36V246.89h-2v59.47Z"/><path class="cls-1" d="M620.52,736.7V677.23h-2V736.7Z"/><path class="cls-1" d="M620.52,244.9V185.42h-2V244.9Z"/><path class="cls-1" d="M620.52,921.09V861.62h-2v59.47Z"/><path class="cls-1" d="M620.52,552.28V492.8h-2v59.48Z"/><path class="cls-1" d="M620.52,613.74V554.27h-2v59.47Z"/><path class="cls-1" d="M620.52,490.78V431.31h-2v59.47Z"/><path class="cls-1" d="M620.52,367.85V308.38h-2v59.47Z"/><path class="cls-1" d="M620.52,429.32V369.85h-2v59.47Z"/><path class="cls-1" d="M620.52,183.43V124h-2v59.47Z"/><path class="cls-1" d="M620.52,1167v-59.47h-2V1167Z"/><path class="cls-1" d="M620.52,859.63V800.15h-2v59.48Z"/><path class="cls-1" d="M620.52,60.47V1h-2V60.47Z"/><path class="cls-1" d="M620.52,1044.05V984.58h-2v59.47Z"/><path class="cls-1" d="M620.52,798.16V738.69h-2v59.47Z"/><path class="cls-1" d="M620.52,675.2V615.73h-2V675.2Z"/><path class="cls-1" d="M620.52,1105.51V1046h-2v59.47Z"/><path class="cls-1" d="M620.52,982.59V923.11h-2v59.48Z"/><path class="cls-1" d="M620.52,121.94V62.46h-2v59.48Z"/><path class="cls-1" d="M620.52,1169v-2h-2v2Z"/><path class="cls-1" d="M620.52,1107.54v-2h-2v2Z"/><path class="cls-1" d="M620.52,1046v-2h-2v2Z"/><path class="cls-1" d="M620.52,984.58v-2h-2v2Z"/><path class="cls-1" d="M620.52,923.11v-2h-2v2Z"/><path class="cls-1" d="M620.52,861.62v-2h-2v2Z"/><path class="cls-1" d="M620.52,800.15v-2h-2v2Z"/><path class="cls-1" d="M620.52,738.69v-2h-2v2Z"/><path class="cls-1" d="M620.52,677.2v-2h-2v2Z"/><path class="cls-1" d="M620.53,615.73v-2h-2v2Z"/><path class="cls-1" d="M620.52,554.27v-2h-2v2Z"/><path class="cls-1" d="M620.52,492.8v-2h-2v2Z"/><path class="cls-1" d="M620.52,431.31v-2h-2v2Z"/><path class="cls-1" d="M620.52,369.85v-2h-2v2Z"/><path class="cls-1" d="M620.52,308.38v-2h-2v2Z"/><path class="cls-1" d="M620.52,246.89v-2h-2v2Z"/><path class="cls-1" d="M620.52,185.42v-2h-2v2Z"/><path class="cls-1" d="M620.52,124v-2h-2v2Z"/><path class="cls-1" d="M620.52,62.47v-2h-2v2Z"/><path class="cls-1" d="M558.75,121.94V62.46h-2v59.48Z"/><path class="cls-1" d="M558.75,982.59V923.11h-2v59.48Z"/><path class="cls-1" d="M558.75,1044.05V984.58h-2v59.47Z"/><path class="cls-1" d="M558.75,675.21V615.73h-2v59.48Z"/><path class="cls-1" d="M558.75,736.7V677.23h-2V736.7Z"/><path class="cls-1" d="M558.75,1167v-59.47h-2V1167Z"/><path class="cls-1" d="M558.75,798.16V738.69h-2v59.47Z"/><path class="cls-1" d="M558.75,367.86V308.38h-2v59.48Z"/><path class="cls-1" d="M558.75,429.32V369.85h-2v59.47Z"/><path class="cls-1" d="M558.75,244.9V185.42h-2V244.9Z"/><path class="cls-1" d="M558.75,306.36V246.89h-2v59.47Z"/><path class="cls-1" d="M558.75,552.28V492.8h-2v59.48Z"/><path class="cls-1" d="M558.75,859.63V800.15h-2v59.48Z"/><path class="cls-1" d="M558.75,183.43V124h-2v59.47Z"/><path class="cls-1" d="M558.75,1105.51V1046h-2v59.47Z"/><path class="cls-1" d="M558.75,490.78V431.31h-2v59.47Z"/><path class="cls-1" d="M558.75,921.09V861.62h-2v59.47Z"/><path class="cls-1" d="M558.75,613.74V554.27h-2v59.47Z"/><path class="cls-1" d="M558.75,60.47V1h-2V60.47Z"/><path class="cls-1" d="M558.75,1169v-2h-2v2Z"/><path class="cls-1" d="M558.75,1107.54v-2h-2v2Z"/><path class="cls-1" d="M558.75,1046v-2h-2v2Z"/><path class="cls-1" d="M558.75,984.58v-2h-2v2Z"/><path class="cls-1" d="M558.75,923.11v-2h-2v2Z"/><path class="cls-1" d="M558.75,861.62v-2h-2v2Z"/><path class="cls-1" d="M558.75,800.16v-2h-2v2Z"/><path class="cls-1" d="M558.75,738.69v-2h-2v2Z"/><path class="cls-1" d="M558.75,677.2v-2h-2v2Z"/><path class="cls-1" d="M558.75,615.73v-2h-2v2Z"/><path class="cls-1" d="M558.75,554.27v-2h-2v2Z"/><path class="cls-1" d="M558.75,492.8v-2h-2v2Z"/><path class="cls-1" d="M558.75,431.31v-2h-2v2Z"/><path class="cls-1" d="M558.75,369.85v-2h-2v2Z"/><path class="cls-1" d="M558.75,308.38v-2h-2v2Z"/><path class="cls-1" d="M558.75,246.89v-2h-2v2Z"/><path class="cls-1" d="M558.75,185.42v-2h-2v2Z"/><path class="cls-1" d="M558.75,123.93v-2h-2v2Z"/><path class="cls-1" d="M558.75,62.46v-2h-2v2Z"/><path class="cls-1" d="M497,429.32V369.85h-2v59.47Z"/><path class="cls-1" d="M497,1105.51V1046h-2v59.47Z"/><path class="cls-1" d="M497,552.28V492.8h-2v59.48Z"/><path class="cls-1" d="M497,490.78V431.31h-2v59.47Z"/><path class="cls-1" d="M497,921.09V861.62h-2v59.47Z"/><path class="cls-1" d="M497,736.7V677.23h-2V736.7Z"/><path class="cls-1" d="M497,60.47V1h-2V60.47Z"/><path class="cls-1" d="M497,1044.05V984.58h-2v59.47Z"/><path class="cls-1" d="M497,675.21V615.73h-2v59.48Z"/><path class="cls-1" d="M497,613.74V554.27h-2v59.47Z"/><path class="cls-1" d="M497,798.16V738.69h-2v59.47Z"/><path class="cls-1" d="M497,1167v-59.47h-2V1167Z"/><path class="cls-1" d="M497,121.94V62.46h-2v59.48Z"/><path class="cls-1" d="M497,982.59V923.11h-2v59.48Z"/><path class="cls-1" d="M497,859.63V800.15h-2v59.48Z"/><path class="cls-1" d="M497,244.9V185.42h-2V244.9Z"/><path class="cls-1" d="M497,183.43V124h-2v59.47Z"/><path class="cls-1" d="M497,1169v-2h-2v2Z"/><path class="cls-1" d="M497,1107.54v-2h-2v2Z"/><path class="cls-1" d="M497,1046v-2h-2v2Z"/><path class="cls-1" d="M497,984.58v-2h-2v2Z"/><path class="cls-1" d="M497,923.11v-2h-2v2Z"/><path class="cls-1" d="M497,861.62v-2h-2v2Z"/><path class="cls-1" d="M497,800.16v-2h-2v2Z"/><path class="cls-1" d="M497,738.69v-2h-2v2Z"/><path class="cls-1" d="M497,677.2v-2h-2v2Z"/><path class="cls-1" d="M497,615.73v-2h-2v2Z"/><path class="cls-1" d="M497,554.27v-2h-2v2Z"/><path class="cls-1" d="M497,492.8v-2h-2v2Z"/><path class="cls-1" d="M497,431.31v-2h-2v2Z"/><path class="cls-1" d="M497,369.85v-2h-2v2Z"/><path class="cls-1" d="M497,246.89v-2h-2v2Z"/><path class="cls-1" d="M497,185.42v-2h-2v2Z"/><path class="cls-1" d="M497,123.93v-2h-2v2Z"/><path class="cls-1" d="M497,62.47v-2h-2v2Z"/><path class="cls-1" d="M435.23,60.47V1h-2V60.47Z"/><path class="cls-1" d="M435.23,121.94V62.46h-2v59.48Z"/><path class="cls-1" d="M435.23,859.63V800.16h-2v59.47Z"/><path class="cls-1" d="M435.23,921.09V861.62h-2v59.47Z"/><path class="cls-1" d="M435.23,367.85V308.38h-2v59.47Z"/><path class="cls-1" d="M435.23,736.7V677.23h-2V736.7Z"/><path class="cls-1" d="M435.23,183.43V124h-2v59.47Z"/><path class="cls-1" d="M435.23,613.74V554.27h-2v59.47Z"/><path class="cls-1" d="M435.23,675.2V615.73h-2V675.2Z"/><path class="cls-1" d="M435.23,982.59V923.11h-2v59.48Z"/><path class="cls-1" d="M435.23,552.28V492.8h-2v59.48Z"/><path class="cls-1" d="M435.23,1105.51V1046h-2v59.47Z"/><path class="cls-1" d="M435.23,1044.05V984.58h-2v59.47Z"/><path class="cls-1" d="M435.23,1167v-59.47h-2V1167Z"/><path class="cls-1" d="M435.23,306.36V246.89h-2v59.47Z"/><path class="cls-1" d="M435.23,244.9V185.42h-2V244.9Z"/><path class="cls-1" d="M435.23,798.16V738.69h-2v59.47Z"/><path class="cls-1" d="M435.23,429.32V369.85h-2v59.47Z"/><path class="cls-1" d="M435.23,490.78V431.31h-2v59.47Z"/><path class="cls-1" d="M435.23,1169v-2h-2v2Z"/><path class="cls-1" d="M435.23,1107.54v-2h-2v2Z"/><path class="cls-1" d="M435.23,1046v-2h-2v2Z"/><path class="cls-1" d="M435.23,984.58v-2h-2v2Z"/><path class="cls-1" d="M435.23,923.11v-2h-2v2Z"/><path class="cls-1" d="M435.23,861.62v-2h-2v2Z"/><path class="cls-1" d="M435.23,800.15v-2h-2v2Z"/><path class="cls-1" d="M435.23,738.69v-2h-2v2Z"/><path class="cls-1" d="M435.23,677.2v-2h-2v2Z"/><path class="cls-1" d="M435.23,615.73v-2h-2v2Z"/><path class="cls-1" d="M435.23,554.27v-2h-2v2Z"/><path class="cls-1" d="M435.23,492.8v-2h-2v2Z"/><path class="cls-1" d="M435.23,431.31v-2h-2v2Z"/><path class="cls-1" d="M435.23,369.85v-2h-2v2Z"/><path class="cls-1" d="M435.23,308.38v-2h-2v2Z"/><path class="cls-1" d="M435.23,246.89v-2h-2v2Z"/><path class="cls-1" d="M435.23,185.42v-2h-2v2Z"/><path class="cls-1" d="M435.23,123.93v-2h-2v2Z"/><path class="cls-1" d="M435.23,62.47v-2h-2v2Z"/><path class="cls-1" d="M373.49,859.63V800.15h-2v59.48Z"/><path class="cls-1" d="M373.49,60.47V1h-2V60.47Z"/><path class="cls-1" d="M373.49,121.94V62.46h-2v59.48Z"/><path class="cls-1" d="M373.49,429.32V369.85h-2v59.47Z"/><path class="cls-1" d="M373.49,798.16V738.69h-2v59.47Z"/><path class="cls-1" d="M373.49,1044.05V984.58h-2v59.47Z"/><path class="cls-1" d="M373.49,490.78V431.31h-2v59.47Z"/><path class="cls-1" d="M373.49,1167v-59.47h-2V1167Z"/><path class="cls-1" d="M373.49,367.85V308.38h-2v59.47Z"/><path class="cls-1" d="M373.49,306.36V246.89h-2v59.47Z"/><path class="cls-1" d="M373.49,244.9V185.42h-2V244.9Z"/><path class="cls-1" d="M373.49,675.21V615.73h-2v59.48Z"/><path class="cls-1" d="M373.49,736.7V677.23h-2V736.7Z"/><path class="cls-1" d="M373.49,183.43V124h-2v59.47Z"/><path class="cls-1" d="M373.49,552.28V492.8h-2v59.48Z"/><path class="cls-1" d="M373.49,613.74V554.27h-2v59.47Z"/><path class="cls-1" d="M373.49,921.09V861.62h-2v59.47Z"/><path class="cls-1" d="M373.49,982.59V923.11h-2v59.48Z"/><path class="cls-1" d="M373.49,1105.51V1046h-2v59.47Z"/><path class="cls-1" d="M373.49,1169v-2h-2v2Z"/><path class="cls-1" d="M373.49,1107.54v-2h-2v2Z"/><path class="cls-1" d="M373.49,1046v-2h-2v2Z"/><path class="cls-1" d="M373.49,984.58v-2h-2v2Z"/><path class="cls-1" d="M373.49,923.11v-2h-2v2Z"/><path class="cls-1" d="M373.49,861.62v-2h-2v2Z"/><path class="cls-1" d="M373.49,800.16v-2h-2v2Z"/><path class="cls-1" d="M373.49,738.69v-2h-2v2Z"/><path class="cls-1" d="M373.49,677.2v-2h-2v2Z"/><path class="cls-1" d="M373.49,615.73v-2h-2v2Z"/><path class="cls-1" d="M373.49,554.27v-2h-2v2Z"/><path class="cls-1" d="M373.49,492.8v-2h-2v2Z"/><path class="cls-1" d="M373.49,431.31v-2h-2v2Z"/><path class="cls-1" d="M373.49,369.85v-2h-2v2Z"/><path class="cls-1" d="M373.49,308.38v-2h-2v2Z"/><path class="cls-1" d="M373.49,246.89v-2h-2v2Z"/><path class="cls-1" d="M373.49,185.42v-2h-2v2Z"/><path class="cls-1" d="M373.49,123.93v-2h-2v2Z"/><path class="cls-1" d="M373.49,62.46v-2h-2v2Z"/><path class="cls-1" d="M311.74,490.78V431.31h-2v59.47Z"/><path class="cls-1" d="M311.74,1105.51V1046h-2v59.47Z"/><path class="cls-1" d="M311.74,552.28V492.8h-2v59.48Z"/><path class="cls-1" d="M311.74,1044.05V984.58h-2v59.47Z"/><path class="cls-1" d="M311.74,121.94V62.46h-2v59.48Z"/><path class="cls-1" d="M311.74,429.32V369.85h-2v59.47Z"/><path class="cls-1" d="M311.74,921.09V861.62h-2v59.47Z"/><path class="cls-1" d="M311.74,244.9V185.42h-2V244.9Z"/><path class="cls-1" d="M311.74,183.43V124h-2v59.47Z"/><path class="cls-1" d="M311.74,306.36V246.89h-2v59.47Z"/><path class="cls-1" d="M311.74,982.59V923.11h-2v59.48Z"/><path class="cls-1" d="M311.74,1167v-59.47h-2V1167Z"/><path class="cls-1" d="M311.74,613.74V554.27h-2v59.47Z"/><path class="cls-1" d="M311.74,736.7V677.23h-2V736.7Z"/><path class="cls-1" d="M311.74,60.47V1h-2V60.47Z"/><path class="cls-1" d="M311.74,675.21V615.73h-2v59.48Z"/><path class="cls-1" d="M311.74,367.85V308.38h-2v59.47Z"/><path class="cls-1" d="M311.74,798.16V738.69h-2v59.47Z"/><path class="cls-1" d="M311.74,859.63V800.15h-2v59.48Z"/><path class="cls-1" d="M311.74,1169v-2h-2v2Z"/><path class="cls-1" d="M311.74,1107.54v-2h-2v2Z"/><path class="cls-1" d="M311.74,1046v-2h-2v2Z"/><path class="cls-1" d="M311.74,984.58v-2h-2v2Z"/><path class="cls-1" d="M311.74,923.11v-2h-2v2Z"/><path class="cls-1" d="M311.74,861.62v-2h-2v2Z"/><path class="cls-1" d="M311.74,800.16v-2h-2v2Z"/><path class="cls-1" d="M311.74,738.69v-2h-2v2Z"/><path class="cls-1" d="M311.74,677.2v-2h-2v2Z"/><path class="cls-1" d="M311.74,615.73v-2h-2v2Z"/><path class="cls-1" d="M311.74,554.27v-2h-2v2Z"/><path class="cls-1" d="M311.74,492.8v-2h-2v2Z"/><path class="cls-1" d="M311.74,431.31v-2h-2v2Z"/><path class="cls-1" d="M311.74,369.85v-2h-2v2Z"/><path class="cls-1" d="M311.74,308.38v-2h-2v2Z"/><path class="cls-1" d="M311.74,246.89v-2h-2v2Z"/><path class="cls-1" d="M311.74,185.42v-2h-2v2Z"/><path class="cls-1" d="M311.74,123.93v-2h-2v2Z"/><path class="cls-1" d="M311.74,62.46v-2h-2v2Z"/><path class="cls-1" d="M250,367.85V308.38h-2v59.47Z"/><path class="cls-1" d="M250,306.36V246.89h-2v59.47Z"/><path class="cls-1" d="M250,1167v-59.47h-2V1167Z"/><path class="cls-1" d="M250,244.9V185.42h-2V244.9Z"/><path class="cls-1" d="M250,1105.51V1046h-2v59.47Z"/><path class="cls-1" d="M250,121.94V62.46h-2v59.48Z"/><path class="cls-1" d="M250,60.47V1h-2V60.47Z"/><path class="cls-1" d="M250,183.43V124h-2v59.47Z"/><path class="cls-1" d="M250,613.74V554.27h-2v59.47Z"/><path class="cls-1" d="M250,982.59V923.11h-2v59.48Z"/><path class="cls-1" d="M250,859.63V800.15h-2v59.48Z"/><path class="cls-1" d="M250,675.2V615.73h-2V675.2Z"/><path class="cls-1" d="M250,736.7V677.23h-2V736.7Z"/><path class="cls-1" d="M250,798.16V738.69h-2v59.47Z"/><path class="cls-1" d="M250,921.09V861.62h-2v59.47Z"/><path class="cls-1" d="M250,490.78V431.31h-2v59.47Z"/><path class="cls-1" d="M250,429.32V369.85h-2v59.47Z"/><path class="cls-1" d="M250,1044.05V984.58h-2v59.47Z"/><path class="cls-1" d="M250,552.28V492.8h-2v59.48Z"/><path class="cls-1" d="M250,1169v-2h-2v2Z"/><path class="cls-1" d="M250,1107.54v-2h-2v2Z"/><path class="cls-1" d="M250,1046v-2h-2v2Z"/><path class="cls-1" d="M250,984.58v-2h-2v2Z"/><path class="cls-1" d="M250,923.11v-2h-2v2Z"/><path class="cls-1" d="M250,861.62v-2h-2v2Z"/><path class="cls-1" d="M250,800.15v-2h-2v2Z"/><path class="cls-1" d="M250,738.69v-2h-2v2Z"/><path class="cls-1" d="M250,677.2v-2h-2v2Z"/><path class="cls-1" d="M250,615.73v-2h-2v2Z"/><path class="cls-1" d="M250,554.27v-2h-2v2Z"/><path class="cls-1" d="M250,492.8v-2h-2v2Z"/><path class="cls-1" d="M250,431.31v-2h-2v2Z"/><path class="cls-1" d="M250,369.85v-2h-2v2Z"/><path class="cls-1" d="M250,308.38v-2h-2v2Z"/><path class="cls-1" d="M250,246.89v-2h-2v2Z"/><path class="cls-1" d="M250,185.42v-2h-2v2Z"/><path class="cls-1" d="M250,123.93v-2h-2v2Z"/><path class="cls-1" d="M250,62.46v-2h-2v2Z"/><path class="cls-1" d="M188.22,1167v-59.47h-2V1167Z"/><path class="cls-1" d="M188.22,306.36V246.89h-2v59.47Z"/><path class="cls-1" d="M188.22,982.59V923.11h-2v59.48Z"/><path class="cls-1" d="M188.22,1105.51V1046h-2v59.47Z"/><path class="cls-1" d="M188.22,921.09V861.62h-2v59.47Z"/><path class="cls-1" d="M188.22,859.63V800.16h-2v59.47Z"/><path class="cls-1" d="M188.22,675.21V615.73h-2v59.48Z"/><path class="cls-1" d="M188.22,244.9V185.42h-2V244.9Z"/><path class="cls-1" d="M188.22,613.74V554.27h-2v59.47Z"/><path class="cls-1" d="M188.22,429.32V369.85h-2v59.47Z"/><path class="cls-1" d="M188.22,490.78V431.31h-2v59.47Z"/><path class="cls-1" d="M188.22,121.94V62.46h-2v59.48Z"/><path class="cls-1" d="M188.22,1044.05V984.58h-2v59.47Z"/><path class="cls-1" d="M188.22,798.16V738.69h-2v59.47Z"/><path class="cls-1" d="M188.22,552.28V492.8h-2v59.48Z"/><path class="cls-1" d="M188.22,367.85V308.38h-2v59.47Z"/><path class="cls-1" d="M188.22,60.47V1h-2V60.47Z"/><path class="cls-1" d="M188.22,736.7V677.23h-2V736.7Z"/><path class="cls-1" d="M188.22,183.43V124h-2v59.47Z"/><path class="cls-1" d="M188.22,1169v-2h-2v2Z"/><path class="cls-1" d="M188.22,1107.54v-2h-2v2Z"/><path class="cls-1" d="M188.22,1046v-2h-2v2Z"/><path class="cls-1" d="M188.22,984.58v-2h-2v2Z"/><path class="cls-1" d="M188.22,923.11v-2h-2v2Z"/><path class="cls-1" d="M188.22,861.62v-2h-2v2Z"/><path class="cls-1" d="M188.22,800.16v-2h-2v2Z"/><path class="cls-1" d="M188.22,738.69v-2h-2v2Z"/><path class="cls-1" d="M188.22,677.2v-2h-2v2Z"/><path class="cls-1" d="M188.22,615.73v-2h-2v2Z"/><path class="cls-1" d="M188.22,554.27v-2h-2v2Z"/><path class="cls-1" d="M188.22,492.8v-2h-2v2Z"/><path class="cls-1" d="M188.22,431.31v-2h-2v2Z"/><path class="cls-1" d="M188.22,369.85v-2h-2v2Z"/><path class="cls-1" d="M188.22,308.38v-2h-2v2Z"/><path class="cls-1" d="M188.22,246.89v-2h-2v2Z"/><path class="cls-1" d="M188.22,185.42v-2h-2v2Z"/><path class="cls-1" d="M188.22,123.93v-2h-2v2Z"/><path class="cls-1" d="M188.22,62.46v-2h-2v2Z"/><path class="cls-1" d="M126.48,1167v-59.47h-2V1167Z"/><path class="cls-1" d="M126.48,675.2V615.73h-2V675.2Z"/><path class="cls-1" d="M126.48,613.74V554.27h-2v59.47Z"/><path class="cls-1" d="M126.48,183.43V124h-2v59.47Z"/><path class="cls-1" d="M126.48,121.94V62.46h-2v59.48Z"/><path class="cls-1" d="M126.48,60.47V1h-2V60.47Z"/><path class="cls-1" d="M126.48,552.28V492.8h-2v59.48Z"/><path class="cls-1" d="M126.48,490.78V431.31h-2v59.47Z"/><path class="cls-1" d="M126.48,798.16V738.69h-2v59.47Z"/><path class="cls-1" d="M126.48,859.63V800.15h-2v59.48Z"/><path class="cls-1" d="M126.48,1105.51V1046h-2v59.47Z"/><path class="cls-1" d="M126.48,367.85V308.38h-2v59.47Z"/><path class="cls-1" d="M126.48,982.59V923.11h-2v59.48Z"/><path class="cls-1" d="M126.48,306.36V246.89h-2v59.47Z"/><path class="cls-1" d="M126.48,1044.05V984.58h-2v59.47Z"/><path class="cls-1" d="M126.48,921.09V861.62h-2v59.47Z"/><path class="cls-1" d="M126.48,736.7V677.23h-2V736.7Z"/><path class="cls-1" d="M126.48,244.9V185.42h-2V244.9Z"/><path class="cls-1" d="M126.48,429.32V369.85h-2v59.47Z"/><path class="cls-1" d="M126.48,1169v-2h-2v2Z"/><path class="cls-1" d="M126.48,1107.53v-2h-2v2Z"/><path class="cls-1" d="M126.48,1046v-2h-2v2Z"/><path class="cls-1" d="M126.48,984.58v-2h-2v2Z"/><path class="cls-1" d="M126.48,923.11v-2h-2v2Z"/><path class="cls-1" d="M126.48,861.62v-2h-2v2Z"/><path class="cls-1" d="M126.48,800.16v-2h-2v2Z"/><path class="cls-1" d="M126.48,738.69v-2h-2v2Z"/><path class="cls-1" d="M126.48,677.2v-2h-2v2Z"/><path class="cls-1" d="M126.48,615.73v-2h-2v2Z"/><path class="cls-1" d="M126.48,554.27v-2h-2v2Z"/><path class="cls-1" d="M126.48,492.8v-2h-2v2Z"/><path class="cls-1" d="M126.48,431.31v-2h-2v2Z"/><path class="cls-1" d="M126.48,369.85v-2h-2v2Z"/><path class="cls-1" d="M126.48,308.38v-2h-2v2Z"/><path class="cls-1" d="M126.48,246.89v-2h-2v2Z"/><path class="cls-1" d="M126.48,185.42v-2h-2v2Z"/><path class="cls-1" d="M126.48,123.93v-2h-2v2Z"/><path class="cls-1" d="M126.48,62.46v-2h-2v2Z"/><path class="cls-1" d="M64.74,121.94V62.46h-2v59.48Z"/><path class="cls-1" d="M64.74,183.43V124h-2v59.47Z"/><path class="cls-1" d="M64.74,1044.05V984.58h-2v59.47Z"/><path class="cls-1" d="M64.74,60.47V1h-2V60.47Z"/><path class="cls-1" d="M64.74,1105.51V1046h-2v59.47Z"/><path class="cls-1" d="M64.74,429.32V369.85h-2v59.47Z"/><path class="cls-1" d="M64.74,367.85V308.38h-2v59.47Z"/><path class="cls-1" d="M64.74,306.36V246.89h-2v59.47Z"/><path class="cls-1" d="M64.74,736.7V677.23h-2V736.7Z"/><path class="cls-1" d="M64.74,613.74V554.27h-2v59.47Z"/><path class="cls-1" d="M64.74,244.9V185.42h-2V244.9Z"/><path class="cls-1" d="M64.74,490.78V431.31h-2v59.47Z"/><path class="cls-1" d="M64.74,552.28V492.8h-2v59.48Z"/><path class="cls-1" d="M64.74,859.63V800.15h-2v59.48Z"/><path class="cls-1" d="M64.74,921.09V861.62h-2v59.47Z"/><path class="cls-1" d="M64.74,982.59V923.11h-2v59.48Z"/><path class="cls-1" d="M64.74,798.16V738.69h-2v59.47Z"/><path class="cls-1" d="M64.74,675.21V615.73h-2v59.48Z"/><path class="cls-1" d="M64.74,1167v-59.47h-2V1167Z"/><path class="cls-1" d="M64.74,1169v-2h-2v2Z"/><path class="cls-1" d="M64.74,1107.54v-2h-2v2Z"/><path class="cls-1" d="M64.74,1046v-2h-2v2Z"/><path class="cls-1" d="M64.74,984.58v-2h-2v2Z"/><path class="cls-1" d="M64.74,923.11v-2h-2v2Z"/><path class="cls-1" d="M64.74,861.62v-2h-2v2Z"/><path class="cls-1" d="M64.74,800.16v-2h-2v2Z"/><path class="cls-1" d="M64.74,738.69v-2h-2v2Z"/><path class="cls-1" d="M64.74,677.2v-2h-2v2Z"/><path class="cls-1" d="M64.74,615.73v-2h-2v2Z"/><path class="cls-1" d="M64.74,554.27v-2h-2v2Z"/><path class="cls-1" d="M64.74,492.8v-2h-2v2Z"/><path class="cls-1" d="M64.74,431.31v-2h-2v2Z"/><path class="cls-1" d="M64.74,369.85v-2h-2v2Z"/><path class="cls-1" d="M64.74,308.38v-2h-2v2Z"/><path class="cls-1" d="M64.74,246.89v-2h-2v2Z"/><path class="cls-1" d="M64.74,185.42v-2h-2v2Z"/><path class="cls-1" d="M64.74,123.93v-2h-2v2Z"/><path class="cls-1" d="M64.74,62.46v-2h-2v2Z"/><path class="cls-1" d="M3,1107.53v-2H1v2Z"/><path class="cls-1" d="M3,1046v-2H1v2Z"/><path class="cls-1" d="M3,984.58v-2H1v2Z"/><path class="cls-1" d="M3,923.11v-2H1v2Z"/><path class="cls-1" d="M3,861.62v-2H1v2Z"/><path class="cls-1" d="M3,800.15v-2H1v2Z"/><path class="cls-1" d="M3,738.69v-2H1v2Z"/><path class="cls-1" d="M3,677.2v-2H1v2Z"/><path class="cls-1" d="M3,615.73v-2H1v2Z"/><path class="cls-1" d="M3,554.27v-2H1v2Z"/><path class="cls-1" d="M3,492.8v-2H1v2Z"/><path class="cls-1" d="M3,431.31v-2H1v2Z"/><path class="cls-1" d="M3,369.85v-2H1v2Z"/><path class="cls-1" d="M3,308.38v-2H1v2Z"/><path class="cls-1" d="M3,246.89v-2H1v2Z"/><path class="cls-1" d="M3,185.42v-2H1v2Z"/><path class="cls-1" d="M3,123.93v-2H1v2Z"/><path class="cls-1" d="M3,62.46v-2H1v2Z"/><path class="cls-2" d="M527.92,253l-32.14,21.43L463.64,253v21.43l32.14,21.43,32.14-21.43Z"/><path class="cls-2" d="M527.92,284.07,495.78,305.5l-32.14-21.43V305.5l32.14,21.43,32.14-21.43Z"/><path class="cls-2" d="M527.92,315.14l-32.14,21.43-32.14-21.43v21.43L495.78,358l32.14-21.43Z"/></g></g></svg>