<svg width="36" height="36" viewBox="0 0 36 36" fill="none" xmlns="http://www.w3.org/2000/svg">
<path d="M3.21879 3.2196L3.2196 3.21879C4.54617 1.88919 6.23906 1.20208 8.61654 0.852898C11.011 0.501224 14.0365 0.5 17.9967 0.5C21.9569 0.5 24.9826 0.501217 27.3779 0.852109C29.7562 1.20049 31.451 1.88605 32.7808 3.21266C34.1108 4.54262 34.7979 6.23742 35.1471 8.6157C35.4988 11.011 35.5 14.0365 35.5 17.9967C35.5 21.957 35.4988 24.9825 35.1471 27.3778C34.7979 29.7561 34.1108 31.4509 32.7808 32.7808C31.4509 34.1107 29.7546 34.7979 27.3754 35.1471C24.9793 35.4988 21.9537 35.5 17.9967 35.5C14.0398 35.5 11.0142 35.4988 8.61896 35.1471C6.24054 34.7979 4.54609 34.1107 3.2196 32.7812L3.21919 32.7808C1.88931 31.4509 1.20211 29.7546 0.852905 27.3754C0.501221 24.9793 0.5 21.9537 0.5 17.9967C0.5 14.0398 0.501222 11.0142 0.852901 8.61896C1.20211 6.24054 1.88927 4.54609 3.21879 3.2196Z" stroke="white"/>
<path d="M18.7999 9C13.6145 9 11 12.7175 11 15.8177C11 17.6947 11.7106 19.3644 13.2346 19.9869C13.4847 20.089 13.7088 19.9906 13.7816 19.7139C13.8318 19.5223 13.951 19.0393 14.0041 18.838C14.0773 18.5643 14.0487 18.4684 13.8471 18.2299C13.4077 17.7114 13.1268 17.0403 13.1268 16.0896C13.1268 13.3316 15.1904 10.8626 18.5005 10.8626C21.4309 10.8626 23.0412 12.6535 23.0412 15.045C23.0412 18.1917 21.6486 20.8475 19.5813 20.8475C18.4394 20.8475 17.585 19.9032 17.8589 18.7452C18.1869 17.3626 18.822 15.8704 18.822 14.8727C18.822 13.9794 18.3429 13.2341 17.3504 13.2341C16.1833 13.2341 15.2458 14.4416 15.2458 16.0589C15.2458 17.0891 15.5938 17.7859 15.5938 17.7859C15.5938 17.7859 14.3992 22.8466 14.1903 23.7329C13.773 25.4977 14.1277 27.6615 14.1576 27.8799C14.1749 28.0095 14.3412 28.0402 14.4167 27.9425C14.5247 27.8019 15.9146 26.086 16.3871 24.3712C16.5208 23.8856 17.1543 21.3715 17.1543 21.3715C17.5337 22.0946 18.6419 22.7317 19.8206 22.7317C23.3287 22.7317 25.7092 19.5334 25.7092 15.252C25.7094 12.0148 22.9671 9 18.7999 9Z" fill="white"/>
</svg>
