<svg width="113" height="109" viewBox="0 0 113 109" fill="none" xmlns="http://www.w3.org/2000/svg">
<path fill-rule="evenodd" clip-rule="evenodd" d="M55.6059 0.0696686C54.2436 0.298919 52.7558 1.02193 51.4262 2.10106C51.0636 2.39537 49.8769 3.46948 48.7891 4.48798C46.3287 6.79141 45.7023 7.30184 44.6538 7.85712C43.1189 8.67026 41.6867 8.61583 37.5388 7.587C33.874 6.67796 32.7894 6.5089 31.102 6.5834C29.7398 6.64359 29.5054 6.69876 28.5129 7.19267C26.382 8.25307 25.3171 10.0315 23.9509 14.8121C23.0311 18.0299 22.2765 19.7751 21.4417 20.6145C20.5924 21.4685 19.1065 22.1022 15.8475 23.0005C12.2406 23.9947 11.7811 24.1465 10.4525 24.7827C8.17878 25.8715 6.94884 27.579 6.79178 29.8653C6.69142 31.3258 6.90738 32.6495 7.77149 35.871C8.50433 38.603 8.67384 39.5535 8.66915 40.9076C8.66285 42.7558 8.28134 43.342 4.63473 47.1081C2.51752 49.2947 1.36494 50.6053 0.985916 51.2569C-1.05159 54.7599 -0.0160596 57.6655 4.88833 62.2068C6.58388 63.7769 8.11535 65.6686 8.42023 66.5695C8.69772 67.3895 8.7068 69.2941 8.43898 70.502C8.33101 70.9889 7.93309 72.5821 7.5548 74.0426C6.46931 78.232 6.48543 80.1498 7.62102 81.9189C8.88525 83.8883 10.1669 84.5008 17.0495 86.4248C19.2808 87.0485 20.6001 87.6507 21.3876 88.4052C22.2028 89.1858 23.0103 91.006 23.8841 94.032C24.801 97.2065 25.0807 97.9829 25.7312 99.1588C27.1749 101.769 29.557 102.877 32.8462 102.469C33.5971 102.376 35.2663 102.038 36.5556 101.718C40.0618 100.847 41.3785 100.629 42.6648 100.703C44.4772 100.808 45.4595 101.439 48.935 104.734C51.2207 106.901 52.2442 107.673 53.8567 108.448C54.9631 108.98 55.0821 109.005 56.4808 108.999C57.7276 108.994 58.0829 108.935 58.8654 108.602C60.3442 107.974 61.5946 107.036 64.2458 104.567C66.9024 102.093 67.9917 101.281 69.188 100.88C70.3617 100.488 72.073 100.66 75.6835 101.533C77.3702 101.941 79.3019 102.354 79.9763 102.451C83.1339 102.905 85.4802 101.966 86.9402 99.6629C87.7919 98.3194 88.2147 97.2346 89.1641 93.9582C89.6106 92.4166 90.2056 90.6735 90.486 90.0846C91.5567 87.8359 92.3228 87.4291 98.9966 85.5653C102.023 84.72 103.38 84.0678 104.543 82.8993C105.812 81.6243 106.116 80.9014 106.187 78.9846C106.252 77.2614 106.114 76.4649 105.053 72.4198C104.375 69.8383 104.169 67.9704 104.448 66.9354C104.731 65.8891 105.616 64.7693 108.427 61.9031C112.151 58.1061 113.016 56.706 113 54.4958C112.984 52.2742 112.017 50.7089 108.492 47.1934C105.953 44.6621 105.282 43.8842 104.737 42.8415C104.429 42.2529 104.391 41.9938 104.404 40.5549C104.416 39.1738 104.499 38.6354 104.957 36.9406C106.081 32.7842 106.254 31.8361 106.191 30.1545C106.147 28.9686 106.059 28.4385 105.814 27.893C104.815 25.6677 102.976 24.5752 97.9398 23.2162C93.4925 22.0161 92.3524 21.5347 91.4178 20.463C90.6774 19.6138 89.9199 17.809 89.0934 14.9244C87.8903 10.7257 87.288 9.45848 85.8644 8.13136C84.7663 7.1077 83.7296 6.68313 82.0909 6.58591C80.5596 6.49504 79.2051 6.69803 75.8663 7.51884C72.1303 8.43732 70.8087 8.59399 69.5065 8.27269C68.1517 7.9384 67.0898 7.18559 64.4655 4.69909C61.5074 1.89615 60.18 0.918959 58.5806 0.366042C57.579 0.0198057 56.5258 -0.0850831 55.6059 0.0696686ZM58.4371 2.74972C59.5096 3.31001 60.5772 4.17346 62.7807 6.26269C65.8106 9.1357 67.3011 10.1356 69.1244 10.5184C70.8113 10.8726 72.2382 10.702 76.6991 9.61205C79.3513 8.96398 79.988 8.85865 81.3141 8.84891C82.6305 8.83903 82.939 8.88402 83.4524 9.16063C84.8529 9.91521 85.5728 11.2875 86.8041 15.5497C88.7108 22.1494 89.945 23.4003 96.1848 25.0567C98.9982 25.8034 100.888 26.4247 101.721 26.8767C102.664 27.388 103.525 28.3566 103.738 29.1453C104.001 30.1231 103.818 31.9136 103.227 34.1376C102.239 37.8502 101.947 39.3185 101.938 40.6261C101.918 43.35 102.526 44.3897 106.597 48.5918C110.098 52.2061 110.619 52.9698 110.613 54.4825C110.606 56.1036 109.889 57.1727 106.592 60.4705C101.401 65.6634 101.117 66.701 102.952 73.7802C103.686 76.6139 103.786 77.1671 103.794 78.4683C103.802 79.7317 103.755 80.0338 103.47 80.5717C102.781 81.8709 101.242 82.6371 97.0612 83.762C92.5659 84.9717 91.1736 85.5844 89.8135 86.9513C88.5161 88.2554 87.918 89.6169 86.5185 94.4535C85.6256 97.5395 84.8038 99.0866 83.717 99.728C82.4005 100.505 80.8119 100.452 76.9921 99.5051C73.5953 98.6629 72.3748 98.4577 70.7647 98.4577C68.1171 98.4577 66.6269 99.214 63.4688 102.16C60.5577 104.877 59.6184 105.652 58.5319 106.236C57.6498 106.71 57.3732 106.787 56.5541 106.787C54.8545 106.787 53.6384 106.013 50.1809 102.731C46.7211 99.4478 45.3026 98.612 42.9816 98.4897C41.1952 98.3956 39.4856 98.6374 36.409 99.4191C35.0392 99.7671 33.3905 100.116 32.7453 100.194C29.1986 100.623 27.9791 99.5172 26.5192 94.5483C25.0424 89.5219 24.5828 88.4434 23.3422 87.0941C22.1064 85.75 20.4442 84.9867 16.264 83.8436C12.6341 82.8511 10.928 82.1419 10.079 81.273C9.3573 80.5342 9.15439 79.8942 9.18984 78.4683C9.2209 77.2197 9.39715 76.3621 10.4028 72.5674C10.9696 70.4281 11.0288 70.0412 11.0353 68.4367C11.047 65.5122 10.6165 64.7644 6.45364 60.4742C3.22809 57.15 2.55825 56.2183 2.39768 54.8319C2.30098 53.9957 2.63341 52.9984 3.37489 51.9003C3.64374 51.5023 5.09623 49.9152 6.60278 48.3736C10.5399 44.3446 11.076 43.4013 11.0458 40.5549C11.0303 39.0911 10.9477 38.618 10.2022 35.7266C8.90854 30.7076 8.84672 29.4622 9.82364 28.1042C10.6151 27.0041 11.9945 26.3791 16.0534 25.2815C19.4279 24.3688 20.9138 23.8196 22.0829 23.0524C24.1247 21.7131 24.8171 20.392 26.5179 14.5908C27.5621 11.0296 28.5015 9.50908 29.9685 9.00573C31.266 8.56051 32.8016 8.72293 36.778 9.72594C43.7194 11.4767 45.2541 11.0637 50.5529 6.01839C52.7942 3.88432 53.3884 3.40708 54.5901 2.77598C55.5226 2.2862 55.6828 2.24873 56.6362 2.29697C57.4035 2.33577 57.8687 2.45276 58.4371 2.74972ZM51.8019 20.6577C45.2393 21.5039 38.8188 24.2401 33.7719 28.3414C27.1492 33.7232 22.86 41.0376 21.4615 49.3346C21.1333 51.281 21.0171 55.6468 21.2364 57.7888C21.7353 62.661 23.5035 67.8848 26.0557 72.0261C31.4286 80.7449 40.7428 86.7616 51.353 88.3675C53.5483 88.6999 59.0028 88.7459 61.0958 88.4497C69.6074 87.2456 76.775 83.6477 82.4869 77.7121C89.0934 70.847 92.4248 61.8784 91.8475 52.5121C90.8269 35.9507 77.5583 22.4411 60.4789 20.5736C58.5299 20.3604 53.7472 20.4068 51.8019 20.6577ZM62.0481 23.0574C70.0166 24.4473 76.8983 28.2702 81.8615 34.0639C85.145 37.8971 87.4035 42.212 88.5676 46.877C92.5785 62.9486 83.4345 79.2798 67.4211 84.6454C63.5648 85.9375 60.5475 86.4235 56.4075 86.4193C51.003 86.4139 46.3421 85.3346 41.5369 82.976C32.458 78.5198 26.0655 70.346 24.1089 60.6918C22.3483 52.0047 24.3278 43.1929 29.6803 35.8903C31.0499 34.0218 34.1519 30.8933 36.0655 29.4508C40.8165 25.8695 46.8699 23.4536 52.7523 22.7909C54.8408 22.5556 60.0234 22.7043 62.0481 23.0574ZM70.7654 39.8059C69.1152 40.2653 69.8682 39.6095 59.5795 49.5455C56.046 52.9579 53.0649 55.7497 52.9548 55.7497C52.8446 55.7497 50.8963 53.9573 48.6251 51.7666C46.3539 49.5759 44.2669 47.6262 43.9875 47.4342C42.9891 46.7477 41.9617 46.494 40.438 46.5576C39.3247 46.604 38.8786 46.6936 38.2085 47.0049C36.0435 48.0107 34.6717 50.3337 34.9311 52.5554C35.033 53.4291 35.536 54.692 36.0378 55.3343C36.2013 55.5435 39.2855 58.5634 42.8916 62.0453C50.6062 69.4939 50.6922 69.4096 52.8898 69.4096C53.9886 69.4096 54.4811 69.3132 55.5839 68.7318C56.5158 68.2404 57.2117 67.6481 59.7437 65.1912C61.4161 63.5685 65.9928 59.1389 69.9139 55.3479C76.5275 48.9535 77.0785 48.3829 77.5305 47.4585C77.9675 46.5645 78.0175 46.3326 78.016 45.2049C78.0147 44.1043 77.9571 43.8257 77.5544 42.9667C76.3596 40.4187 73.4426 39.0606 70.7654 39.8059ZM73.9649 42.3127C74.4746 42.5781 75.2721 43.4692 75.4762 44.0011C75.7325 44.6696 75.6591 45.9825 75.3289 46.6343C74.9232 47.435 55.4916 66.2231 54.5341 66.7402C53.588 67.2514 52.3466 67.2514 51.381 66.7402C50.3512 66.1951 38.0063 54.2151 37.6419 53.4072C37.056 52.1078 37.4116 50.5549 38.5125 49.6061C39.5136 48.7433 40.6638 48.5362 41.9688 48.9839C42.5586 49.1863 43.2925 49.8237 46.5 52.9195C48.6051 54.9513 50.7984 57.0665 51.3739 57.62C52.9233 59.1097 53.0068 59.0942 55.2868 56.893C56.2742 55.9397 60.0017 52.3383 63.5699 48.8899C67.1382 45.4416 70.2992 42.4915 70.5946 42.3343C71.5854 41.807 72.9766 41.7982 73.9649 42.3127Z" fill="white"/>
</svg>
