<svg width="25" height="25" viewBox="0 0 25 25" fill="none" xmlns="http://www.w3.org/2000/svg">
<path fill-rule="evenodd" clip-rule="evenodd" d="M23.7744 3.86182C23.9453 3.87914 24.1039 3.96098 24.2198 4.09172C24.3317 4.22674 24.3636 4.4138 24.3034 4.58012L22.9672 10.3558C22.6689 11.6567 21.6099 12.6232 20.3226 12.7695L8.60284 14.0339L8.38012 14.5511C8.21819 15.0085 8.2695 15.5173 8.51929 15.9304C8.77191 16.3486 9.21123 16.6077 9.68849 16.62H20.5175C20.825 16.62 21.0742 16.8773 21.0742 17.1947C21.0742 17.5121 20.825 17.7694 20.5175 17.7694H9.68854C8.84342 17.7432 8.06399 17.2926 7.60069 16.5626C7.13291 15.8192 7.03967 14.8891 7.35015 14.0626L7.6285 13.4018L4.09309 2.39634C3.89525 1.80563 3.3622 1.40441 2.75685 1.3906H0.891719C0.584221 1.3906 0.334961 1.13331 0.334961 0.815907C0.334961 0.498502 0.584221 0.241211 0.891719 0.241211H2.75685C3.83946 0.253036 4.79793 0.966278 5.15093 2.02278L5.65201 3.6032L23.7744 3.86182ZM20.1834 11.6202C21.012 11.5524 21.7008 10.9347 21.8815 10.0972L23.0785 5.01121L6.01391 4.7526L8.60284 12.8558L20.1834 11.6202ZM7.99085 19.177C6.60707 19.177 5.48535 20.3334 5.48535 21.7598C5.48535 23.1862 6.60712 24.3425 7.99085 24.3425C9.37462 24.3425 10.4963 23.1862 10.4963 21.7598C10.4964 20.3334 9.37462 19.177 7.99085 19.177ZM7.99085 23.1947C7.22209 23.1947 6.59892 22.5523 6.59892 21.7598C6.59892 20.9674 7.22209 20.325 7.99085 20.325C8.7596 20.325 9.38277 20.9674 9.38277 21.7598C9.38283 22.5523 8.7596 23.1947 7.99085 23.1947ZM18.5689 19.177C17.1852 19.177 16.0635 20.3334 16.0635 21.7598C16.0635 23.1862 17.1852 24.3425 18.5689 24.3425C19.9526 24.3425 21.0743 23.1862 21.0743 21.7598C21.0743 20.3334 19.9527 19.177 18.5689 19.177ZM18.5689 23.1947C17.8002 23.1947 17.177 22.5523 17.177 21.7598C17.177 20.9674 17.8002 20.325 18.5689 20.325C19.3376 20.325 19.9608 20.9674 19.9608 21.7598C19.9609 22.5523 19.3376 23.1947 18.5689 23.1947Z" fill="white"/>
<path d="M24.2198 4.09172L24.2584 4.0598L24.2572 4.05854L24.2198 4.09172ZM23.7744 3.86182L23.7795 3.81188L23.7752 3.81182L23.7744 3.86182ZM24.3034 4.58012L24.2561 4.56297L24.2547 4.56885L24.3034 4.58012ZM22.9672 10.3558L22.9185 10.3445L22.9185 10.3446L22.9672 10.3558ZM20.3226 12.7695L20.3279 12.8192L20.3282 12.8192L20.3226 12.7695ZM8.60284 14.0339L8.59748 13.9842L8.56846 13.9873L8.55692 14.0141L8.60284 14.0339ZM8.38012 14.5511L8.33409 14.5313L8.33298 14.5344L8.38012 14.5511ZM8.51929 15.9304L8.56209 15.9045L8.56208 15.9045L8.51929 15.9304ZM9.68849 16.62L9.6872 16.67H9.68849V16.62ZM9.68854 17.7694L9.68699 17.8194H9.68854V17.7694ZM7.60069 16.5626L7.55837 16.5892L7.55847 16.5893L7.60069 16.5626ZM7.35015 14.0626L7.30403 14.0432L7.30334 14.045L7.35015 14.0626ZM7.6285 13.4018L7.67458 13.4212L7.68177 13.4041L7.6761 13.3865L7.6285 13.4018ZM4.09309 2.39634L4.1407 2.38104L4.1405 2.38046L4.09309 2.39634ZM2.75685 1.3906L2.75799 1.3406H2.75685V1.3906ZM2.75685 0.241211L2.7574 0.191211H2.75685V0.241211ZM5.15093 2.02278L5.1986 2.00766L5.19835 2.00693L5.15093 2.02278ZM5.65201 3.6032L5.60434 3.61832L5.61524 3.65268L5.65129 3.6532L5.65201 3.6032ZM21.8815 10.0972L21.8328 10.0858L21.8326 10.0867L21.8815 10.0972ZM20.1834 11.6202L20.1793 11.5703L20.1781 11.5705L20.1834 11.6202ZM23.0785 5.01121L23.1272 5.02266L23.1414 4.96216L23.0793 4.96121L23.0785 5.01121ZM6.01391 4.7526L6.01466 4.7026L5.94511 4.70155L5.96628 4.76781L6.01391 4.7526ZM8.60284 12.8558L8.55521 12.871L8.56762 12.9098L8.60814 12.9055L8.60284 12.8558ZM10.4963 21.7598L10.4463 21.7598V21.7598H10.4963ZM9.38277 21.7598H9.33277V21.7598L9.38277 21.7598ZM19.9608 21.7598H19.9108V21.7598L19.9608 21.7598ZM24.2572 4.05854C24.1331 3.91859 23.963 3.83068 23.7795 3.81207L23.7694 3.91156C23.9275 3.9276 24.0746 4.00337 24.1824 4.12489L24.2572 4.05854ZM24.3504 4.59714C24.4166 4.41435 24.3816 4.20865 24.2583 4.05982L24.1813 4.12361C24.2817 4.24483 24.3107 4.41324 24.2564 4.5631L24.3504 4.59714ZM23.0159 10.3671L24.3521 4.59139L24.2547 4.56885L22.9185 10.3445L23.0159 10.3671ZM20.3282 12.8192C21.6375 12.6704 22.713 11.6877 23.0159 10.367L22.9185 10.3446C22.6247 11.6257 21.5823 12.576 20.3169 12.7198L20.3282 12.8192ZM8.6082 14.0836L20.3279 12.8192L20.3172 12.7198L8.59748 13.9842L8.6082 14.0836ZM8.42604 14.5709L8.64876 14.0536L8.55692 14.0141L8.33419 14.5313L8.42604 14.5709ZM8.56208 15.9045C8.32009 15.5044 8.27029 15.0111 8.42725 14.5678L8.33298 14.5344C8.16609 15.0058 8.21891 15.5303 8.47651 15.9563L8.56208 15.9045ZM9.68978 16.57C9.23004 16.5582 8.80614 16.3085 8.56209 15.9045L8.47649 15.9562C8.73768 16.3886 9.19242 16.6572 9.6872 16.67L9.68978 16.57ZM20.5175 16.57H9.68849V16.67H20.5175V16.57ZM21.1242 17.1947C21.1242 16.8512 20.8541 16.57 20.5175 16.57V16.67C20.7959 16.67 21.0242 16.9034 21.0242 17.1947H21.1242ZM20.5175 17.8194C20.8541 17.8194 21.1242 17.5382 21.1242 17.1947H21.0242C21.0242 17.486 20.7959 17.7194 20.5175 17.7194V17.8194ZM9.68854 17.8194H20.5175V17.7194H9.68854V17.8194ZM7.55847 16.5893C8.0304 17.333 8.82486 17.7926 9.68699 17.8194L9.69009 17.7194C8.86197 17.6937 8.09757 17.2522 7.6429 16.5358L7.55847 16.5893ZM7.30334 14.045C6.9874 14.886 7.08222 15.8326 7.55837 16.5892L7.643 16.5359C7.1836 15.8059 7.09193 14.8921 7.39695 14.0802L7.30334 14.045ZM7.58242 13.3823L7.30407 14.0432L7.39623 14.082L7.67458 13.4212L7.58242 13.3823ZM4.04549 2.41163L7.5809 13.417L7.6761 13.3865L4.1407 2.38104L4.04549 2.41163ZM2.75571 1.44059C3.33918 1.4539 3.85427 1.84072 4.04568 2.41222L4.1405 2.38046C3.93623 1.77055 3.38522 1.35492 2.75799 1.34062L2.75571 1.44059ZM0.891719 1.4406H2.75685V1.3406H0.891719V1.4406ZM0.284961 0.815907C0.284961 1.15942 0.555124 1.4406 0.891719 1.4406V1.3406C0.613318 1.3406 0.384961 1.10721 0.384961 0.815907H0.284961ZM0.891719 0.191211C0.555124 0.191211 0.284961 0.472394 0.284961 0.815907H0.384961C0.384961 0.524609 0.613318 0.291211 0.891719 0.291211V0.191211ZM2.75685 0.191211H0.891719V0.291211H2.75685V0.191211ZM5.19835 2.00693C4.83886 0.931014 3.86214 0.203281 2.7574 0.191214L2.75631 0.291208C3.81679 0.302791 4.75699 1.00154 5.10351 2.03862L5.19835 2.00693ZM5.69967 3.58809L5.19859 2.00766L5.10327 2.03789L5.60434 3.61832L5.69967 3.58809ZM23.7752 3.81182L5.65272 3.55321L5.65129 3.6532L23.7737 3.91181L23.7752 3.81182ZM21.8326 10.0867C21.6563 10.9035 20.985 11.5044 20.1793 11.5704L20.1875 11.67C21.0389 11.6003 21.7452 10.9658 21.9304 10.1078L21.8326 10.0867ZM23.0298 4.99975L21.8328 10.0858L21.9302 10.1087L23.1272 5.02266L23.0298 4.99975ZM6.01315 4.80259L23.0777 5.0612L23.0793 4.96121L6.01466 4.7026L6.01315 4.80259ZM8.65047 12.8406L6.06153 4.73738L5.96628 4.76781L8.55521 12.871L8.65047 12.8406ZM20.1781 11.5705L8.59754 12.806L8.60814 12.9055L20.1887 11.6699L20.1781 11.5705ZM5.53535 21.7598C5.53535 20.3596 6.6361 19.227 7.99085 19.227V19.127C6.57803 19.127 5.43535 20.3072 5.43535 21.7598H5.53535ZM7.99085 24.2925C6.63616 24.2925 5.53535 23.16 5.53535 21.7598H5.43535C5.43535 23.2124 6.57809 24.3925 7.99085 24.3925V24.2925ZM10.4463 21.7598C10.4463 23.16 9.34559 24.2925 7.99085 24.2925V24.3925C9.40366 24.3925 10.5463 23.2123 10.5463 21.7598H10.4463ZM7.99085 19.227C9.34559 19.227 10.4464 20.3596 10.4463 21.7598L10.5463 21.7598C10.5464 20.3072 9.40366 19.127 7.99085 19.127V19.227ZM6.54892 21.7598C6.54892 22.5785 7.19306 23.2447 7.99085 23.2447V23.1447C7.25113 23.1447 6.64892 22.5261 6.64892 21.7598H6.54892ZM7.99085 20.275C7.19306 20.275 6.54892 20.9412 6.54892 21.7598H6.64892C6.64892 20.9935 7.25113 20.375 7.99085 20.375V20.275ZM9.43277 21.7598C9.43277 20.9412 8.78863 20.275 7.99085 20.275V20.375C8.73056 20.375 9.33277 20.9935 9.33277 21.7598H9.43277ZM7.99085 23.2447C8.78863 23.2447 9.43283 22.5785 9.43277 21.7598L9.33277 21.7598C9.33282 22.5261 8.73057 23.1447 7.99085 23.1447V23.2447ZM16.1135 21.7598C16.1135 20.3596 17.2142 19.227 18.5689 19.227V19.127C17.1561 19.127 16.0135 20.3072 16.0135 21.7598H16.1135ZM18.5689 24.2925C17.2143 24.2925 16.1135 23.16 16.1135 21.7598H16.0135C16.0135 23.2124 17.1562 24.3925 18.5689 24.3925V24.2925ZM21.0243 21.7598C21.0243 23.16 19.9236 24.2925 18.5689 24.2925V24.3925C19.9816 24.3925 21.1243 23.2123 21.1243 21.7598H21.0243ZM18.5689 19.227C19.9236 19.227 21.0243 20.3596 21.0243 21.7598H21.1243C21.1243 20.3072 19.9817 19.127 18.5689 19.127V19.227ZM17.127 21.7598C17.127 22.5785 17.7711 23.2447 18.5689 23.2447V23.1447C17.8292 23.1447 17.227 22.5261 17.227 21.7598H17.127ZM18.5689 20.275C17.7711 20.275 17.127 20.9412 17.127 21.7598H17.227C17.227 20.9935 17.8292 20.375 18.5689 20.375V20.275ZM20.0108 21.7598C20.0108 20.9412 19.3667 20.275 18.5689 20.275V20.375C19.3086 20.375 19.9108 20.9935 19.9108 21.7598H20.0108ZM18.5689 23.2447C19.3667 23.2447 20.0109 22.5785 20.0108 21.7598L19.9108 21.7598C19.9109 22.5261 19.3086 23.1447 18.5689 23.1447V23.2447Z" fill="#1E2433"/>
</svg>
