<svg width="118" height="101" viewBox="0 0 118 101" fill="none" xmlns="http://www.w3.org/2000/svg">
<path fill-rule="evenodd" clip-rule="evenodd" d="M57.0624 0.075805C44.6709 1.40926 34.2298 9.6759 30.4626 21.1359C26.9867 31.7104 29.8627 43.3901 37.9209 51.4245C42.7737 56.2629 49.371 59.4414 56.49 60.3709C58.2097 60.5953 62.7633 60.5939 64.3594 60.3683C70.3273 59.5245 75.6102 57.3378 80.0481 53.8743C86.2797 49.011 90.2936 42.2002 91.4972 34.448C91.8133 32.4121 91.807 28.1369 91.4849 26.0634C91.114 23.6765 90.4947 21.3868 89.6502 19.2811C85.4765 8.87369 75.7251 1.52755 64.22 0.123614C63.094 -0.0137471 58.1988 -0.0465343 57.0624 0.075805ZM62.9002 2.14171C67.4451 2.55538 71.5694 3.84608 75.3604 6.04125C81.3253 9.49521 86.0402 15.2463 88.0917 21.5711C91.3282 31.5495 88.8018 42.2582 81.4518 49.7142C74.4312 56.8362 64.2754 59.8694 54.3067 57.8215C42.0217 55.2978 32.8249 45.3933 31.4413 33.1965C31.3334 32.2451 31.3004 30.7648 31.3526 29.2245C31.4925 25.099 32.3603 21.7098 34.2435 17.9339C37.0421 12.322 41.4833 7.94322 47.2615 5.09851C52.1169 2.70805 57.643 1.66318 62.9002 2.14171ZM59.7043 10.9496C59.1072 11.1866 58.9966 11.509 58.9224 13.231L58.8508 14.8882L57.6799 15.2719C54.0932 16.4469 51.7175 19.8429 51.9588 23.4508C52.0978 25.5335 52.9564 27.3375 54.491 28.7718C56.1128 30.2874 57.7552 30.9445 60.4641 31.1611C61.8548 31.2725 62.2199 31.3587 63.111 31.7865C64.388 32.3998 65.3548 33.3605 65.9743 34.6317C66.4075 35.5208 66.434 35.667 66.434 37.1663C66.434 38.5926 66.3941 38.8435 66.0483 39.5884C64.0907 43.8051 58.129 44.4034 55.3929 40.6575C54.727 39.7458 54.2008 38.2917 54.2008 37.3634C54.2008 36.2172 53.0225 35.6729 52.2433 36.4594C51.8942 36.8118 51.8781 36.8908 51.9642 37.8265C52.1458 39.7981 53.0173 41.5422 54.5375 42.976C55.5575 43.9381 56.7482 44.622 58.0287 44.9814L58.9224 45.2323V46.8808C58.9224 48.5246 58.9235 48.5304 59.3573 48.9683C59.72 49.3345 59.8671 49.3923 60.2421 49.3166C61.1256 49.1382 61.2116 48.9371 61.2116 47.0505V45.3499L62.0343 45.1794C65.1397 44.5361 67.6051 42.3467 68.5101 39.4283C68.917 38.1163 68.8981 36.0519 68.4676 34.777C68.0154 33.4382 67.2839 32.2817 66.3135 31.3714C64.6955 29.8535 63.129 29.2102 60.5651 29.0104C58.0924 28.8177 56.6021 28.093 55.4072 26.5015C53.1838 23.5405 54.2079 19.3185 57.5501 17.6665C60.8723 16.0247 64.7541 17.4489 66.2009 20.8404C66.3009 21.075 66.4364 21.7495 66.502 22.3391C66.6426 23.6045 66.9362 24.0103 67.7114 24.0103C68.5106 24.0103 68.7948 23.6362 68.7948 22.5842C68.7948 19.9092 66.8793 17.0281 64.2463 15.7427C63.6098 15.4321 62.6666 15.0973 62.1504 14.9989L61.2116 14.8202V13.1915C61.2116 11.847 61.168 11.5123 60.9613 11.2731C60.6651 10.9306 60.1112 10.7881 59.7043 10.9496ZM1.51386 59.6276C1.37722 59.7146 1.1988 59.9109 1.11768 60.064C0.906064 60.4632 -0.159727 97.9512 0.0204092 98.659C0.0754944 98.8753 0.247473 99.1207 0.40257 99.2045C0.674133 99.3512 13.1786 99.7747 17.4003 99.7802C19.2308 99.7825 19.316 99.7692 19.6538 99.428C19.9777 99.1012 20.005 98.9661 20.005 97.6955V96.3174L23.1262 94.7407C24.8428 93.8735 26.5118 93.0921 26.8352 93.0043C27.9237 92.7083 29.4159 92.5889 30.4755 92.7128C31.0516 92.7801 37.8602 94.5587 45.6061 96.6652C53.3518 98.7717 60.3698 100.607 61.2016 100.744C63.2843 101.086 67.4337 101.085 69.6533 100.742C72.4127 100.316 75.583 99.3989 77.2585 98.5431C77.8907 98.2203 116.793 73.9113 117.62 73.322C118.439 72.7393 117.925 71.5106 116.17 69.8562C114.971 68.7258 113.945 68.1027 112.328 67.5246C111.163 67.1081 110.937 67.0763 109.143 67.0753C107.736 67.0746 106.969 67.143 106.319 67.327C105.828 67.466 101.16 69.5358 95.9458 71.9265C90.7315 74.3171 86.3316 76.3035 86.1688 76.3403C85.9282 76.3947 85.7699 76.2301 85.3255 75.4631C83.1397 71.6898 79.0641 69.214 74.5895 68.9411C73.8812 68.898 69.5996 68.7654 65.0748 68.6465C60.5499 68.5276 56.397 68.3622 55.8462 68.279C53.441 67.9153 51.6571 67.3029 48.8032 65.8608C44.4343 63.6535 40.3275 62.662 35.5538 62.662C30.941 62.662 26.9642 63.5705 22.8856 65.5559C21.9123 66.0297 21.0595 66.4174 20.9906 66.4174C20.9197 66.4174 20.9053 65.2035 20.9575 63.6322C21.0618 60.4879 21.0202 60.2975 20.1816 60.0749C19.8877 59.9971 16.5568 59.863 12.7796 59.7771C9.0023 59.6913 4.97822 59.587 3.83717 59.5454C2.45789 59.4952 1.67926 59.5227 1.51386 59.6276ZM13.4178 61.9487C16.287 62.0302 18.6535 62.1161 18.6767 62.1395C18.7344 62.1977 17.7255 97.3633 17.661 97.5438C17.6129 97.6783 2.42341 97.3811 2.27819 97.2427C2.24714 97.2131 2.32683 93.4338 2.45546 88.8445C2.58409 84.2551 2.78955 76.6003 2.91188 71.8338C3.03421 67.0673 3.16942 62.8178 3.2122 62.3904L3.29004 61.6135L5.74555 61.7069C7.09607 61.7584 10.5486 61.8671 13.4178 61.9487ZM37.4041 64.8337C41.2961 65.1496 44.0464 65.941 48.1915 67.9382C50.9532 69.2686 52.2824 69.7509 54.3346 70.1665C56.2159 70.5477 56.8291 70.5812 66.5055 70.8336C75.6289 71.0715 76.3074 71.1333 78.0949 71.8891C80.7835 73.0261 82.962 75.231 83.9441 77.8089C84.3569 78.8928 84.7771 80.6635 84.6515 80.7903C84.6161 80.8258 78.8328 80.6986 71.7994 80.5073C57.8336 80.1277 58.3269 80.112 58.1194 80.9467C58.0015 81.4208 58.2561 81.9822 58.6698 82.161C58.8501 82.2389 65.0283 82.4616 72.5864 82.6628C88.5635 83.088 86.8942 83.2579 86.8942 81.2061C86.8942 80.5001 86.8444 79.5974 86.7836 79.2002L86.6729 78.478L96.3248 74.0726C101.633 71.6497 106.383 69.5579 106.88 69.4243C108.721 68.9296 110.972 69.1467 112.662 69.982C113.585 70.438 115.513 72.0343 115.343 72.2008C115.277 72.2648 106.451 77.8085 95.728 84.5201C74.9674 97.5148 75.6319 97.1306 72.4433 97.9842C70.3432 98.5465 68.7127 98.7847 66.3625 98.8722C62.4513 99.0178 62.2414 98.9736 46.3775 94.6617C38.6705 92.5669 31.9641 90.7733 31.4745 90.6761C30.9222 90.5665 29.9476 90.5267 28.9074 90.5714C26.7692 90.6634 25.501 91.0789 22.4016 92.7034L20.1481 93.8844L20.1435 93.3309C20.1322 91.9568 20.747 70.0488 20.8087 69.6268C20.8914 69.062 21.4172 68.6874 23.7966 67.4981C26.6168 66.0885 30.1431 65.1128 33.3959 64.8424C35.4592 64.6708 35.3974 64.671 37.4041 64.8337Z" fill="white"/>
</svg>
