<svg width="30" height="28" viewBox="0 0 30 28" fill="none" xmlns="http://www.w3.org/2000/svg">
<path d="M25.7094 25.7094L24.6488 26.7701L25.7094 27.8308L26.7701 26.7701L25.7094 25.7094ZM14.9999 14.9999L16.0605 13.9392L14.9999 12.8786L13.9392 13.9392L14.9999 14.9999ZM27.1237 24.2952L28.1843 25.3559L29.245 24.2952L28.1843 23.2346L27.1237 24.2952ZM16.4141 13.5857L15.3534 12.525L14.2928 13.5857L15.3534 14.6463L16.4141 13.5857ZM25.7094 4.2903L26.7701 5.35096L27.8308 4.2903L26.7701 3.22964L25.7094 4.2903ZM24.2952 2.87609L25.3559 1.81543L24.2952 0.754766L23.2346 1.81543L24.2952 2.87609ZM14.9999 12.1714L13.9392 13.2321L14.9999 14.2928L16.0605 13.2321L14.9999 12.1714ZM5.7044 2.87598L6.76506 1.81532L5.7044 0.754656L4.64374 1.81532L5.7044 2.87598ZM4.29019 4.29019L3.22953 3.22953L2.16887 4.29019L3.22953 5.35085L4.29019 4.29019ZM13.5857 13.5857L14.6463 14.6463L15.707 13.5857L14.6463 12.525L13.5857 13.5857ZM2.87598 24.2953L1.81532 23.2347L0.754656 24.2953L1.81532 25.356L2.87598 24.2953ZM4.29019 25.7096L3.22953 26.7702L4.29019 27.8309L5.35085 26.7702L4.29019 25.7096ZM26.7701 24.6488L16.0605 13.9392L13.9392 16.0605L24.6488 26.7701L26.7701 24.6488ZM26.063 23.2346L24.6488 24.6488L26.7701 26.7701L28.1843 25.3559L26.063 23.2346ZM15.3534 14.6463L26.063 25.3559L28.1843 23.2346L17.4747 12.525L15.3534 14.6463ZM24.6488 3.22964L15.3534 12.525L17.4747 14.6463L26.7701 5.35096L24.6488 3.22964ZM23.2346 3.93675L24.6488 5.35096L26.7701 3.22964L25.3559 1.81543L23.2346 3.93675ZM16.0605 13.2321L25.3559 3.93675L23.2346 1.81543L13.9392 11.1108L16.0605 13.2321ZM4.64374 3.93664L13.9392 13.2321L16.0605 11.1108L6.76506 1.81532L4.64374 3.93664ZM5.35085 5.35085L6.76506 3.93664L4.64374 1.81532L3.22953 3.22953L5.35085 5.35085ZM14.6463 12.525L5.35085 3.22953L3.22953 5.35085L12.525 14.6463L14.6463 12.525ZM3.93664 25.356L14.6463 14.6463L12.525 12.525L1.81532 23.2347L3.93664 25.356ZM5.35085 24.6489L3.93664 23.2347L1.81532 25.356L3.22953 26.7702L5.35085 24.6489ZM13.9392 13.9392L3.22953 24.6489L5.35085 26.7702L16.0605 16.0605L13.9392 13.9392Z" fill="#1E2433"/>
</svg>
