<svg width="428" height="18" viewBox="0 0 428 18" fill="none" xmlns="http://www.w3.org/2000/svg">
<path fill-rule="evenodd" clip-rule="evenodd" d="M299 4.45355C294.725 4.45355 292.67 6.86797 290.095 9.91254L290.091 9.91628C287.271 13.229 284.066 16.9929 277.666 16.9929C271.264 16.9929 268.03 13.2403 265.201 9.91254C262.604 6.86797 260.543 4.45355 256.267 4.45355C252.002 4.45355 249.947 6.85587 247.352 9.88962L247.333 9.91254L247.33 9.91624V9.91656C244.509 13.2292 241.304 16.9929 234.904 16.9929C228.502 16.9929 225.297 13.2332 222.469 9.91254C219.905 6.89375 217.864 4.50256 213.701 4.44063V4.45355C209.418 4.45355 207.356 6.86797 204.752 9.9267L204.749 9.93044V9.93076C201.928 13.2434 198.723 17.0071 192.316 17.0071C185.912 17.0071 182.715 13.254 179.888 9.93544L179.887 9.93443L179.88 9.9267C177.276 6.86797 175.214 4.45355 170.939 4.45355C166.674 4.45355 164.619 6.85588 162.024 9.88965L162.004 9.91254L162.001 9.91628C159.181 13.229 155.976 16.9929 149.576 16.9929C143.174 16.9929 139.962 13.2332 137.14 9.91254L137.138 9.90996C134.535 6.85245 132.48 4.43941 128.199 4.43941C123.946 4.43941 121.897 6.83438 119.318 9.84924L119.264 9.91254L119.252 9.92744L119.25 9.92973C116.432 13.2391 113.235 16.9929 106.836 16.9929C100.426 16.9929 97.2287 13.2403 94.4073 9.91254L94.4052 9.90996L94.4049 9.90967C91.8017 6.85229 89.7472 4.43941 85.4658 4.43941C81.2128 4.43941 79.1643 6.83437 76.5856 9.84921L76.5314 9.91254L76.5282 9.91632L76.5281 9.91646C73.7075 13.2291 70.5028 16.9929 64.103 16.9929C57.7006 16.9929 54.4958 13.2403 51.6672 9.91254L51.6218 9.85944C49.0391 6.83995 46.9978 4.45355 42.7329 4.45355C38.4679 4.45355 36.4267 6.83995 33.844 9.85944L33.7986 9.91254L33.7953 9.91632L33.7952 9.91646C30.9746 13.2291 27.7699 16.9929 21.3701 16.9929C14.9677 16.9929 11.7629 13.2403 8.93433 9.91254L8.91473 9.88965C6.31967 6.85588 4.26474 4.45355 0 4.45355V0C6.40958 0 9.60712 3.75967 12.4285 7.08038L12.4307 7.08296C15.034 10.1405 17.0886 12.5535 21.3701 12.5535C25.6336 12.5535 27.6817 10.1536 30.2695 7.12123L30.3044 7.08038L30.3171 7.06543L30.3172 7.06529C33.1355 3.75533 36.333 0 42.7329 0C49.1425 0 52.34 3.75967 55.1614 7.08038L55.1636 7.08296C57.7669 10.1405 59.8215 12.5535 64.103 12.5535C68.3442 12.5535 70.3931 10.1787 72.9899 7.16887L73.0662 7.08038L73.0694 7.07664C75.89 3.76395 79.0948 0 85.4947 0C91.897 0 95.1018 3.75967 97.9304 7.08038L97.9326 7.08295C100.536 10.1405 102.591 12.5535 106.865 12.5535C111.116 12.5535 113.142 10.1599 115.704 7.13315L115.706 7.13068L115.748 7.08038L115.752 7.07664C118.572 3.76395 121.777 0 128.177 0C134.579 0 137.813 3.75967 140.634 7.08038L140.637 7.08296V7.08351C143.24 10.1408 145.294 12.5535 149.576 12.5535C153.85 12.5535 155.898 10.1486 158.495 7.09839L158.51 7.08038L158.523 7.06548C161.341 3.75548 164.539 0 170.939 0C177.348 0 180.553 3.75967 183.375 7.08038C185.979 10.1391 188.041 12.5535 192.316 12.5535C196.587 12.5535 198.649 10.1374 201.249 7.09058L201.258 7.08038L201.281 7.05286C204.079 3.77472 207.246 0.0651855 213.534 0.000854492V0L213.617 0.000213623L213.701 0V0.000854492C219.994 0.0652618 223.161 3.78268 225.963 7.07262L225.97 7.08038C228.567 10.1391 230.629 12.5535 234.904 12.5535C239.179 12.5535 241.233 10.1408 243.835 7.08356L243.836 7.08296L243.839 7.08038L243.842 7.07663C246.662 3.76392 249.867 0 256.267 0C262.669 0 265.874 3.75967 268.703 7.08038C271.3 10.1391 273.362 12.5535 277.637 12.5535C281.911 12.5535 283.966 10.1405 286.569 7.08296L286.572 7.08038L286.575 7.07663C289.395 3.76392 292.6 0 299 0C305.41 0 308.607 3.75967 311.428 7.08038L311.431 7.08296C314.034 10.1405 316.089 12.5535 320.37 12.5535C324.634 12.5535 326.682 10.1536 329.27 7.12123L329.304 7.08038L329.317 7.06543C332.135 3.75534 335.333 0 341.733 0C348.142 0 351.34 3.75967 354.161 7.08038L354.164 7.08296C356.767 10.1405 358.822 12.5535 363.103 12.5535C367.344 12.5535 369.393 10.1787 371.99 7.16887L372.066 7.08038L372.069 7.07664C374.89 3.76395 378.095 0 384.495 0C390.897 0 394.102 3.75967 396.93 7.08038L396.933 7.08295C399.536 10.1405 401.591 12.5535 405.865 12.5535C410.116 12.5535 412.142 10.1599 414.704 7.13318L414.706 7.13068L414.748 7.08038L414.752 7.07664C417.572 3.76395 420.777 0 427.177 0L427.199 4.43941C422.946 4.43941 420.897 6.83438 418.318 9.84924L418.264 9.91254L418.252 9.92744L418.25 9.9297C415.432 13.2391 412.235 16.9929 405.836 16.9929C399.426 16.9929 396.229 13.2403 393.407 9.91254L393.405 9.90996V9.90962C390.802 6.85226 388.747 4.43941 384.466 4.43941C380.213 4.43941 378.164 6.83437 375.586 9.84921L375.531 9.91254L375.528 9.91632C372.707 13.2291 369.503 16.9929 363.103 16.9929C356.701 16.9929 353.496 13.2403 350.667 9.91254L350.622 9.85944C348.039 6.83995 345.998 4.45355 341.733 4.45355C337.468 4.45355 335.427 6.83995 332.844 9.85944L332.799 9.91254L332.795 9.91632C329.975 13.2291 326.77 16.9929 320.37 16.9929C313.968 16.9929 310.763 13.2403 307.934 9.91254L307.915 9.88965C305.32 6.85588 303.265 4.45355 299 4.45355Z" fill="#F99D21"/>
</svg>
