<svg width="385" height="18" viewBox="0 0 385 18" fill="none" xmlns="http://www.w3.org/2000/svg">
<path d="M290.095 9.91254C292.67 6.86797 294.725 4.45355 299 4.45355C303.265 4.45355 305.32 6.85588 307.915 9.88965L307.934 9.91254C310.763 13.2403 313.968 16.9929 320.37 16.9929C326.77 16.9929 329.975 13.2291 332.795 9.91632L332.799 9.91254L332.844 9.85944L332.845 9.85849C335.427 6.83945 337.468 4.45355 341.733 4.45355C345.998 4.45355 348.039 6.83945 350.621 9.85849L350.622 9.85944L350.667 9.91254C353.496 13.2403 356.701 16.9929 363.103 16.9929C369.502 16.9929 372.706 13.2304 375.527 9.91799L375.528 9.91632L375.531 9.91254L375.586 9.84921C378.164 6.83437 380.213 4.43941 384.466 4.43941L384.495 0C378.095 0 374.89 3.76358 372.069 7.07616L372.069 7.07664L372.066 7.08038L371.99 7.16887C369.393 10.1787 367.344 12.5535 363.103 12.5535C358.822 12.5535 356.767 10.1405 354.164 7.08296L354.161 7.08038C351.34 3.75967 348.142 0 341.733 0C335.333 0 332.135 3.75534 329.317 7.06543L329.304 7.08038L329.27 7.12123L329.27 7.12176C326.682 10.1539 324.634 12.5535 320.37 12.5535C316.089 12.5535 314.034 10.1405 311.431 7.08296L311.428 7.08038C308.607 3.75967 305.41 0 299 0C292.6 0 289.395 3.76392 286.575 7.07663L286.572 7.08038L286.569 7.08296C283.966 10.1405 281.911 12.5535 277.637 12.5535C273.362 12.5535 271.3 10.1391 268.703 7.08038C265.874 3.75967 262.669 0 256.267 0C249.867 0 246.662 3.76392 243.842 7.07663L243.839 7.08038L243.836 7.08296L243.835 7.08356C241.233 10.1408 239.179 12.5535 234.904 12.5535C230.629 12.5535 228.567 10.1391 225.97 7.08038L225.963 7.07262C223.161 3.78268 219.994 0.0644073 213.701 0L213.617 0.000213623L213.534 0.000854492C207.246 0.0651855 204.079 3.77472 201.281 7.05286L201.258 7.08038L201.249 7.09058C198.649 10.1374 196.587 12.5535 192.316 12.5535C188.041 12.5535 185.979 10.1391 183.375 7.08038C180.553 3.75967 177.348 0 170.939 0C164.539 0 161.341 3.75548 158.523 7.06548L158.51 7.08038L158.495 7.09839C155.898 10.1486 153.85 12.5535 149.576 12.5535C145.295 12.5535 143.241 10.141 140.638 7.08433L140.637 7.08296L140.634 7.08038C137.813 3.75967 134.579 0 128.177 0C121.777 0 118.572 3.76395 115.752 7.07664L115.748 7.08038L115.706 7.13068L115.704 7.13315L115.704 7.13327C113.142 10.16 111.116 12.5535 106.865 12.5535C102.591 12.5535 100.536 10.1405 97.9326 7.08295L97.9304 7.08038C95.1018 3.75967 91.897 0 85.4947 0C79.0948 0 75.89 3.76391 73.0694 7.07659L73.0694 7.07664L73.0662 7.08038L72.9899 7.16887L72.9899 7.16891C70.3931 10.1787 68.3442 12.5535 64.103 12.5535C59.8215 12.5535 57.7669 10.1405 55.1636 7.08296L55.1614 7.08038C52.34 3.75967 49.1425 0 42.7329 0C36.333 0 33.1354 3.75543 30.3171 7.06538L30.3171 7.06543L30.3044 7.08038L30.2695 7.12123C27.6817 10.1536 25.6336 12.5535 21.3701 12.5535C17.0886 12.5535 15.034 10.1405 12.4307 7.08296L12.4285 7.08038C9.60712 3.75967 6.40958 0 0 0V4.45355C4.26474 4.45355 6.31967 6.85588 8.91472 9.88964L8.91473 9.88965L8.93433 9.91254C11.7629 13.2403 14.9677 16.9929 21.3701 16.9929C27.7698 16.9929 30.9746 13.229 33.7952 9.91643L33.7953 9.91632L33.7986 9.91254L33.844 9.85944C36.4267 6.83995 38.4679 4.45355 42.7329 4.45355C46.9978 4.45355 49.0391 6.83995 51.6218 9.85944L51.6672 9.91254C54.4958 13.2403 57.7006 16.9929 64.103 16.9929C70.5027 16.9929 73.7075 13.229 76.5281 9.91643L76.5282 9.91632L76.5314 9.91254L76.5856 9.84921C79.1643 6.83437 81.2128 4.43941 85.4658 4.43941C89.7472 4.43941 91.802 6.85258 94.4052 9.90996L94.4073 9.91254C97.2287 13.2403 100.426 16.9929 106.836 16.9929C113.235 16.9929 116.432 13.2391 119.25 9.92973L119.252 9.92744L119.264 9.91254L119.318 9.84924C121.897 6.83438 123.946 4.43941 128.199 4.43941C132.48 4.43941 134.535 6.85245 137.138 9.90996L137.14 9.91254C139.962 13.2332 143.174 16.9929 149.576 16.9929C155.976 16.9929 159.181 13.229 162.001 9.91628L162.004 9.91254L162.024 9.88965C164.619 6.85588 166.674 4.45355 170.939 4.45355C175.214 4.45355 177.276 6.86797 179.88 9.9267L179.887 9.93443L179.888 9.93544L179.888 9.93572C182.715 13.2542 185.912 17.0071 192.316 17.0071C198.723 17.0071 201.928 13.2435 204.748 9.93104L204.749 9.93044L204.752 9.9267C207.356 6.86797 209.418 4.45355 213.701 4.45355V4.44063C217.864 4.50256 219.905 6.89375 222.469 9.91254C225.297 13.2332 228.502 16.9929 234.904 16.9929C241.304 16.9929 244.509 13.2293 247.329 9.91684L247.33 9.91624L247.333 9.91254L247.352 9.88962C249.947 6.85587 252.002 4.45355 256.267 4.45355C260.543 4.45355 262.604 6.86797 265.201 9.91254C268.03 13.2403 271.264 16.9929 277.666 16.9929C284.066 16.9929 287.271 13.229 290.091 9.91628L290.095 9.91254Z" fill="#F99D21"/>
</svg>
